<?xml version="1.0" encoding="utf-8"?>
<!-- Generator: Adobe Illustrator 25.0.1, SVG Export Plug-In . SVG Version: 6.00 Build 0)  -->
<svg version="1.1" id="CARD" xmlns="http://www.w3.org/2000/svg" xmlns:xlink="http://www.w3.org/1999/xlink" x="0px" y="0px"
	 viewBox="0 0 1348 838" style="enable-background:new 0 0 1348 838;" xml:space="preserve">
<style type="text/css">
	.st0{fill:#FFBBB6;}
	.st1{clip-path:url(#SVGID_4_);}
	.st2{fill:#E09D9D;}
	.st3{fill:#FFFFFF;}
	.st4{fill:#F7F7F7;}
</style>
<rect x="0.1" y="-0.2" class="st0" width="1347.9" height="838.2"/>
<g>
	<defs>
		<rect id="SVGID_1_" y="0.7" width="1347.9" height="837.3"/>
	</defs>
	<clipPath id="SVGID_2_">
		<use xlink:href="#SVGID_1_"  style="overflow:visible;"/>
	</clipPath>
</g>
<g>
	<defs>
		<rect id="SVGID_3_" y="0.7" width="1347.9" height="837.3"/>
	</defs>
	<clipPath id="SVGID_4_">
		<use xlink:href="#SVGID_3_"  style="overflow:visible;"/>
	</clipPath>
	<g class="st1">
		<path class="st2" d="M1157.7,927.8c5-1,9.1,0.7,10.8,5.5c1.7,4.9-0.5,9.1-5.3,10.8c-4.9,1.7-9.1-0.5-10.8-5.3
			C1150.7,933.9,1153.2,930.2,1157.7,927.8z"/>
		<path class="st2" d="M1180.5,744.2c1,5.1-0.7,9.1-5.5,10.8c-4.9,1.6-9.1-0.6-10.8-5.4c-1.7-4.9,0.6-9.1,5.4-10.8
			C1174.6,737.1,1178.3,739.5,1180.5,744.2z"/>
		<path class="st2" d="M1137.8,733.9c-5.1,0.6-9.2-1.4-10.4-6.3c-1.2-4.9,1.3-9.1,6.2-10.4c4.9-1.2,9.1,1.2,10.4,6.2
			C1145.2,728.4,1142.6,732,1137.8,733.9z"/>
		<path class="st2" d="M1209.7,737.2c0.5,5.1-1.4,9.1-6.5,10.3c-5,1.1-9.1-1.4-10.3-6.3c-1.1-4.9,1.4-9.1,6.4-10.3
			C1204.3,729.7,1208,732.3,1209.7,737.2z"/>
		<path class="st2" d="M1125.7,923.1c-5.3,0.4-9.1-1.7-10.1-6.8c-0.9-5,1.6-9,6.7-10c5-0.9,9,1.7,10,6.7
			C1133.2,918.1,1130.6,921.6,1125.7,923.1z"/>
		<path class="st2" d="M878.4,104.6c5.1-0.5,9.1,1.5,10.3,6.5c1.2,5-1.2,9-6.3,10.1c-5,1.2-9-1.2-10.2-6.2
			C871.1,110,873.8,106.5,878.4,104.6z"/>
		<path class="st2" d="M1173.1,716.2c0.5,5.2-1.5,9.2-6.5,10.3c-4.9,1.1-9.1-1.5-10.2-6.4c-1.1-4.9,1.4-8.9,6.4-10.1
			C1167.9,708.9,1171.4,711.5,1173.1,716.2z"/>
		<path class="st2" d="M596.1,784.6c-5.4,0.5-9.4-1.4-10.6-6.4c-1.2-5,1.2-9.1,6.2-10.3c5-1.2,9.1,1.2,10.3,6.2
			C603.3,779.1,600.4,782.6,596.1,784.6z"/>
		<path class="st2" d="M1122.7,758.5c0.9,5.6-0.7,9.5-5.7,11.1c-5,1.6-9-0.6-10.5-5.5c-1.5-4.9,0.7-9,5.6-10.6
			C1117,751.9,1120.4,754.9,1122.7,758.5z"/>
		<path class="st2" d="M1188.3,773.8c0.4,5.3-1.7,9-6.8,10c-5.1,1-9-1.5-9.9-6.6c-0.9-4.9,1.6-9,6.7-9.9
			C1183.3,766.3,1186.7,769,1188.3,773.8z"/>
		<path class="st2" d="M547.2,633.4c-0.7-5.1,1.2-9,6.2-10.3c5-1.3,9.1,1,10.3,6c1.2,4.9-1.2,9.1-6.1,10.4
			C552.7,640.8,549.1,638.2,547.2,633.4z"/>
		<path class="st2" d="M1062.5,651.6c1.2,5.1-0.6,9.1-5.5,10.7c-4.8,1.6-9.1-0.7-10.7-5.5c-1.7-4.9,0.7-9,5.5-10.6
			C1056.8,644.5,1060.5,646.8,1062.5,651.6z"/>
		<path class="st2" d="M1083.5,760.9c5-0.4,9.1,1.5,10.3,6.4c1.2,4.9-1.2,8.9-6.3,10.2c-5,1.3-9-1.1-10.2-6.1
			C1076.2,766.4,1078.7,762.8,1083.5,760.9z"/>
		<path class="st2" d="M776.6,303.6c-5.2,1-9.2-1.1-10.5-6c-1.4-5.5,1.1-9.6,7.1-10.7c5.3-1,8.7,1.5,9.8,6.7
			C784.3,298.9,781.5,302,776.6,303.6z"/>
		<path class="st2" d="M1115,731c0.6,5.1-1.3,9.2-6.3,10.4c-4.9,1.2-9.2-1.2-10.4-6.2c-1.2-4.9,1.3-9.2,6.2-10.4
			C1109.4,723.6,1113.1,726.2,1115,731z"/>
		<path class="st2" d="M1080.2,749.2c-5.6,0.4-9.5-1.7-10.5-6.8c-0.9-5,1.5-9,6.6-10c5-0.9,9,1.6,10,6.7
			C1087.4,744.2,1084.4,747.5,1080.2,749.2z"/>
		<path class="st2" d="M1151.9,751.6c0.6,5.2-1.2,9-6.2,10.4c-5.1,1.4-9-1-10.3-5.9c-1.3-4.9,1-9.1,5.9-10.4
			C1146.2,744.5,1149.8,747.1,1151.9,751.6z"/>
		<path class="st2" d="M1202.1,708.5c0.5,5.1-1.3,9.1-6.3,10.3c-4.9,1.2-9.1-1.3-10.3-6.2c-1.2-4.9,1.2-9,6.2-10.2
			C1196.7,701.1,1200.3,703.6,1202.1,708.5z"/>
		<path class="st2" d="M710,56.1c5-1,9.1,0.7,10.8,5.5c1.7,4.9-0.4,9-5.3,10.7c-4.9,1.7-9-0.3-10.7-5.2
			C703.1,62.1,705.5,58.4,710,56.1z"/>
		<path class="st2" d="M620,760.7c5.1-1.2,9.1,0.7,10.6,5.6c1.5,4.8-0.7,9.1-5.6,10.6c-4.9,1.5-9.1-0.8-10.6-5.6
			C612.9,766.4,615.2,762.7,620,760.7z"/>
		<path class="st2" d="M1070.8,597.1c-5.1,0.4-9.1-1.5-10.2-6.5c-1.2-5,1.2-8.9,6.3-10.1c5.1-1.2,9,1.3,10.1,6.2
			C1078.1,591.6,1075.4,595.2,1070.8,597.1z"/>
		<path class="st2" d="M1171.5,592.9c0.3,5-1.5,9-6.6,10c-4.9,1-9-1.6-10.1-6.5c-1.1-4.9,1.4-8.9,6.5-10
			C1166.4,585.3,1169.8,588,1171.5,592.9z"/>
		<path class="st2" d="M1131.9,594.1c5.2-0.9,9.1,1.2,10.4,6c1.3,4.9-1.1,9.1-6,10.4c-4.9,1.3-9.1-1.2-10.4-6.1
			C1124.6,599.6,1127,595.9,1131.9,594.1z"/>
		<path class="st2" d="M746.7,77.4c5.1-1,9.1,0.8,10.8,5.5c1.7,4.9-0.5,9-5.4,10.7c-4.9,1.7-9.1-0.4-10.8-5.3
			C739.7,83.4,742.2,79.8,746.7,77.4z"/>
		<path class="st2" d="M804.8,62c5.1-0.7,9.2,1.2,10.6,6.1c1.4,5-0.9,9.1-5.9,10.5c-4.9,1.4-9.2-1-10.5-5.9
			C797.6,67.8,800.2,64.1,804.8,62z"/>
		<path class="st2" d="M1181.4,660.8c-5.4,0.9-9.5-0.9-11.1-5.7c-1.6-4.9,0.7-9.1,5.6-10.6c5-1.6,9.1,0.6,10.7,5.5
			C1188.1,654.9,1185.4,658.4,1181.4,660.8z"/>
		<path class="st2" d="M821,119.8c5.1-0.1,9,1.8,9.9,7c0.9,5-1.6,8.9-6.8,9.8c-5.1,0.9-9-1.6-9.8-6.7
			C813.5,124.9,816.2,121.4,821,119.8z"/>
		<path class="st2" d="M802,134.2c0.5,5.2-1.6,8.9-6.6,10c-5.1,1.1-9-1.4-10-6.4c-1-4.9,1.5-9,6.5-10.1
			C796.8,126.6,800.3,129.4,802,134.2z"/>
		<path class="st2" d="M707.6,127.9c0.3,5.3-1.7,9-6.9,10c-5.2,1-8.9-1.5-9.8-6.6c-0.9-4.9,1.5-9,6.6-9.9
			C702.5,120.5,705.9,123.3,707.6,127.9z"/>
		<path class="st2" d="M1157.9,658.5c0.3,5.1-1.7,9.1-6.8,10c-5,0.9-9.1-1.6-10.1-6.7c-1-5,1.6-9,6.7-10
			C1152.8,650.8,1156.2,653.5,1157.9,658.5z"/>
		<path class="st2" d="M880.9,80.9c1.1,5.4-0.5,9.4-5.5,11c-4.9,1.6-9.1-0.5-10.7-5.4c-1.6-4.8,0.7-9.1,5.5-10.7
			C875.1,74.2,878.7,76.8,880.9,80.9z"/>
		<path class="st2" d="M1091.6,644.3c1,5.1-1,9.1-5.9,10.4c-4.8,1.3-9.1-1.1-10.5-5.9c-1.4-4.9,1.1-9,5.9-10.4
			C1086,637,1089.8,639.3,1091.6,644.3z"/>
		<path class="st2" d="M1109.8,630.7c5.1-1,9.1,0.6,10.7,5.6c1.6,5-0.6,9.1-5.4,10.6c-4.8,1.5-9.1-0.7-10.7-5.5
			C1102.7,636.5,1105.3,632.8,1109.8,630.7z"/>
		<path class="st2" d="M1103.1,919.2c1,5.5-0.7,9.6-5.6,11.2c-4.9,1.6-9.1-0.5-10.7-5.4c-1.6-4.9,0.6-9.1,5.4-10.7
			C1097.3,912.5,1100.7,915.4,1103.1,919.2z"/>
		<path class="st2" d="M1064.2,921.5c5-0.3,9.1,1.6,10.2,6.6c1.1,5-1.5,9-6.5,10.1c-5,1.1-9-1.3-10.1-6.4
			C1056.7,926.7,1059.4,923.3,1064.2,921.5z"/>
		<path class="st2" d="M1217.2,765.5c0.7,5.1-1.1,9-6.2,10.3c-5,1.3-9.1-1-10.3-5.9c-1.2-4.9,1.2-9.1,6-10.4
			C1211.6,758.2,1215.2,760.9,1217.2,765.5z"/>
		<path class="st2" d="M773,140.9c1,5-0.6,9-5.6,10.7c-4.9,1.7-9-0.4-10.7-5.3c-1.6-4.9,0.6-9.1,5.3-10.7
			C767,133.9,770.6,136.5,773,140.9z"/>
		<path class="st2" d="M917.3,102.9c1.1,5.3-0.9,9.1-6,10.6c-4.4,1.2-8.3-0.7-9.9-5c-1.9-5,0.4-9.2,5.1-11
			C911.5,95.6,915.3,98.1,917.3,102.9z"/>
		<path class="st2" d="M628.6,642.8c0.8,5.2-1.3,9.1-6.3,10.2c-4.9,1.1-9.1-1.3-10.2-6.3c-1.2-4.9,1.4-9,6.3-10.2
			C623.3,635.3,627,637.7,628.6,642.8z"/>
		<path class="st2" d="M528.3,647.4c-5.2,0.5-9.5-1.3-10.7-6.3c-1.2-5,1.4-9,6.6-10.1c4.6-1,8.1,1,9.5,5.6
			C535.3,641.7,532.8,645.2,528.3,647.4z"/>
		<path class="st2" d="M946.6,95.8c0.6,5.3-1.5,9-6.8,10.1c-4.6,0.9-8.3-1.3-9.6-5.7c-1.4-5,1-9.3,5.9-10.7
			C941.2,88.2,944.9,90.8,946.6,95.8z"/>
		<path class="st2" d="M1045.6,740c5.3-0.9,9.2,0.9,10.7,6c1.3,4.4-0.4,8.2-4.9,9.9c-5.1,1.9-9.2,0-11-4.9
			C1038.6,746.1,1041.3,742.4,1045.6,740z"/>
		<path class="st2" d="M1135.7,694.5c1.1,5.3-0.9,9.3-5.9,10.5c-5,1.2-9.1-1.3-10.4-6.4c-1.1-4.5,1.1-8.2,5.5-9.6
			C1130,687.4,1133.8,689.5,1135.7,694.5z"/>
		<path class="st2" d="M732.4,717.1c-5.2,0.3-9.3-1.5-10.4-6.5c-1.1-5,1.5-9,6.4-10.1c4.9-1.1,8.9,1.3,10,6.4
			C739.7,712,737,715.3,732.4,717.1z"/>
		<path class="st2" d="M614.6,624.5c-5,0.1-9.1-1.7-10-6.9c-0.9-5.1,1.8-8.8,7.1-9.7c4.7-0.8,8.1,1.6,9.2,6.1
			C622.2,619.2,619.6,622.7,614.6,624.5z"/>
		<path class="st2" d="M1078,710.3c0.8,5.1-1.2,9.1-6.3,10.2c-5,1-9.1-1.5-10.2-6.7c-0.9-4.5,1.4-8.2,5.8-9.5
			C1072.4,702.8,1076.1,705,1078,710.3z"/>
		<path class="st2" d="M1071.8,804.1c0.9,5.3-1.1,9.1-6.3,10.3c-4.5,1.1-8.3-0.9-9.8-5.3c-1.7-5,0.6-9.2,5.4-10.9
			C1066.2,796.6,1069.9,799.1,1071.8,804.1z"/>
		<path class="st2" d="M786.2,75.7c1,5.3-1,9.2-6.1,10.5c-4.4,1.2-8.3-0.8-9.9-5.1c-1.9-5,0.4-9.2,5.2-11
			C780.4,68.3,784.1,70.9,786.2,75.7z"/>
		<path class="st2" d="M1238.3,729.5c0.9,5-1.1,8.9-6,10.3c-4.8,1.3-9.1-1-10.5-5.9c-1.3-4.9,1.1-9.1,6-10.4
			C1232.7,722,1236.4,724.4,1238.3,729.5z"/>
		<path class="st2" d="M1038.8,711.3c5.3-0.4,9,1.6,10.1,6.7c1.1,5.1-1.4,9-6.5,10c-4.9,1-9-1.5-10-6.5
			C1031.4,716.4,1034.2,712.9,1038.8,711.3z"/>
		<path class="st2" d="M1233.8,629c5.4-0.6,9.2,1.4,10.3,6.7c1,4.7-1.3,8.3-5.6,9.6c-5,1.5-9.3-0.9-10.7-5.8
			C1226.4,634.4,1229.3,630.9,1233.8,629z"/>
		<path class="st2" d="M899.7,385c0.7,5-0.9,9.2-6,10.7c-5.1,1.5-9.1-1.1-10.4-6.2c-1.1-4.4,0.7-8.1,5.3-9.7
			C893.8,378,897.3,380.2,899.7,385z"/>
		<path class="st2" d="M991.1,1113.1c-5.3,1.4-9.2-0.6-10.7-5.6c-1.3-4.3,0.5-8.3,4.8-10.1c5-2.1,9.2,0.2,11.1,4.8
			C998.3,1107.2,995.9,1111,991.1,1113.1z"/>
		<path class="st2" d="M976.7,675.1c0.3,5-1.5,9.2-6.6,10.3c-5.1,1.1-8.9-1.5-9.9-6.9c-0.9-4.7,1.4-8.2,5.8-9.4
			C971,667.7,974.7,670.1,976.7,675.1z"/>
		<path class="st2" d="M1139.7,940.6c0.9,5.1-0.6,9-5.6,10.6c-5,1.6-9-0.4-10.6-5.3c-1.6-4.9,0.5-9,5.4-10.7
			C1133.8,933.6,1137.4,936.3,1139.7,940.6z"/>
		<path class="st2" d="M912.1,466.2c5.2-1.1,9.3,0.7,10.7,5.7c1.4,5-1.2,9.2-6.2,10.5c-4.3,1.1-8.2-0.8-9.7-5.3
			C905.2,471.9,907.1,468.3,912.1,466.2z"/>
		<path class="st2" d="M672,145.5c-5.4,0.7-8.9-1.7-9.8-7c-0.8-4.6,1.5-8.3,5.9-9.4c5-1.3,9.3,1.2,10.5,6.2
			C679.8,140.4,677.2,144.1,672,145.5z"/>
		<path class="st2" d="M653.1,769.4c-5,0.3-9.2-1.5-10.3-6.6c-1.1-5.1,1.6-9,6.8-10c4.6-0.9,8.1,1.3,9.4,5.8
			C660.5,763.8,658.1,767.3,653.1,769.4z"/>
		<path class="st2" d="M725.5,113.9c5.2-0.9,9.3,0.9,10.8,5.8c1.6,5-0.9,9-6.1,10.4c-4.5,1.2-8.2-0.7-9.8-5.1
			C718.6,120,720.8,116.3,725.5,113.9z"/>
		<path class="st2" d="M759.8,122.3c-5.1,1.4-9.1-0.4-10.7-5.2c-1.6-4.8,0.5-9,5.3-10.7c4.9-1.7,9,0.6,10.7,5.3
			C766.8,116.5,764.6,120.3,759.8,122.3z"/>
		<path class="st2" d="M782.9,98.6c5.5-1,9.6,0.8,11.1,5.6c1.6,4.8-0.4,8.9-5.5,10.5c-5,1.6-9-0.5-10.6-5.3
			C776.3,104.4,779,100.9,782.9,98.6z"/>
		<path class="st2" d="M823.3,96.5c0.8,5.1-0.8,9-5.9,10.5c-5.1,1.5-9.1-0.7-10.5-5.5c-1.4-4.8,0.8-9.1,5.6-10.6
			C817.5,89.4,821.1,92.1,823.3,96.5z"/>
		<path class="st2" d="M635,734.1c-0.7-5.1,1.2-9.1,6.1-10.5c4.9-1.4,8.9,0.8,10.3,5.9c1.4,5.1-0.9,9.1-5.8,10.4
			C640.8,741.2,637.1,738.7,635,734.1z"/>
		<path class="st2" d="M645.2,42.2c5.2-0.4,9.3,1.5,10.5,6.4c1.2,4.9-1.4,9-6.3,10.2c-4.9,1.2-8.9-1.2-10.2-6.2
			C638.1,47.6,640.6,44.1,645.2,42.2z"/>
		<path class="st2" d="M1100.4,942.5c5.4-0.1,9.4,1.9,10.3,6.9c1,5-1.6,8.8-6.7,9.8c-5.2,1-8.9-1.6-9.8-6.6
			C1093.3,947.6,1096.1,944.2,1100.4,942.5z"/>
		<path class="st2" d="M1075.4,966.8c-5.4,0.7-8.9-1.6-9.9-6.8c-0.8-4.6,1.5-8.3,5.8-9.5c5-1.3,9.3,1.1,10.6,6.1
			C1083.2,961.6,1080.6,965.3,1075.4,966.8z"/>
		<path class="st2" d="M1154.6,914.9c-5.2,0.9-9-1.3-10.2-6.2c-1.1-4.9,1.3-9.1,6.3-10.2c4.9-1.2,9,1.4,10.2,6.3
			C1162.1,909.6,1159.7,913.3,1154.6,914.9z"/>
		<path class="st2" d="M1222.4,587.8c-5,0.1-9.1-1.7-10.1-6.9c-0.9-5.1,1.8-8.8,7.1-9.7c4.7-0.8,8,1.6,9.2,6.1
			C1230,582.4,1227.5,585.9,1222.4,587.8z"/>
		<path class="st2" d="M1064.2,775.3c1,5.1-1,9.1-5.8,10.5c-4.8,1.4-9.1-1-10.5-5.8c-1.4-4.9,1-9.1,5.9-10.5
			C1058.6,768,1062.4,770.4,1064.2,775.3z"/>
		<path class="st2" d="M1200.1,585.2c0.4,5.4-1.6,9.4-6.9,10.1c-5,0.7-9-1.9-9.7-7.3c-0.6-4.6,1.9-8.1,6.4-9.1
			C1195,577.7,1198.5,580.2,1200.1,585.2z"/>
		<path class="st2" d="M663.4,77.2c0.4,5.6-1.5,9.4-6.8,10.5c-4.6,1-8.2-1.1-9.5-5.6c-1.5-5.1,0.7-9.3,5.6-10.7
			C657.8,70,661.4,72.9,663.4,77.2z"/>
		<path class="st2" d="M681.3,63.5c5.3-0.5,9.3,1.4,10.6,6.3c1.3,4.9-1.1,9-6.1,10.3c-5,1.3-9.1-1.1-10.4-6
			C674.2,69.2,676.9,65.6,681.3,63.5z"/>
		<path class="st2" d="M1105.9,578.9c0.5,4.8-1.2,9-6.1,10.3c-4.9,1.3-9.1-1.1-10.4-6c-1.4-4.9,1-9,6-10.3
			C1100.3,571.5,1103.9,574,1105.9,578.9z"/>
		<path class="st2" d="M909.8,74.5c0.7,5.3-1.5,9-6.8,10.1c-4.6,0.9-8.3-1.3-9.6-5.7c-1.4-5,1-9.3,5.9-10.7
			C904.5,66.8,908.1,69.5,909.8,74.5z"/>
		<path class="st2" d="M1140.9,477.3c0.2,5.2-1.5,9.3-6.9,10.2c-5.3,0.8-9-2.1-9.8-7.1c-0.7-4.4,1.6-8,6.3-9.2
			C1135.8,470,1139.1,472.6,1140.9,477.3z"/>
		<path class="st2" d="M670.1,632.6c-1.1-5.7,0.9-9.7,5.8-11.2c4.3-1.3,8.1,0.4,9.9,4.9c2,5.2,0.1,9.3-4.7,11.1
			C676.2,639.2,672.4,636.6,670.1,632.6z"/>
		<path class="st2" d="M773.3,604.7c0.7,5.4-1.6,9.2-6.8,10c-4.4,0.7-8.3-1.4-9.5-5.9c-1.3-5.1,1.1-9.2,6.1-10.5
			C768.3,597,771.9,599.6,773.3,604.7z"/>
		<path class="st2" d="M459.4,7.1c1.4,5.4-0.7,9.4-5.5,10.9c-4.9,1.5-9-0.7-10.5-5.9c-1.3-4.6,0.8-8.3,5-9.8
			C453.3,0.4,457.2,2.3,459.4,7.1z"/>
		<path class="st2" d="M945.9,558c1.1,5.2-0.9,9.2-5.8,10.8c-4.3,1.4-8.1-0.3-10-4.7c-2.1-5.1-0.3-9.3,4.5-11.2
			C939.6,551,943.5,553.3,945.9,558z"/>
		<path class="st2" d="M975.2,550c1.4,5.5-0.7,9.4-5.5,10.9c-4.9,1.5-8.9-0.7-10.5-5.9c-1.4-4.7,0.9-8.4,5-9.9
			C969,543.3,973,545.3,975.2,550z"/>
		<path class="st2" d="M715.3,621.2c0.5,5.3-1.6,9.1-6.9,9.8c-5,0.6-8.9-2-9.5-7.3c-0.6-4.5,1.8-7.8,6.4-8.9
			C710.7,613.6,713.9,616.1,715.3,621.2z"/>
		<path class="st2" d="M490.4,39.5c-5.8,0.4-9.6-1.4-10.7-6.8c-1-4.8,1.3-8.3,5.6-9.5c4.9-1.5,9.1,0.6,10.6,5.8
			C497.5,34.3,494.1,37.3,490.4,39.5z"/>
		<path class="st2" d="M524.8,20.6c1.4,5.4-0.8,9.4-5.6,10.9c-4.9,1.6-8.9-0.7-10.4-6c-1.4-4.7,0.9-8.4,5-9.9
			C518.6,13.9,522.6,15.8,524.8,20.6z"/>
		<path class="st2" d="M825.8,600.2c-5.4,0.8-9.4-0.9-10.8-6c-1.4-5.2,1.1-8.8,6.2-10.1c4.6-1.1,8,0.8,9.5,5.3
			C832.5,594.6,830.1,598,825.8,600.2z"/>
		<path class="st2" d="M446,73.5c0.7,5.3-1.9,8.8-7,9.7c-4.5,0.8-8.1-1.4-9.3-6c-1.3-5.2,1.1-9.2,6.1-10.4
			C440.8,65.7,444.6,68.1,446,73.5z"/>
		<path class="st2" d="M464.1,58.9c5.7-0.2,9.7,1.4,10.7,6.8c1,5.4-1.8,8.9-6.9,9.8c-4.4,0.8-8-1.3-9.3-6
			C457.2,64.1,460.4,61.2,464.1,58.9z"/>
		<path class="st2" d="M497.6,67.9c-5.3,0.4-9.1-1.4-10.1-6.8c-0.9-4.7,1.5-8.2,5.7-9.5c4.9-1.4,9.1,0.8,10.5,5.9
			C505.1,62.8,502.3,66.1,497.6,67.9z"/>
		<path class="st2" d="M527.1,60.2c-5.9,0.4-9.6-1.4-10.6-6.8c-0.9-4.7,1.5-8.2,5.8-9.4c5-1.4,9,0.8,10.5,6
			C534.2,55.3,531.1,58.3,527.1,60.2z"/>
		<path class="st2" d="M860,581.9c0.8,6-1.2,9.8-6.5,10.7c-5.1,0.8-8.9-1.9-9.7-7c-0.7-4.5,1.6-7.8,6.2-9
			C855.4,575.1,858.5,577.8,860,581.9z"/>
		<path class="st2" d="M584,45c-5.3,0.6-8.9-1.5-9.9-6.8c-0.9-4.7,1.3-8.2,5.6-9.4c4.9-1.3,9.2,0.9,10.5,5.9
			C591.7,39.8,588.9,43.2,584,45z"/>
		<path class="st2" d="M999.1,554.4c-6,0.7-9.6-1.3-10.8-6.5c-1.1-4.6,0.9-8,5.4-9.4c5.1-1.5,9,0.3,10.6,5.4
			C1005.8,549.1,1002.7,552.3,999.1,554.4z"/>
		<path class="st2" d="M1113.3,523.9c-5.2,0.5-9.3-1.5-10.4-6.6c-1.1-5.1,1.5-8.8,6.8-9.9c4.8-1,8.2,1.4,9.4,5.7
			C1120.6,518.2,1118.2,521.9,1113.3,523.9z"/>
		<path class="st2" d="M1148.5,506c0.3,5.2-1.4,9.3-6.8,10.2c-5.2,0.9-9.1-2-9.9-7.1c-0.7-4.4,1.6-8.1,6.2-9.2
			C1143.2,498.6,1146.7,501,1148.5,506z"/>
		<path class="st2" d="M511.2,86.1c1.5,5.5-0.7,9.4-5.5,11c-4.9,1.6-8.9-0.7-10.5-5.9c-1.4-4.7,0.9-8.4,4.9-9.9
			C505,79.5,509,81.5,511.2,86.1z"/>
		<path class="st2" d="M1176.9,497.6c1,5.5-0.9,9.6-6,10.8c-5,1.2-9.1-1.4-10.2-6.5c-1-4.4,1.1-8,5.6-9.5
			C1171.5,490.8,1174.9,493.1,1176.9,497.6z"/>
		<path class="st2" d="M559.1,65.2c5-0.1,9.1,1.4,10.2,6.8c1,5.3-2,8.9-6.9,9.8c-4.3,0.8-8-1.3-9.2-6
			C551.8,70.4,554.4,67.2,559.1,65.2z"/>
		<path class="st2" d="M587,57.7c5.1-0.7,9.4,0.8,10.8,5.9c1.5,5.1-1.1,9-6.1,10.4c-4.4,1.2-8-0.6-9.7-5.2
			C580.3,63.6,582.6,60.2,587,57.7z"/>
		<path class="st2" d="M627.1,56c0.7,5.3-1.5,9.1-6.5,10.3c-4.4,1-8.1-0.8-9.5-5.4c-1.6-5.2,0.4-9.2,5.3-10.7
			C621.3,48.7,625.1,51.3,627.1,56z"/>
		<path class="st2" d="M1189.5,494.7c-0.6-5.3,1.5-9,6.7-10.2c4.7-1.1,8.1,1.1,9.5,5.5c1.5,5.1-0.5,9.3-5.6,10.7
			C1195.2,502.1,1191.6,499.3,1189.5,494.7z"/>
		<path class="st2" d="M896.4,603c1.3,5.1-0.2,9.2-5.3,10.7c-5,1.5-8.9-0.7-10.4-5.8c-1.4-4.5,0.5-8.1,4.9-9.7
			C890.5,596.4,894.3,598,896.4,603z"/>
		<path class="st2" d="M953.6,588c0.2,5.6-1.5,9.7-6.7,10.7c-5.2,1-8.9-1.9-9.8-7c-0.8-4.5,1.4-8,6-9.2
			C948.4,581.1,951.6,583.9,953.6,588z"/>
		<path class="st2" d="M1117.6,536.7c5.2-0.6,8.8,1.8,9.6,7c0.7,4.4-1.4,8.2-6,9.3c-5.2,1.3-9.2-1.2-10.4-6.2
			C1109.5,541.8,1112,538.1,1117.6,536.7z"/>
		<path class="st2" d="M1156.2,535.3c0.2,5.2-1.5,9.3-6.9,10.2c-5.3,0.8-9-2.1-9.8-7.1c-0.7-4.4,1.6-8,6.3-9.1
			C1151.2,527.9,1154.4,530.6,1156.2,535.3z"/>
		<path class="st2" d="M1175.2,521.4c5.3-0.7,8.8,1.7,9.7,6.9c0.8,4.5-1.3,8.2-5.9,9.4c-5.1,1.3-9.2-1.2-10.4-6.1
			C1167.3,526.5,1169.8,522.9,1175.2,521.4z"/>
		<path class="st2" d="M691.6,679.4c5.6-0.4,9.1,1.7,10.1,7.1c0.8,4.7-1.5,8.2-5.8,9.3c-5,1.2-9.2-1-10.4-6.1
			C684.1,684.4,687.2,681.1,691.6,679.4z"/>
		<path class="st2" d="M846.3,647c1.3,5.2-0.5,9.2-5.5,10.6c-4.9,1.4-9.1-1-10.5-6c-1.2-4.4,0.8-8.1,5.2-9.7
			C840.5,640.1,844.3,641.9,846.3,647z"/>
		<path class="st2" d="M950.8,610.9c5.1-0.9,9.2,0.9,10.5,6c1.2,5-1.3,9.1-6.4,10.3c-4.4,1.1-8.1-1-9.5-5.5
			C943.7,616.5,945.8,613,950.8,610.9z"/>
		<path class="st2" d="M932.9,623.8c1.2,5.8-0.7,9.8-5.6,11.1c-5,1.3-8.9-1-10.2-6.2c-1.2-4.6,0.9-8,5.3-9.5
			C927.3,617.5,930.9,619.6,932.9,623.8z"/>
		<path class="st2" d="M526.8,144.4c1,5.4-1.2,9.2-6.3,10.4c-4.4,1-8.1-0.7-9.6-5.3c-1.7-5.2,0.5-9.2,5.3-10.8
			C521.1,137.1,524.9,139.5,526.8,144.4z"/>
		<path class="st2" d="M1134.7,571.2c0.7,5-0.9,9.2-6.1,10.6c-5.1,1.3-9.1-1.4-10.4-6.4c-1.1-4.4,0.9-8.1,5.5-9.6
			C1129,564.1,1132.5,566.4,1134.7,571.2z"/>
		<path class="st2" d="M578.8,139.6c-5,0.8-8.9-0.7-10.4-6c-1.3-4.6,0.7-8.4,4.8-9.9c4.7-1.8,9.1,0,11,5
			C586.2,133.8,583.5,137.2,578.8,139.6z"/>
		<path class="st2" d="M613.4,121.1c0.8,5.9-1.4,9.7-6.4,10.9c-4.4,1-8.1-0.8-9.5-5.4c-1.7-5.2,0.4-9.2,5.3-10.7
			C607.8,114.3,611.3,117.1,613.4,121.1z"/>
		<path class="st2" d="M642.6,114c0.4,5.9-2.1,9.5-7.1,10.4c-4.4,0.8-8-1.4-9.2-6.1c-1.3-5.2,1-9.2,6.1-10.3
			C637.4,106.9,640.9,109.7,642.6,114z"/>
		<path class="st2" d="M659.5,100.1c5.5-1.1,9.6,0.8,11.1,5.7c1.6,5-0.9,8.9-6,10.3c-4.6,1.3-8.2-0.7-9.8-5
			C653.1,106.2,655.3,102.4,659.5,100.1z"/>
		<path class="st2" d="M699.9,98.3c0.5,5.3-1.4,9-6.7,10.2c-4.7,1.1-8.2-1.1-9.5-5.4c-1.5-5,0.5-9.2,5.5-10.7
			C694.3,91,697.8,93.8,699.9,98.3z"/>
		<path class="st2" d="M728.9,90.6c0.5,5.3-1.4,9-6.7,10.2c-4.7,1.1-8.1-1-9.5-5.4c-1.6-5,0.4-9.2,5.5-10.7
			C723.3,83.3,726.9,86.1,728.9,90.6z"/>
		<path class="st2" d="M1153.9,557.8c5.4-0.7,9,1.7,9.9,6.9c0.7,4.5-1.5,8.3-6,9.4c-5.1,1.3-9.2-1.2-10.5-6.2
			C1146,562.8,1148.6,559.2,1153.9,557.8z"/>
		<path class="st2" d="M1192.3,556c0.9,5.1-0.9,9.2-6,10.4c-5,1.2-9.1-1.4-10.3-6.4c-1-4.4,1-8,5.6-9.5
			C1186.8,548.9,1190.3,551,1192.3,556z"/>
		<path class="st2" d="M621.9,737.3c1,5.4-1.2,9.3-6.2,10.4c-4.9,1.1-9-1.2-10.1-6.6c-1-4.7,1.5-8.2,5.7-9.5
			C616.2,730,620.1,732.3,621.9,737.3z"/>
		<path class="st2" d="M680.3,723c0.6,5.1-1.7,8.9-6.9,9.6c-4.9,0.6-9-1.8-9.6-7.3c-0.6-4.6,2-8.1,6.4-9
			C675.4,715.1,678.9,717.5,680.3,723z"/>
		<path class="st2" d="M698.8,708.2c5.2-0.2,9.1,1.5,10.1,6.9c0.9,4.8-1.5,8.3-5.7,9.5c-4.9,1.4-9.2-0.7-10.6-5.9
			C691.3,713.4,694.2,710.1,698.8,708.2z"/>
		<path class="st2" d="M767.3,699.8c0.7,5.3-1.6,9.1-6.8,9.8c-4.9,0.6-9-1.8-9.7-7.2c-0.6-4.6,1.9-8.1,6.4-9.1
			C762.4,692.1,765.9,694.5,767.3,699.8z"/>
		<path class="st2" d="M853.9,675.6c1.5,5.5-0.3,9.5-5.3,10.9c-4.9,1.4-9.1-0.9-10.5-5.9c-1.3-4.4,0.7-8.2,5.1-9.7
			C848,669.1,851.9,670.8,853.9,675.6z"/>
		<path class="st2" d="M852,88.4c0.9,5.4-0.7,9.3-5.9,10.8c-4.6,1.4-8.4-0.5-10-4.8c-1.9-4.9,0-9.2,4.9-11.1
			C846.1,81.4,849.6,84.2,852,88.4z"/>
		<path class="st2" d="M1027.3,630.7c0.4,5.1-1.5,9.1-6.6,10.2c-5,1.1-8.8-1.5-9.8-6.8c-0.9-4.7,1.3-8,5.7-9.3
			C1021.8,623.4,1025.4,625.7,1027.3,630.7z"/>
		<path class="st2" d="M963.3,656.7c-5.8,0.5-9.6-1.5-10.7-6.7c-1-4.6,1.1-8.1,5.6-9.4c5.1-1.5,9.2,0.5,10.6,5.6
			C970.3,651.3,967.1,654.6,963.3,656.7z"/>
		<path class="st2" d="M1048.9,633.9c-5,0.3-9.2-1.5-10.2-6.7c-1.1-5.1,1.6-8.8,6.9-9.8c4.7-0.9,8,1.3,9.3,5.8
			C1056.2,628.4,1053.8,632,1048.9,633.9z"/>
		<path class="st2" d="M647.1,165.8c5.6-0.1,9.7,1.4,10.8,6.7c1,5.3-1.9,8.9-6.9,9.8c-4.4,0.8-8-1.3-9.2-6
			C640.2,171,643.2,167.9,647.1,165.8z"/>
		<path class="st2" d="M680.2,174.2c-5.3,1-9-1-10.2-6.2c-1.1-4.5,0.8-8.2,5.2-9.7c5.1-1.7,9.2,0.6,10.8,5.4
			C687.7,168.7,685.2,172.4,680.2,174.2z"/>
		<path class="st2" d="M709.7,166.3c-5.5,1.6-9.5-0.3-11-5.3c-1.5-5,0.8-9.2,5.9-10.6c4.5-1.3,8.3,1,10,5.1
			C716.5,160.4,714.5,164.3,709.7,166.3z"/>
		<path class="st2" d="M744.1,148.2c0.6,5.8-1.3,9.5-6.6,10.8c-4.7,1.1-8.2-1.1-9.6-5.4c-1.5-4.9,0.5-9.2,5.5-10.7
			C738.6,141.2,741.9,144.4,744.1,148.2z"/>
		<path class="st2" d="M859.8,117.9c0.7,5.2-1.1,9-6.3,10.4c-4.7,1.2-8.4-0.9-9.9-5.1c-1.7-4.8,0.3-9.3,5.3-11
			C854.1,110.5,857.6,113.3,859.8,117.9z"/>
		<path class="st2" d="M572.1,781.8c0.9,5.2-0.9,9.2-6.1,10.3c-5,1.1-9.1-1.4-10.2-6.5c-0.9-4.5,1.3-8.1,5.7-9.5
			C566.7,774.5,570.3,776.8,572.1,781.8z"/>
		<path class="st2" d="M597.7,209.4c5.3-0.4,9,1.7,10,6.9c1,5.3-1.9,8.7-7.1,9.5c-4.6,0.7-7.9-1.5-9-6.1
			C590.4,214.5,592.9,211.2,597.7,209.4z"/>
		<path class="st2" d="M636.3,206.7c1.4,5.9-0.3,9.6-5.5,11.1c-4.5,1.3-8.1-0.3-9.8-4.7c-1.9-4.9-0.1-9.1,4.7-11
			C630.8,200.2,634.2,202.9,636.3,206.7z"/>
		<path class="st2" d="M1034.7,658.6c1.2,5.3-0.9,9.2-5.7,10.9c-4.3,1.4-8.1-0.2-10-4.7c-2.1-5.1-0.3-9.3,4.5-11.2
			C1028.4,651.7,1032.4,653.9,1034.7,658.6z"/>
		<path class="st2" d="M684.2,186.5c5.1-0.3,9.1,1.6,10.1,6.8c1,5.2-1.9,8.7-7,9.6c-4.6,0.8-7.9-1.4-9-6
			C677,191.7,679.3,188.3,684.2,186.5z"/>
		<path class="st2" d="M1150.1,629.3c0.6,5-1.1,9.2-6.3,10.4c-5.1,1.2-9.1-1.5-10.3-6.5c-1-4.4,1.1-8.1,5.7-9.5
			C1144.5,622.1,1148,624.4,1150.1,629.3z"/>
		<path class="st2" d="M1162.4,625.9c-0.4-5.3,1.5-9,6.9-10.2c4.8-1,8.3,1.3,9.5,5.6c1.5,5-0.7,9.3-5.8,10.7
			C1168,633.4,1164.4,630.6,1162.4,625.9z"/>
		<path class="st2" d="M780.6,169.7c0.9,5.1-0.7,9-5.9,10.6c-4.5,1.4-8.3-0.4-10.1-4.7c-2-4.9-0.1-9.2,4.8-11.2
			C774.4,162.4,778,165.1,780.6,169.7z"/>
		<path class="st2" d="M799,156.3c5.3-0.6,9.2,1.6,10.4,6.7c1,4.4-0.9,8.1-5.6,9.6c-5.2,1.6-9.3-0.4-10.7-5.5
			C791.6,162,794.2,158.3,799,156.3z"/>
		<path class="st2" d="M838.4,154.4c0.9,5.2-0.9,9-6,10.5c-4.5,1.3-8.4-0.6-10-4.9c-1.8-4.9,0.1-9.2,5-11.1
			C832.5,147.1,836,149.9,838.4,154.4z"/>
		<path class="st2" d="M860.4,157.4c-5.2,0.6-8.8-1.8-9.6-7c-0.6-4.4,1.5-8.3,6.1-9.4c5.2-1.2,9.2,1.3,10.4,6.3
			C868.6,152.3,866,156.1,860.4,157.4z"/>
		<path class="st2" d="M890,149.6c-5.2,1-9.2-0.9-10.3-6.1c-1-4.9,1.3-9,6.6-10.1c4.5-1,8.1,1.3,9.4,5.7
			C897.3,144.2,895.1,147.8,890,149.6z"/>
		<path class="st2" d="M973.8,697.4c4.9-0.6,9.2,0.9,10.6,6c1.4,5.1-1.2,9.1-6.2,10.4c-4.3,1.1-8.1-0.7-9.7-5.3
			C966.8,703.2,969.1,699.8,973.8,697.4z"/>
		<path class="st2" d="M1036.4,698.5c-5.3,0.3-9-1.5-10.1-7c-0.9-4.8,1.4-8.3,5.7-9.4c4.9-1.4,9.2,0.8,10.5,6
			C1043.9,693.3,1041,696.6,1036.4,698.5z"/>
		<path class="st2" d="M976.3,126.7c-5.1,0.6-8.9-1.6-9.6-6.8c-0.6-4.9,1.8-9,7.2-9.6c4.6-0.6,8.1,1.9,9.1,6.4
			C984.2,121.7,981.8,125.3,976.3,126.7z"/>
		<path class="st2" d="M1065.2,691.7c-5.4,0.9-9.5-0.8-11-5.7c-1.6-5.1,0.9-8.9,6-10.3c4.5-1.3,8.2,0.6,9.8,5
			C1071.8,685.6,1069.6,689.3,1065.2,691.7z"/>
		<path class="st2" d="M1117.5,660.4c5.4-1.2,9.1,0.6,10.5,5.9c1.2,4.6-0.6,8.2-4.9,9.8c-5,1.9-9.1-0.4-10.9-5.1
			C1110.3,666,1112.8,662.3,1117.5,660.4z"/>
		<path class="st2" d="M673,228.9c0.7,5.2-1.2,8.9-6.4,10.2c-4.6,1.1-8-0.8-9.5-5.3c-1.6-5,0.1-9,5.2-10.6
			C667.5,221.7,670.9,224.1,673,228.9z"/>
		<path class="st2" d="M692.2,215.2c5.2-0.4,9,1.8,9.7,7c0.7,5.1-2.1,8.7-7.4,9.4c-4.7,0.6-7.8-1.8-8.8-6.4
			C684.6,220,687,216.7,692.2,215.2z"/>
		<path class="st2" d="M730.9,213.4c0.3,5.9-1.8,9.6-7,10.5c-5.4,0.9-8.6-2-9.4-7.2c-0.7-4.6,1.6-7.9,6.2-8.9
			C726.1,206.5,729,209.6,730.9,213.4z"/>
		<path class="st2" d="M749.5,200c5-0.8,9,1,10.2,6.1c1.2,5.1-1.2,8.8-6.4,10c-4.6,1.1-8-1-9.4-5.5C742.4,205.6,744.4,202,749.5,200
			z"/>
		<path class="st2" d="M1096,696.6c5.5-1,9.2,0.9,10.6,6.1c1.2,4.6-0.8,8.4-5,9.8c-4.8,1.7-9.2-0.4-10.9-5.3
			C1088.9,702.2,1091.6,698.6,1096,696.6z"/>
		<path class="st2" d="M817.6,191.3c0.3,5.3-1.6,9-6.9,10c-4.8,1-8.1-1.3-9.4-5.7c-1.4-5,0.6-9.2,5.8-10.5
			C812.2,183.8,815.5,186.8,817.6,191.3z"/>
		<path class="st2" d="M846.6,183.5c0.4,5.3-1.5,9-6.8,10.1c-4.7,1-8.1-1.2-9.4-5.6c-1.5-5,0.5-9.2,5.7-10.6
			C841.2,176.1,844.6,179,846.6,183.5z"/>
		<path class="st2" d="M858.4,179.8c-0.1-5.2,1.4-9.2,6.9-10.2c5.4-0.9,9,2,9.8,7c0.7,4.3-1.4,8.1-6.2,9.2
			C863.6,187.1,860.4,184.4,858.4,179.8z"/>
		<path class="st2" d="M896.9,178.4c-5,0.5-8.7-2-9.5-7.1c-0.6-4.3,1.5-8.2,6.1-9.3c5.3-1.3,9.2,1.2,10.3,6.2
			C905,173.2,902.6,177.1,896.9,178.4z"/>
		<path class="st2" d="M921.9,154.5c5.5-1.4,9.4,0.7,10.9,5.5c1.5,4.9-0.7,8.9-5.9,10.5c-4.7,1.4-8.4-0.9-9.9-5
			C915.2,160.7,917.2,156.7,921.9,154.5z"/>
		<path class="st2" d="M961.6,152.6c1,5.3-0.7,9.1-5.9,10.6c-4.6,1.3-8.4-0.6-9.9-4.8c-1.8-4.8,0.1-9.2,5-11
			C955.8,145.5,959.4,148.1,961.6,152.6z"/>
		<path class="st2" d="M1165.4,687.3c0.6,5-1.1,9.2-6.3,10.4c-5.1,1.2-9.1-1.5-10.3-6.5c-1-4.4,1.1-8.1,5.7-9.5
			C1159.8,680.1,1163.3,682.3,1165.4,687.3z"/>
		<path class="st2" d="M1013,148.1c-5.1,0.6-8.8-1.8-9.6-7c-0.6-4.4,1.5-8.3,6.1-9.4c5.2-1.3,9.2,1.2,10.4,6.3
			C1021.1,143,1018.6,146.7,1013,148.1z"/>
		<path class="st2" d="M680.7,258.2c0.6,5.3-1.3,8.9-6.6,10.1c-4.6,1.1-8-0.9-9.4-5.4c-1.5-5.1,0.3-9.1,5.4-10.5
			C675.3,250.9,678.8,253.5,680.7,258.2z"/>
		<path class="st2" d="M699.6,244.5c5.1-0.4,9.1,1.5,10.1,6.7c1,5.2-1.8,8.7-7,9.7c-4.6,0.8-7.9-1.4-9.1-6
			C692.3,249.7,694.6,246.3,699.6,244.5z"/>
		<path class="st2" d="M1188.8,690.1c-5.2,0.9-9.2-1-10.7-5.9c-1.4-4.3,0.4-8.1,4.9-9.9c5.1-2.1,9.3-0.1,11.1,4.7
			C1195.9,683.8,1193.6,687.7,1188.8,690.1z"/>
		<path class="st2" d="M989.8,755.2c5.1-0.1,9.3,1.4,10.2,6.9c0.9,5.3-2,9-7,9.9c-4.3,0.7-8.1-1.5-9.2-6.2
			C982.5,760.4,985.1,757.1,989.8,755.2z"/>
		<path class="st2" d="M1220.3,694.8c5.3-0.5,8.9,1.6,9.9,6.9c0.9,4.7-1.4,8.2-5.7,9.3c-5,1.3-9.2-1-10.5-6
			C1212.6,700,1215.4,696.5,1220.3,694.8z"/>
		<path class="st2" d="M986.4,825.8c1.2,6.1-0.9,9.8-6,11.1c-4.4,1.1-8.1-0.6-9.7-5.2c-1.8-5.2,0.5-9.2,5.2-10.9
			C980.8,819.2,984.6,821.7,986.4,825.8z"/>
		<path class="st2" d="M854.4,212c0.4,5.1-1.3,9-6.5,10.2c-4.6,1.1-8-0.9-9.5-5.3c-1.6-5,0.1-9,5.3-10.6
			C848.9,204.7,852.3,207.4,854.4,212z"/>
		<path class="st2" d="M882.8,204.7c0.7,5.1-1,9-6.2,10.4c-4.7,1.3-8.4-0.9-9.9-5c-1.7-4.8,0.2-9.2,5.2-11
			C877,197.3,880.5,200.2,882.8,204.7z"/>
		<path class="st2" d="M911.4,197.1c0.9,5.1-0.8,8.9-6,10.4c-4.6,1.3-8.4-0.7-9.9-4.8c-1.8-4.8,0.1-9.1,5-11
			C905.6,189.7,909.1,192.4,911.4,197.1z"/>
		<path class="st2" d="M940.7,189.8c0.4,5.3-1.5,9-6.9,10.1c-4.8,1-8.3-1.3-9.5-5.6c-1.4-4.9,0.8-9.2,5.9-10.6
			C935.4,182.2,938.8,185.2,940.7,189.8z"/>
		<path class="st2" d="M1101.4,795.5c0.9,5.1-0.7,8.9-5.9,10.6c-4.6,1.4-8.3-0.4-10-4.7c-1.9-4.9-0.2-9.2,4.8-11.1
			C1095.3,788.2,1098.8,791,1101.4,795.5z"/>
		<path class="st2" d="M1119.7,782.1c5.3-0.6,9.2,1.6,10.3,6.7c1,4.4-1,8.1-5.6,9.5c-5.2,1.6-9.3-0.4-10.7-5.5
			C1112.3,787.9,1114.8,784.1,1119.7,782.1z"/>
		<path class="st2" d="M1027.5,165.8c0.6,5.4-0.8,9.3-6.1,10.8c-4.7,1.3-8.4-1-9.9-5c-1.7-4.7,0.1-9.1,5.2-10.9
			C1021.9,158.7,1025.1,161.7,1027.5,165.8z"/>
		<path class="st2" d="M1046.9,152.5c5.2-0.5,8.9,2.1,9.7,7.1c0.7,4.3-1.4,8.1-6.1,9.2c-5.3,1.2-9.2-1.1-10.3-6.2
			C1039.1,157.8,1041.5,153.9,1046.9,152.5z"/>
		<path class="st2" d="M1159.2,780.9c0.3,5.3-1.6,9-7.1,10c-4.8,0.9-8.3-1.4-9.4-5.8c-1.3-5,0.9-9.3,6-10.6
			C1154,773.3,1157.4,776.3,1159.2,780.9z"/>
		<path class="st2" d="M734.9,265.9c5.7-1,9.7,0.8,11,5.9c1.3,5-1.1,8.8-6.3,10.1c-4.6,1.1-8-1-9.4-5.4
			C728.5,271.4,730.7,267.9,734.9,265.9z"/>
		<path class="st2" d="M775.3,264.4c0.3,5.3-1.8,9-7,9.9c-5.4,0.9-8.7-2-9.4-7.2c-0.7-4.6,1.6-7.9,6.2-8.9
			C770.2,257,773.5,259.7,775.3,264.4z"/>
		<path class="st2" d="M1069.2,826.6c5.2-1,9.2,1,10.7,5.9c1.5,5.1-1,8.9-6.1,10.3c-4.6,1.3-8.4-0.8-9.9-5.1
			C1062.2,832.9,1064.3,828.9,1069.2,826.6z"/>
		<path class="st2" d="M1127.1,811.3c5.2-1.1,9.2,0.9,10.8,5.8c1.4,4.3-0.3,8.1-4.8,9.9c-5.1,2.1-9.3,0.3-11.1-4.6
			C1120.1,817.6,1122.3,813.6,1127.1,811.3z"/>
		<path class="st2" d="M1195.7,801.6c0.9,5.1-0.7,9-5.9,10.5c-4.5,1.4-8.4-0.5-10.1-4.7c-1.9-4.9,0-9.2,4.9-11.1
			C1189.6,794.3,1193.2,797,1195.7,801.6z"/>
		<path class="st2" d="M890.4,233.4c0.6,5-0.8,8.9-6.1,10.5c-4.7,1.4-8.4-0.9-10-4.9c-1.8-4.7-0.1-9.1,5-11
			C884.6,226,887.9,228.8,890.4,233.4z"/>
		<path class="st2" d="M1224.7,794.2c0.8,5.2-1,9-6.3,10.4c-4.7,1.2-8.4-0.9-9.9-5.1c-1.6-4.8,0.3-9.3,5.4-11
			C1219,786.8,1222.5,789.5,1224.7,794.2z"/>
		<path class="st2" d="M1001.9,883.8c1,5.1-0.7,8.8-6,10.2c-4.6,1.2-8.2-0.7-9.7-5c-1.8-4.9,0.3-9,5.2-10.8
			C996.5,876.4,1000,878.8,1001.9,883.8z"/>
		<path class="st2" d="M1087.7,861.4c0.3,5.2-1.4,9-6.8,10.1c-4.8,1-8.2-1.4-9.4-5.6c-1.5-4.9,0.5-9.1,5.7-10.5
			C1082.4,854,1085.7,856.9,1087.7,861.4z"/>
		<path class="st2" d="M1005.7,203.4c0.9,5.2-0.9,8.8-6.2,10.2c-4.6,1.2-8.3-0.9-9.7-5.1c-1.6-4.9,0.4-9.2,5.4-10.8
			C1000.2,195.9,1003.8,198.4,1005.7,203.4z"/>
		<path class="st2" d="M1035.3,195.3c0.9,5-0.7,8.9-5.9,10.5c-4.6,1.4-8.4-0.6-10-4.7c-1.9-4.8,0-9.2,4.9-11.1
			C1029.3,187.9,1032.8,190.7,1035.3,195.3z"/>
		<path class="st2" d="M1064.4,188.1c0.5,5.3-1.4,9-6.8,10.2c-4.8,1-8.3-1.3-9.6-5.5c-1.4-4.9,0.7-9.3,5.8-10.7
			C1059,180.5,1062.4,183.4,1064.4,188.1z"/>
		<path class="st2" d="M1110.1,864.2c-5.4,0.7-9-1.7-9.9-6.9c-0.7-4.5,1.4-8.3,6-9.4c5.1-1.3,9.2,1.2,10.5,6.2
			C1117.9,859.2,1115.3,862.8,1110.1,864.2z"/>
		<path class="st2" d="M1134.5,840.3c5.3-1.1,9.2,0.9,10.8,5.8c1.4,4.3-0.3,8.1-4.8,9.9c-5.1,2.1-9.3,0.2-11.2-4.6
			C1127.6,846.6,1129.8,842.6,1134.5,840.3z"/>
		<path class="st2" d="M1174.8,838.9c0.3,5.3-1.7,9-7.1,10c-4.8,0.9-8.2-1.5-9.4-5.8c-1.3-5,0.9-9.3,6-10.5
			C1169.5,831.3,1172.9,834.2,1174.8,838.9z"/>
		<path class="st2" d="M1192.1,824.9c5.5-1.4,9.4,0.7,10.9,5.6c1.4,4.3-0.2,8.1-4.7,10c-5.1,2.2-9.3,0.1-11.2-4.5
			C1185.3,831.1,1187.5,827.1,1192.1,824.9z"/>
		<path class="st2" d="M1032.8,915.4c-5.2,0.9-9.1-1-10.2-6.2c-1-5.1,1.5-8.9,6.6-10c4.5-0.9,7.9,1.3,9.2,5.8
			C1040,910.1,1037.9,913.6,1032.8,915.4z"/>
		<path class="st2" d="M1051.5,902.5c-1-5,0.6-9,5.6-10.6c5.1-1.6,8.8,0.7,10.3,5.8c1.3,4.6-0.5,8.1-4.8,9.7
			C1057.6,909.2,1053.8,907.4,1051.5,902.5z"/>
		<path class="st2" d="M950.3,257.3c-5.4,1-9.2-1.2-10.3-6.3c-1-4.4,0.8-8.1,5.4-9.6c5.2-1.7,9.2,0.6,10.7,5.4
			C957.6,251.6,955.2,255.4,950.3,257.3z"/>
		<path class="st2" d="M1095.6,890.9c0.3,5.3-1.7,9-7.1,10c-4.8,0.9-8.2-1.4-9.4-5.8c-1.3-5,0.8-9.3,6-10.5
			C1090.3,883.3,1093.7,886.3,1095.6,890.9z"/>
		<path class="st2" d="M1124.3,881.9c0.6,5.5-0.9,9.4-6.1,10.8c-4.7,1.3-8.3-0.8-9.8-5c-1.7-4.8,0-9.1,5.1-10.9
			C1118.6,875,1121.8,878.2,1124.3,881.9z"/>
		<path class="st2" d="M1035.9,234.8c-5.1,0.5-8.9-1.9-9.5-7.1c-0.6-4.9,1.9-8.9,7.4-9.5c4.7-0.5,8.1,2.1,9,6.5
			C1043.9,229.7,1041.6,233.5,1035.9,234.8z"/>
		<path class="st2" d="M1072,217c0.2,5.2-1.5,9-7,10.1c-4.8,0.9-8.3-1.5-9.5-5.7c-1.4-4.9,0.8-9.2,6-10.5
			C1066.8,209.4,1070.1,212.3,1072,217z"/>
		<path class="st2" d="M1153.3,875.1c0.3,5.2-1.4,9.1-6.9,10.2c-4.8,1-8.3-1.4-9.5-5.6c-1.4-4.9,0.6-9.2,5.8-10.6
			C1148,867.6,1151.3,870.6,1153.3,875.1z"/>
		<path class="st2" d="M780.3,315.9c5.2-0.7,9.1,1.3,10,6.5c1,5.1-1.7,8.8-6.9,9.8c-4.6,0.9-7.9-1.4-9.1-5.9
			C773,321.1,775.2,317.6,780.3,315.9z"/>
		<path class="st2" d="M1177,877.2c-5.6,1.7-9.6-0.4-11.1-5.3c-1.5-4.9,0.7-9.1,5.9-10.6c4.6-1.3,8.4,1,9.9,5
			C1183.7,871.2,1181.7,875.2,1177,877.2z"/>
		<path class="st2" d="M1211.2,860c0.3,5.7-1.7,9.3-7.1,10.3c-4.8,0.8-8.3-1.5-9.4-5.8c-1.3-5,1-9.2,6.1-10.5
			C1206.1,852.7,1209.4,855.8,1211.2,860z"/>
		<path class="st2" d="M977.7,944.6c5.4-0.6,9.4,0.9,10.8,6.2c1.3,4.7-0.9,8.4-5,9.9c-4.7,1.7-9.1,0-11-5.1
			C970.6,950.2,973.7,947,977.7,944.6z"/>
		<path class="st2" d="M901,301c-6,1.4-9.8-0.7-11.4-5.6c-1.4-4.3,0.2-8.1,4.7-9.9c5.1-2.1,9.3-0.1,11.1,4.6
			C907.3,295,904.8,298.8,901,301z"/>
		<path class="st2" d="M928.7,293.8c-5.3,0.7-9.1-1.5-10.3-6.6c-1-4.3,0.9-8.1,5.5-9.5c5.2-1.6,9.2,0.5,10.6,5.4
			C936,288,933.5,291.8,928.7,293.8z"/>
		<path class="st2" d="M1018,943c0.7,5.4-1.6,8.8-6.9,9.8c-4.6,0.8-8.3-1.5-9.4-5.9c-1.2-5,1.1-9.2,6.2-10.4
			C1013,935.2,1016.5,937.9,1018,943z"/>
		<path class="st2" d="M993.1,268.5c0.1,5.1-1.4,9.1-6.9,10.1c-5.4,1-8.9-1.9-9.7-6.9c-0.7-4.4,1.4-8.1,6.1-9.2
			C987.8,261.2,991,264,993.1,268.5z"/>
		<path class="st2" d="M1003.2,1006.7c1.5,5.8-0.2,9.5-5.4,11.1c-4.5,1.4-8.2-0.3-9.9-4.6c-2-4.9,0-9.1,4.7-11
			C997.6,1000,1001.2,1002.6,1003.2,1006.7z"/>
		<path class="st2" d="M1056.8,1002c-5.8,1.3-9.8-0.5-11.1-5.6c-1.3-5,1-8.9,6.1-10.2c4.5-1.2,8,0.8,9.5,5.2
			C1063.1,996.5,1061,1000,1056.8,1002z"/>
		<path class="st2" d="M1082.5,995.4c-5.2,0.6-8.6-1.9-9.4-7c-0.7-4.5,1.5-8.2,6-9.2c5.1-1.2,9.2,1.4,10.3,6.3
			C1090.6,990.4,1088,994.1,1082.5,995.4z"/>
		<path class="st2" d="M1112.3,987.7c-5.3,1.1-9.3-1-10.4-6.1c-1.1-5,1.2-9.1,6.5-10.2c4.6-1,8.2,1.4,9.6,5.7
			C1119.6,982.1,1117.4,985.8,1112.3,987.7z"/>
		<path class="st2" d="M855.7,335.3c0.5,4.9-0.8,9-6,10.5c-4.6,1.4-8.3-0.7-9.9-4.8c-1.8-4.8-0.3-9,4.9-10.9
			C849.8,328.1,853.2,330.8,855.7,335.3z"/>
		<path class="st2" d="M1140.5,980.1c-5.2,0.7-8.8-1.8-9.6-7c-0.7-4.4,1.4-8.3,6-9.4c5.2-1.3,9.2,1.2,10.4,6.2
			C1148.5,975.1,1146,978.8,1140.5,980.1z"/>
		<path class="st2" d="M1069.4,1021.3c0.9,5.3-1.1,8.9-6.4,10c-4.6,1-8.2-1.1-9.5-5.4c-1.5-5,0.6-9,5.7-10.5
			C1064.3,1013.8,1067.7,1016.4,1069.4,1021.3z"/>
		<path class="st2" d="M1091.9,1024.1c-5.5,1.6-9.4-0.3-10.9-5.4c-1.5-5,0.7-9.1,5.9-10.5c4.5-1.2,8.3,1.1,9.9,5.1
			C1098.7,1018.2,1096.6,1022.1,1091.9,1024.1z"/>
		<path class="st2" d="M961.5,298.9c5.1-0.8,9.1,1.3,10.1,6.3c1,4.9-1.4,8.9-6.7,10c-4.7,0.9-8.1-1.3-9.3-5.7
			C954.2,304.4,956.3,300.7,961.5,298.9z"/>
		<path class="st2" d="M990.2,291.1c5.2-0.9,9.2,1.1,10.2,6.2c1,4.9-1.3,9-6.7,10c-4.6,0.9-8.1-1.5-9.3-5.8
			C982.9,296.6,985,292.9,990.2,291.1z"/>
		<path class="st2" d="M1029.5,289c0.5,4.9-0.9,9.1-6,10.5c-5.2,1.4-9-1.2-10.3-6.2c-1.1-4.3,0.6-8.1,5.3-9.6
			C1023.6,282,1027,284.4,1029.5,289z"/>
		<path class="st2" d="M1051.9,292.2c-5.2,0.7-9.2-1.5-10.3-6.5c-1.1-5,1.4-8.8,6.8-9.9c4.8-0.9,8.2,1.5,9.4,5.8
			C1059.3,286.5,1057,290.3,1051.9,292.2z"/>
		<path class="st2" d="M1126.1,1006.1c0.5,5.8-1.4,9.5-6.7,10.7c-4.7,1-8.3-1.2-9.6-5.5c-1.5-4.9,0.7-9.2,5.7-10.7
			C1120.7,999,1123.9,1002.4,1126.1,1006.1z"/>
		<path class="st2" d="M1077,1050.1c1.1,5.1-0.6,8.8-5.9,10.2c-4.6,1.2-8.3-0.6-9.8-4.8c-1.8-4.9,0.2-9.1,5.1-10.9
			C1071.4,1042.7,1075,1045.1,1077,1050.1z"/>
		<path class="st2" d="M1135.5,252.7c5.4-0.6,9.1,1.8,9.9,7c0.6,4.3-1.5,8.2-6.1,9.3c-5.2,1.3-9.2-1.2-10.4-6.2
			C1127.7,257.7,1130.3,254,1135.5,252.7z"/>
		<path class="st2" d="M891.9,357c0.2,5.3-1.5,9.3-7,10.1c-5.3,0.8-9-2.1-9.8-7.1c-0.6-4.4,1.6-8,6.3-9.1
			C886.9,349.7,890.1,352.4,891.9,357z"/>
		<path class="st2" d="M1008.4,326c0.1,5.7-1.5,9.7-6.9,10.7c-5.4,1-8.9-2-9.7-7c-0.7-4.4,1.4-8,6.1-9.2
			C1003.3,319.1,1006.2,322.3,1008.4,326z"/>
		<path class="st2" d="M1122.7,295.7c1.1,5.1-0.6,9-5.8,10.3c-5.1,1.3-9-1-10.2-6.1c-1.1-4.4,0.9-8,5.4-9.5
			C1117.2,288.6,1120.7,290.7,1122.7,295.7z"/>
		<path class="st2" d="M1151.6,287.7c1.2,5.1-0.2,9.1-5.5,10.5c-5.1,1.5-9-0.8-10.4-5.8c-1.2-4.4,0.7-8.1,5.1-9.7
			C1145.8,280.9,1149.5,282.7,1151.6,287.7z"/>
		<path class="st2" d="M1210.4,272.6c0.9,5.1-0.7,9-6,10.4c-5.2,1.3-9.1-1.2-10.3-6.2c-1-4.3,0.9-8.1,5.5-9.6
			C1204.8,265.4,1208.2,267.7,1210.4,272.6z"/>
		<path class="st2" d="M1238.7,265.2c1,5.1-0.8,9-6.1,10.1c-5.2,1.1-8.9-1.3-10-6.4c-0.9-4.5,1.2-8,5.6-9.4
			C1233.4,258,1236.9,260.1,1238.7,265.2z"/>
		<path class="st2" d="M987,363.4c0.2,5.2-1.4,9.1-6.9,10.2c-4.8,1-8.2-1.4-9.5-5.7c-1.5-4.9,0.6-9.1,5.8-10.6
			C981.7,355.9,984.9,358.9,987,363.4z"/>
		<path class="st2" d="M1044.8,347.6c0.1,5.1-1.4,9.2-6.8,10.2c-5.4,1-9-2-9.9-7c-0.7-4.3,1.4-8.1,6.1-9.3
			C1039.5,340.3,1042.8,342.9,1044.8,347.6z"/>
		<path class="st2" d="M1063,333.9c5.4-1.1,9.2,1.1,10.4,6.2c1.1,4.3-0.8,8.2-5.3,9.8c-5.2,1.8-9.2-0.6-10.8-5.3
			C1055.6,339.6,1057.9,335.7,1063,333.9z"/>
		<path class="st2" d="M1097.1,342.3c-5.4,1.3-9.4-0.8-10.9-5.6c-1.6-5,0.8-8.9,6-10.4c4.7-1.3,8.4,0.9,9.9,5
			C1103.8,336,1101.8,340.1,1097.1,342.3z"/>
		<path class="st2" d="M1130.2,324.1c1.1,5.6-0.6,9.6-5.9,10.8c-5.1,1.2-9-1.3-10.1-6.3c-1-4.5,1.1-7.9,5.5-9.4
			C1125,317.4,1128.4,319.6,1130.2,324.1z"/>
		<path class="st2" d="M1159.4,316.9c1,5.1-0.7,9.1-5.9,10.3c-5.1,1.2-9-1.2-10.2-6.3c-1-4.5,1-8,5.5-9.4
			C1154,309.7,1157.5,311.8,1159.4,316.9z"/>
		<path class="st2" d="M1246.3,294c0.9,5.2-0.9,9.1-6.1,10.2c-5.1,1.1-9-1.4-10.1-6.5c-1-4.5,1.2-7.9,5.7-9.3
			C1241.1,286.8,1244.5,288.9,1246.3,294z"/>
		<path class="st2" d="M907.4,414.5c0.5,5-0.9,9.2-6.2,10.5c-5.2,1.3-9.1-1.4-10.3-6.4c-1-4.3,0.9-8.1,5.5-9.6
			C901.6,407.4,905,409.8,907.4,414.5z"/>
		<path class="st2" d="M1040.8,371.3c6-1.5,10,0.6,11.5,5.4c1.6,4.9-0.8,8.9-5.9,10.4c-4.7,1.4-8.3-0.9-9.9-5
			C1034.7,377.3,1036.8,373.4,1040.8,371.3z"/>
		<path class="st2" d="M1074.6,379.7c-5.5,0.6-9.3-1.9-9.9-7c-0.6-4.9,1.9-8.9,7.4-9.5c4.7-0.5,8.1,2.1,9,6.5
			C1082.2,374.7,1079.8,378.4,1074.6,379.7z"/>
		<path class="st2" d="M1099.1,355.9c5.5-1.4,9.3,0.7,10.9,5.5c1.4,4.2-0.2,8.1-4.7,10c-5.1,2.2-9.3,0.1-11.2-4.5
			C1092.3,362.2,1094.4,358.1,1099.1,355.9z"/>
		<path class="st2" d="M1132.3,364.3c-5.2,0.9-9.1-1-10.2-6.2c-1.1-5,1.4-8.9,6.6-10c4.6-0.9,7.9,1.2,9.3,5.7
			C1139.5,359.1,1137.5,362.6,1132.3,364.3z"/>
		<path class="st2" d="M1151,351.4c-1.1-5,0.4-9,5.5-10.6c5.1-1.6,8.8,0.6,10.4,5.8c1.3,4.6-0.4,8.1-4.8,9.7
			C1157.1,358.2,1153.3,356.4,1151,351.4z"/>
		<path class="st2" d="M1254.3,324c0.7,5.4-1.6,8.8-6.8,9.7c-4.6,0.8-8.1-1.4-9.2-5.8c-1.3-5.1,1-9,6-10.3
			C1249.5,316.3,1252.8,319,1254.3,324z"/>
		<path class="st2" d="M905.3,437.4c5.2-0.6,8.9,1.8,9.7,7c0.7,4.4-1.5,8.3-6.1,9.4c-5.1,1.3-9.2-1.2-10.4-6.3
			C897.3,442.5,899.8,438.8,905.3,437.4z"/>
		<path class="st2" d="M1136.3,376.8c5.4-0.7,8.7,1.8,9.6,7c0.8,4.6-1.3,8-5.9,9.1c-5.1,1.2-9.1-1-10.3-6.1
			C1128.6,381.8,1131.2,378.3,1136.3,376.8z"/>
		<path class="st2" d="M1168.4,385.6c-5.1,0.3-9-1.7-9.8-6.9c-0.8-5.1,2-8.7,7.2-9.5c4.7-0.7,7.8,1.7,8.9,6.2
			C1175.9,380.7,1173.5,384,1168.4,385.6z"/>
		<path class="st2" d="M975.1,467.8c-5.4,0.9-9.1-1.3-10.2-6.5c-1-4.5,0.8-8.1,5.4-9.5c5.2-1.6,9.2,0.6,10.7,5.5
			C982.4,462.3,979.9,466,975.1,467.8z"/>
		<path class="st2" d="M1090.6,437.5c-5.3,1-9.3-1.2-10.3-6.2c-1-4.9,1.3-9,6.6-10.1c4.7-1,8.2,1.5,9.5,5.7
			C1097.8,431.9,1095.7,435.8,1090.6,437.5z"/>
		<path class="st2" d="M1115.5,413.5c5.8-0.5,9.4,2.1,10.2,7.1c0.7,4.3-1.4,8.1-6.2,9.2c-5.3,1.2-9.2-1.2-10.3-6.2
			C1108.1,418.7,1110.7,415,1115.5,413.5z"/>
		<path class="st2" d="M1153.6,412.3c0.9,5.3-1.1,8.9-6.5,10c-4.6,1-8.2-1.1-9.5-5.5c-1.5-5,0.6-9,5.7-10.5
			C1148.5,404.8,1151.9,407.4,1153.6,412.3z"/>
		<path class="st2" d="M1172.5,398.5c5.4-0.6,9,1.5,10,6.7c0.9,4.6-1.1,8-5.7,9.2c-5.1,1.4-9-0.6-10.4-5.7
			C1165.1,403.6,1167.7,400.2,1172.5,398.5z"/>
		<path class="st2" d="M866.6,526.3c-5.3,0.4-9-1.4-10.2-6.8c-1-4.8,1.3-8.3,5.6-9.6c4.9-1.4,9.3,0.7,10.7,5.8
			C874.1,520.9,871.2,524.4,866.6,526.3z"/>
		<path class="st2" d="M924.6,511c-5.3,0.4-9-1.4-10.2-6.8c-1-4.8,1.3-8.3,5.6-9.5c4.9-1.4,9.3,0.7,10.7,5.8
			C932.1,505.6,929.2,509,924.6,511z"/>
		<path class="st2" d="M978,480.5c5.7-1.2,9.7,0.5,11,5.6c1.3,5-1.1,9-6.2,10.2c-4.5,1.1-8-0.9-9.5-5.3
			C971.5,485.9,973.7,482.4,978,480.5z"/>
		<path class="st2" d="M915.8,590.1c5.4-0.7,8.9,1.5,9.8,6.8c0.8,4.6-1.4,8.1-5.8,9.2c-5.1,1.3-8.9-0.9-10.2-6
			C908.1,594.8,910.8,591.6,915.8,590.1z"/>
		<path class="st2" d="M1154.8,451.2c-5.1,0.4-9-1.7-9.8-6.9c-0.8-5.1,2-8.7,7.2-9.5c4.7-0.7,7.8,1.7,8.9,6.2
			C1162.3,446.4,1159.9,449.7,1154.8,451.2z"/>
		<path class="st2" d="M1190,433c0.8,5.9-1.3,9.5-6.5,10.4c-5.2,0.9-8.9-1.8-9.7-7c-0.7-4.5,1.6-7.9,6.2-9.1
			C1185.3,426.1,1188.4,428.7,1190,433z"/>
		<path class="st2" d="M649.2,606.5c1,5.2-1.2,9.2-6.2,10.3c-4.9,1.1-8.9-1.3-10.1-6.6c-1-4.7,1.3-8.1,5.6-9.4
			C643.6,599.2,647.3,601.3,649.2,606.5z"/>
		<path class="st2" d="M678.7,599.5c0.6,5.1-1.6,8.9-6.9,9.6c-4.9,0.6-9-1.9-9.6-7.3c-0.6-4.6,1.9-8,6.4-9
			C673.9,591.6,677.3,594,678.7,599.5z"/>
		<path class="st2" d="M755.3,569.7c5.3-1,8.9,0.9,10.3,6.2c1.2,4.6-0.9,8.4-5.1,9.8c-4.9,1.7-9.2-0.4-10.9-5.3
			C747.9,575.3,750.5,571.7,755.3,569.7z"/>
		<path class="st2" d="M932.9,540.4c-5.8,0.6-9.5-1.4-10.7-6.6c-1.1-4.6,1-8.1,5.4-9.5c5-1.6,9.2,0.5,10.7,5.5
			C939.7,534.8,936.7,538.2,932.9,540.4z"/>
		<path class="st2" d="M587.4,632c-5.7,1-9.7-0.9-11.2-5.9c-1.4-4.3,0.4-8.1,4.9-9.9c5.1-2,9.3-0.1,11.1,4.7
			C594.1,625.9,591.4,629.7,587.4,632z"/>
		<path class="st2" d="M876.1,555.9c-5.3,1-9.3-0.7-10.8-5.8c-1.5-5.1,0.8-8.8,6-10.2c4.6-1.2,8.1,0.6,9.6,5.1
			C882.7,550,880.6,553.6,876.1,555.9z"/>
		<path class="st2" d="M910,537.6c0.8,5.8-1.1,9.7-6.3,10.8c-5.2,1.1-8.8-1.6-9.8-6.7c-0.9-4.6,1.3-7.9,5.8-9.2
			C905,530.9,908.2,533.4,910,537.6z"/>
		<path class="st2" d="M1111.9,485c0.2,5.2-1.4,9.3-6.9,10.1c-5.3,0.9-9-2.1-9.8-7.1c-0.7-4.3,1.6-8.1,6.3-9.2
			C1106.8,477.6,1110.1,480.3,1111.9,485z"/>
		<path class="st2" d="M560.5,188.4c5-0.5,9,1.2,10.3,6.3c1.3,5.2-1.3,8.8-6.5,9.9c-4.5,1-8-0.9-9.3-5.5
			C553.4,194,555.8,190.6,560.5,188.4z"/>
		<path class="st2" d="M401.8,23.3c0.8,5.2-1.4,9.1-6.4,10.1c-4.9,1-8.9-1.4-9.9-6.8c-0.9-4.7,1.5-8.1,5.8-9.3
			C396.4,15.9,400.1,18.1,401.8,23.3z"/>
		<path class="st2" d="M430.5,14.7c1.5,5.4-0.6,9.4-5.4,10.9c-4.9,1.5-9-0.8-10.5-5.9c-1.3-4.6,0.8-8.3,5-9.8
			C424.4,8.1,428.4,9.9,430.5,14.7z"/>
		<path class="st2" d="M409.6,53c0.5,5-2.1,8.6-7.1,9.4c-4.3,0.6-8.1-1.5-9.2-6.2C392,51,394.5,47,399.5,46
			C404.4,44.9,408.2,47.3,409.6,53z"/>
		<path class="st2" d="M664.2,664.1c1,5.7-0.9,9.6-5.9,10.9c-5,1.3-8.8-1.2-10-6.4c-1.1-4.6,1-8,5.4-9.4
			C658.7,657.6,662.2,659.9,664.2,664.1z"/>
		<path class="st2" d="M1251.8,664.7c0.7,5.3-1.2,9.2-6.5,10.1c-5,0.8-9-1.8-9.9-6.9c-0.7-4.4,1.5-7.9,6.1-9.1
			C1246.8,657.4,1250.1,659.8,1251.8,664.7z"/>
		<path class="st2" d="M736.2,583.7c0.8,5.1-1.4,9.1-6.4,10.1c-4.9,1-8.9-1.4-9.9-6.8c-0.9-4.7,1.4-8.1,5.8-9.3
			C730.8,576.3,734.5,578.4,736.2,583.7z"/>
		<path class="st2" d="M555.6,52.5c-5.1,0.9-8.8-0.8-10.3-6c-1.3-4.6,0.7-8.4,4.9-9.9c4.8-1.8,9.1,0.2,11,5.1
			C563,46.8,560.4,50.3,555.6,52.5z"/>
		<path class="st2" d="M1213.9,435.6c-5.1,1-9.1-0.9-10.5-5.8c-1.3-5,1-8.8,6.2-10.2c4.6-1.2,8,0.9,9.5,5.2
			C1220.7,429.9,1218.9,433.6,1213.9,435.6z"/>
		<path class="st2" d="M1234.4,482.3c1,5.7-0.8,9.7-6,10.8c-5,1-9-1.5-10.1-6.6c-0.9-4.4,1.3-7.9,5.8-9.3
			C1229.3,475.6,1232.7,478,1234.4,482.3z"/>
		<path class="st2" d="M1215.5,325c5.4-0.9,9.1,1.3,10.3,6.4c1,4.4-0.8,8.1-5.4,9.6c-5.2,1.7-9.2-0.5-10.7-5.3
			C1208.2,330.7,1210.7,326.9,1215.5,325z"/>
		<path class="st2" d="M540.7,80.9c-0.3,4.8-2.5,8.6-7.9,8.8c-5.2,0.2-8.6-2.7-8.8-8.1c-0.2-4.7,2.7-7.9,7.1-8.4
			C536.1,72.6,539.8,75.2,540.7,80.9z"/>
		<path class="st2" d="M1049.7,862.8c5.2-0.6,8.9,1.2,10.2,6.4c1.2,4.6-0.8,8.1-5.2,9.5c-4.9,1.6-9.1,0-10.6-5.2
			C1042.5,868.4,1045.1,865,1049.7,862.8z"/>
		<path class="st2" d="M1167,808.9c0.6,5-0.8,8.9-6,10.5c-4.6,1.4-8.3-0.7-9.9-4.8c-1.9-4.7-0.2-9.1,4.8-11
			C1161.1,801.6,1164.4,804.4,1167,808.9z"/>
		<path class="st2" d="M479.2,117.2c5.3-0.6,9.3,0.9,10.9,6.1c1.4,4.6-0.7,8.3-4.9,9.9c-4.8,1.8-9,0.2-10.9-4.9
			C472.2,122.9,475.2,119.7,479.2,117.2z"/>
		<path class="st2" d="M518.6,114.2c1.6,6.2-0.5,10-5.4,11.5c-4.3,1.4-8.1-0.2-9.9-4.7c-2.1-5.1,0-9.3,4.6-11.1
			C512.7,107.9,516.5,110.5,518.6,114.2z"/>
		<path class="st2" d="M547.8,107.1c1.4,5.5-0.6,9.3-5.5,10.9c-4.3,1.4-8.1-0.2-10-4.6c-2.2-5.1-0.1-9.3,4.5-11.2
			C541.6,100.3,545.6,102.6,547.8,107.1z"/>
		<path class="st2" d="M952.6,464.9c0.3,5.1-2,9-7.1,9.7c-5,0.7-8.8-1.9-9.5-7.4c-0.6-4.8,1.9-8,6.3-8.9
			C947.5,457.2,951.1,459.5,952.6,464.9z"/>
		<path class="st2" d="M1021.6,723.9c1.2,5.4-0.8,9.1-6,10.4c-4.4,1.1-8.1-0.6-9.7-5c-1.8-5.1,0.5-9.2,5.2-10.9
			C1015.9,716.6,1019.7,719.1,1021.6,723.9z"/>
		<path class="st2" d="M743.7,612.1c1,5.3-1.3,9.2-6.3,10.3c-4.9,1-8.9-1.2-10-6.6c-0.9-4.7,1.5-8.2,5.7-9.5
			C738.1,604.8,741.9,607,743.7,612.1z"/>
		<path class="st2" d="M1102,835c-5.1,0.6-8.7-1.9-9.5-7c-0.7-4.4,1.4-8.1,6-9.3c5.2-1.2,9.2,1.3,10.3,6.2
			C1110,829.8,1107.5,833.6,1102,835z"/>
		<path class="st2" d="M1013,841.8c5.1-0.7,8.9,0.9,10.4,6.1c1.3,4.6-0.6,8.2-4.9,9.8c-4.8,1.8-9.1,0.2-10.9-4.9
			C1005.8,847.7,1008.6,844.2,1013,841.8z"/>
		<path class="st2" d="M555.8,137c0.8,5.4-1.4,9.1-6.5,10.2c-4.4,1-8.1-0.9-9.5-5.5c-1.7-5.2,0.6-9.2,5.5-10.7
			C550.1,129.6,553.9,132,555.8,137z"/>
		<path class="st2" d="M1088.7,313.7c-5.2,0.9-9.2-1.3-10.3-6.3c-1-4.9,1.3-8.9,6.7-10c4.8-0.9,8.2,1.5,9.4,5.7
			C1096,308.1,1093.8,311.8,1088.7,313.7z"/>
		<path class="st2" d="M1180.9,280.1c1.1,5-0.3,9-5.5,10.4c-5.1,1.4-9-0.9-10.4-5.9c-1.2-4.3,0.7-8,5.1-9.7
			C1175.2,273.1,1178.7,275.2,1180.9,280.1z"/>
		<path class="st2" d="M1221,548.4c0.9,5.1-0.7,9.1-5.9,10.4c-5,1.2-9-1.3-10.2-6.3c-1.1-4.4,1-7.9,5.5-9.4
			C1215.5,541.3,1219,543.4,1221,548.4z"/>
		<path class="st2" d="M751.1,641.2c1.2,5.1-0.6,9.2-5.4,10.7c-4.9,1.6-8.8-0.7-10.4-5.8c-1.4-4.6,0.5-8.1,4.8-9.7
			C745,634.5,748.9,636.3,751.1,641.2z"/>
		<path class="st2" d="M1249.8,540.6c1.1,5.1-0.5,9.2-5.7,10.5c-5,1.3-9-1.2-10.3-6.2c-1.2-4.4,0.9-8,5.3-9.5
			C1244.2,533.7,1247.8,535.6,1249.8,540.6z"/>
		<path class="st2" d="M1070.3,473.6c-5.5,1.5-9.4-0.6-11-5.4c-1.4-4.2,0.2-8.1,4.6-10c5.1-2.2,9.3,0,11.2,4.5
			C1077,467.5,1074.9,471.5,1070.3,473.6z"/>
		<path class="st2" d="M1226.7,370.2c-5,0.4-9-1.9-9.6-7c-0.7-4.9,1.9-8.8,7.4-9.5c4.8-0.6,8,1.9,9,6.3
			C1234.5,365.1,1232.2,368.7,1226.7,370.2z"/>
		<path class="st2" d="M962.8,532.5c-5.4,0.7-9.4-0.6-11-5.9c-1.4-4.6,0.5-8.3,4.7-9.9c4.8-1.9,9-0.4,11,4.7
			C969.5,526.6,966.5,529.8,962.8,532.5z"/>
		<path class="st2" d="M1088.9,668c5.3-1,8.8,1,10.1,6.2c1.1,4.6-0.9,8.2-5.2,9.6c-4.9,1.6-9.1-0.6-10.7-5.5
			C1081.4,673.4,1084,669.8,1088.9,668z"/>
		<path class="st2" d="M1006.2,667.3c0.6,5.1-1.5,9.1-6.5,10.2c-5,1.1-8.8-1.5-9.9-6.8c-0.9-4.8,1.4-8.1,5.8-9.3
			C1000.6,659.9,1004.3,662.1,1006.2,667.3z"/>
		<path class="st2" d="M865.2,403.3c-5.3,0.1-9-1.9-9.9-7.2c-0.9-5.4,2.1-8.6,7.3-9.3c4.5-0.6,7.9,1.6,8.9,6.3
			C872.6,398.3,869.9,401.5,865.2,403.3z"/>
		<path class="st2" d="M1029.5,754.5c0.6,5.1-2,8.7-7,9.5c-4.3,0.7-8.1-1.4-9.2-6.1c-1.2-5.2,1.2-9.2,6.2-10.3
			C1024.3,746.5,1028.2,748.9,1029.5,754.5z"/>
		<path class="st2" d="M796.3,691.5c1,5.2-1,9.2-6.2,10.3c-5,1-9.1-1.4-10.1-6.6c-0.9-4.5,1.4-8.1,5.8-9.4
			C790.9,684.2,794.5,686.4,796.3,691.5z"/>
		<path class="st2" d="M815.4,678c5.3-0.5,8.8,1.6,9.8,7c0.8,4.7-1.4,8.2-5.8,9.3c-4.9,1.2-9.1-1-10.4-6.1
			C807.6,683,810.5,679.6,815.4,678z"/>
		<path class="st2" d="M925,131.4c0.9,5.5-0.9,9.2-6.2,10.5c-4.7,1.2-8.4-0.9-9.8-5.1c-1.6-4.8,0.4-9.2,5.4-10.9
			C919.5,124.2,922.9,126.9,925,131.4z"/>
		<path class="st2" d="M953.9,123.7c0.9,5.5-0.9,9.2-6.2,10.5c-4.7,1.2-8.4-0.9-9.8-5.1c-1.6-4.8,0.4-9.2,5.4-10.9
			C948.4,116.6,951.9,119.3,953.9,123.7z"/>
		<path class="st2" d="M1004.7,349.8c5.4-1.4,9.4,0.7,10.9,5.5c1.6,4.9-0.7,8.9-5.9,10.4c-4.7,1.4-8.3-0.9-9.9-5
			C998.1,356,1000,352,1004.7,349.8z"/>
		<path class="st2" d="M1218.2,301.8c0.4,5.3-1.4,9.3-6.8,10.1c-5.2,0.8-9-2-9.8-7.1c-0.7-4.4,1.6-8,6.3-9.1
			C1213.2,294.4,1216.5,297,1218.2,301.8z"/>
		<path class="st2" d="M1226.8,600.6c5.3-0.7,8.7,1.6,9.6,6.8c0.8,4.6-1.3,8.2-5.7,9.3c-5,1.2-9.1-1.1-10.4-6
			C1219,605.5,1221.7,602.1,1226.8,600.6z"/>
		<path class="st2" d="M1204,367.5c0.9,5.1-0.8,9-6.1,10.1c-5.1,1.1-9-1.4-10-6.4c-0.9-4.3,1.1-8,5.7-9.3
			C1198.8,360.2,1202.1,362.5,1204,367.5z"/>
		<path class="st2" d="M911.4,660.9c0.7,5.4-1.3,9.4-6.3,10.7c-5,1.2-8.8-1.3-10-6.6c-1.1-4.7,1.2-8.1,5.5-9.5
			C905.7,654,909.4,656.3,911.4,660.9z"/>
		<path class="st2" d="M1117.8,390.1c0.6,5-0.9,8.9-6.1,10.4c-4.6,1.3-8.4-1-9.9-5c-1.8-4.7-0.1-9,5.1-10.9
			C1112.1,382.8,1115.4,385.4,1117.8,390.1z"/>
		<path class="st2" d="M796.4,227.5c0.3,5.2-1.5,9.1-6.8,10.1c-5.4,1-8.7-1.8-9.6-6.9c-0.8-4.5,1.3-8,5.9-9.1
			C791.2,220.3,794.4,222.9,796.4,227.5z"/>
		<path class="st2" d="M814.8,213.8c5.1-0.9,9.1,1,10.3,6c1.2,4.9-1.1,8.8-6.4,10.1c-4.6,1.1-8-1-9.4-5.4
			C807.8,219.4,809.7,215.8,814.8,213.8z"/>
		<path class="st2" d="M969.3,181.5c0.8,5-0.7,8.9-6,10.4c-4.6,1.3-8.4-0.8-9.9-4.9c-1.8-4.8,0.1-9.1,5.1-10.9
			C963.5,174.1,967,176.7,969.3,181.5z"/>
		<path class="st2" d="M998.2,173.8c0.8,5-0.7,8.9-6,10.4c-4.6,1.3-8.4-0.8-9.9-4.9c-1.8-4.8,0.1-9.1,5.1-10.9
			C992.5,166.5,996,169.1,998.2,173.8z"/>
		<path class="st2" d="M1026.3,776.2c5-0.6,8.9,0.8,10.5,6c1.4,4.6-0.6,8.3-4.8,9.9c-4.8,1.9-9.1,0.4-11-4.8
			C1019.2,782.1,1021.9,778.7,1026.3,776.2z"/>
		<path class="st2" d="M1241.3,389.4c0.4,5.3-1.6,9-7,9.9c-4.7,0.8-8.2-1.5-9.4-5.8c-1.3-5,0.9-9.1,6.1-10.4
			C1236.4,381.7,1239.6,384.6,1241.3,389.4z"/>
		<path class="st2" d="M832.8,248c0.9,5.5-0.6,9.4-5.8,11c-4.6,1.4-8.3-0.4-9.9-4.7c-1.9-4.8-0.4-9.1,4.6-11
			C826.9,241.4,830.1,244.5,832.8,248z"/>
		<path class="st2" d="M1211.6,396.2c1.2,5-0.2,8.9-5.5,10.5c-4.5,1.4-8.3-0.4-10-4.5c-2.1-4.8-0.1-9,4.6-11
			C1205.8,389.1,1209.4,391.4,1211.6,396.2z"/>
		<path class="st2" d="M912.1,236.5c-5,0.5-8.8-1.9-9.4-7c-0.6-4.9,1.9-8.9,7.4-9.5c4.7-0.5,8.1,2,9,6.5
			C920.1,231.4,917.8,235.1,912.1,236.5z"/>
		<path class="st2" d="M942.1,228.6c-5.3,1-9.2-1.2-10.3-6.2c-1-4.9,1.2-9,6.6-10c4.7-1,8.2,1.5,9.4,5.7
			C949.4,223,947.3,226.8,942.1,228.6z"/>
		<path class="st2" d="M977.1,211.4c0.5,5.3-1.5,8.9-6.9,9.9c-4.7,0.9-8.2-1.4-9.3-5.7c-1.3-4.9,0.9-9.2,6-10.5
			C972,203.7,975.4,206.6,977.1,211.4z"/>
		<path class="st2" d="M753.9,300.9c0.4,5.3-1.6,9-6.8,10.1c-4.6,1-8-1.2-9.2-5.6c-1.5-5.1,0.4-9,5.6-10.4
			C748.6,293.6,751.9,296.3,753.9,300.9z"/>
		<path class="st2" d="M1061.9,445.1c-5.4,1.1-9.1-1.1-10.4-6.2c-1.1-4.3,0.7-8.1,5.3-9.7c5.2-1.8,9.2,0.6,10.8,5.3
			C1069.3,439.4,1066.9,443.3,1061.9,445.1z"/>
		<path class="st2" d="M1033.7,452.3c-5.5,1.4-9.3-0.5-10.9-5.5c-1.3-4.3,0.2-8.1,4.6-10c5.2-2.2,9.3,0,11.1,4.6
			C1040.5,446.1,1038.2,450.1,1033.7,452.3z"/>
		<path class="st2" d="M991.2,415.4c5.4-1.4,9.4,0.7,10.9,5.5c1.5,4.9-0.7,8.9-5.9,10.4c-4.6,1.3-8.3-0.8-9.9-5
			C984.5,421.6,986.4,417.6,991.2,415.4z"/>
		<path class="st2" d="M994.8,391.4c0.2,5.6-1.4,9.7-6.8,10.7c-5.3,1-8.8-1.8-9.7-6.9c-0.8-4.5,1.3-8,6-9.2
			C989.7,384.6,992.6,387.7,994.8,391.4z"/>
		<path class="st2" d="M916.4,248.8c5.7-0.9,9.7,1.3,10.7,6.3c1,4.9-1.3,8.9-6.7,10c-4.7,0.9-8.1-1.5-9.4-5.7
			C909.5,254.2,911.9,250.6,916.4,248.8z"/>
		<path class="st2" d="M968.1,243.9c-0.1-5.1,1.5-9.2,6.8-10.2c5.4-1,8.9,1.9,9.8,7c0.8,4.4-1.4,8.1-6.1,9.2
			C973.4,251.2,970.1,248.6,968.1,243.9z"/>
		<path class="st2" d="M1088.9,398.2c0.2,5.2-1.4,9.2-6.9,10.1c-5.3,0.9-9-2-9.7-7c-0.6-4.3,1.5-8,6.2-9.2
			C1083.8,390.9,1087,393.6,1088.9,398.2z"/>
		<path class="st2" d="M1185.6,332.9c6.1-1,9.6,1.2,10.8,6.3c1.1,4.5-0.7,8-5.3,9.4c-5.1,1.6-9.1-0.4-10.6-5.3
			C1179,338.3,1181.8,334.9,1185.6,332.9z"/>
		<path class="st2" d="M814.3,324c-6,1.3-9.8-0.6-11.3-5.7c-1.3-4.4,0.2-8,4.7-9.8c5.1-2,9.2-0.1,11.1,4.7
			C820.7,318.1,817.8,321.7,814.3,324z"/>
		<path class="st2" d="M842.6,316.5c-5.4,1.2-9.2-0.7-10.7-5.7c-1.3-4.4,0.2-8,4.7-9.8c5.1-2,9.3-0.1,11.1,4.6
			C849.5,310.3,847.1,314.2,842.6,316.5z"/>
		<path class="st2" d="M1055.5,415.5c-6.2,1.6-10-0.4-11.6-5.3c-1.4-4.3,0.3-8.1,4.7-10c5.2-2.2,9.3,0,11.1,4.6
			C1061.7,409.5,1059.2,413.4,1055.5,415.5z"/>
		<path class="st2" d="M878.7,568.5c5.1-0.9,8.8,0.7,10.2,6.1c1.2,4.6-0.9,8.3-5,9.7c-4.8,1.7-9-0.3-10.7-5.3
			C871.3,573.9,873.8,570.5,878.7,568.5z"/>
		<path class="st2" d="M1078.3,626.1c-4.9,0.9-9-0.7-10.7-5.6c-1.7-5,0.7-8.8,5.7-10.3c4.5-1.4,8.1,0.4,9.7,4.8
			C1085,619.9,1083.1,623.6,1078.3,626.1z"/>
		<path class="st2" d="M1107.4,618.4c-4.9,0.9-9-0.7-10.7-5.6c-1.7-5,0.7-8.8,5.8-10.3c4.5-1.4,8.1,0.4,9.7,4.8
			C1114,612.2,1112.2,616,1107.4,618.4z"/>
		<path class="st2" d="M1204.8,636.7c5.7-0.5,9.2,1.7,10.1,7c0.8,4.7-1.5,8.2-5.9,9.3c-5,1.2-9.2-1.1-10.4-6.1
			C1197.4,641.7,1200.4,638.4,1204.8,636.7z"/>
		<path class="st2" d="M917.8,566.8c0.9,5.2-1.1,9.1-6.2,10.1c-5,1-8.9-1.5-9.9-6.7c-0.9-4.6,1.3-7.9,5.8-9.2
			C912.6,559.6,916.1,561.6,917.8,566.8z"/>
		<path class="st2" d="M998.8,444.2c5.5-1.5,9.4,0.6,10.9,5.4c1.5,4.9-0.8,9-5.9,10.5c-4.6,1.3-8.3-0.9-9.8-5
			C992.1,450.3,993.9,446.3,998.8,444.2z"/>
		<path class="st2" d="M913.7,319.9c0.1,5.7-1.5,9.7-6.9,10.7c-5.4,1-8.9-1.9-9.8-7c-0.7-4.4,1.4-8,6.1-9.2
			C908.6,313,911.5,316.2,913.7,319.9z"/>
		<path class="st2" d="M1031.6,413.7c0.2,5.2-1.5,9-7,10.1c-4.8,0.9-8.1-1.4-9.4-5.7c-1.4-5,0.6-9.1,5.8-10.5
			C1026.3,406.3,1029.5,409.2,1031.6,413.7z"/>
		<path class="st2" d="M1087.2,274c0.3,5.8-1.4,9.8-6.8,10.7c-5.3,0.9-9-2-9.8-7c-0.6-4.3,1.5-8,6.2-9.2
			C1082.2,267.1,1085.1,270.3,1087.2,274z"/>
		<path class="st2" d="M1116.5,265.9c0.6,5.3-0.9,9.3-6.1,10.9c-4.6,1.4-8.3-0.7-9.9-4.9c-1.8-4.8-0.2-9,4.9-10.9
			C1110.8,259,1114,262,1116.5,265.9z"/>
		<path class="st2" d="M1048.5,592.8c1.3,5.7-0.7,9.7-5.5,11.2c-4.9,1.6-8.9-0.7-10.4-5.9c-1.4-4.6,0.6-8.2,4.9-9.8
			C1042.5,586.6,1046.3,588.6,1048.5,592.8z"/>
		<path class="st2" d="M662.1,687.2c5.3-0.3,9.2,1.5,10.1,6.9c0.9,5.4-2,9-7,9.7c-4.3,0.6-8.1-1.6-9.2-6.3
			C654.7,692.2,657.4,689,662.1,687.2z"/>
		<path class="st2" d="M1169.6,469.7c0.4,5.3-1.4,9.3-6.8,10.1c-5.2,0.8-9-2-9.7-7.1c-0.6-4.4,1.7-8,6.3-9.1
			C1164.7,462.3,1167.9,465,1169.6,469.7z"/>
		<path class="st2" d="M730.2,677.6c1.3,5.3-0.5,9.3-5.5,10.7c-4.9,1.3-9-1-10.5-6c-1.2-4.4,0.8-8.1,5.2-9.6
			C724.4,670.9,728.2,672.6,730.2,677.6z"/>
		<path class="st2" d="M1046.7,935.5c0.7,5.3-1.7,8.7-6.9,9.7c-4.5,0.8-8.2-1.3-9.3-5.9c-1.3-5.1,1.2-9.2,6.1-10.4
			C1041.6,927.6,1045.2,930.2,1046.7,935.5z"/>
		<path class="st2" d="M950.4,341.5c0.1,5-1.5,9.2-6.8,10.2c-5.4,1-8.9-1.9-9.8-7c-0.8-4.4,1.4-8.1,6.1-9.2
			C945.1,334.2,948.5,336.8,950.4,341.5z"/>
		<path class="st2" d="M759.1,669.8c1.1,5.7-1.1,9.7-6.2,10.8c-4.9,1.1-8.9-1.3-10-6.6c-1-4.7,1.4-8.2,5.7-9.5
			C753.6,663,757.2,665.3,759.1,669.8z"/>
		<path class="st2" d="M1027.6,1009.7c-5.8,1-9.7-1.1-10.8-6.1c-1-5,1.5-8.9,6.7-9.9c4.6-0.9,7.9,1.3,9.2,5.8
			C1034.3,1004.6,1032,1008,1027.6,1009.7z"/>
		<path class="st2" d="M782.5,673c-5.1,0.2-9.2-1.6-10.2-6.8c-0.9-5.2,2-8.9,7.1-9.8c4.5-0.8,8,1.5,9.1,6.1
			C789.8,667.7,787.4,671.2,782.5,673z"/>
		<path class="st2" d="M807.7,649.1c5.3-0.6,8.8,1.5,9.8,6.9c0.9,4.7-1.4,8.2-5.7,9.3c-4.9,1.3-9.1-1-10.5-6
			C800,654.1,802.7,650.7,807.7,649.1z"/>
		<path class="st2" d="M1005.9,1046.8c-5.1,1.1-9.1-0.3-10.5-5.6c-1.4-5.1,1-9,6-10.4c4.4-1.2,8,0.7,9.6,5.2
			C1012.7,1041.2,1010.8,1044.8,1005.9,1046.8z"/>
		<path class="st2" d="M904,633.1c-0.4,5.4-2.5,9.3-7.8,9.7c-5.2,0.4-8.5-2.7-8.9-8c-0.4-4.8,2.4-7.7,6.9-8.4
			C899.5,625.5,902.7,628.3,904,633.1z"/>
		<path class="st2" d="M990.9,609.1c0.7,5.2-1.4,9.2-6.4,10.2c-4.9,1-8.9-1.3-9.9-6.8c-0.9-4.8,1.5-8.2,5.8-9.4
			C985.3,601.8,989.1,604,990.9,609.1z"/>
		<path class="st2" d="M1019.6,601.1c1.1,5.1-0.8,9.2-5.7,10.7c-5,1.6-8.9-0.8-10.3-6c-1.3-4.6,0.7-8.2,5-9.8
			C1013.4,594.3,1017.4,596.1,1019.6,601.1z"/>
		<path class="st2" d="M618.4,173.1c5-0.4,9,1.2,10.2,6.3c1.3,5.2-1.4,8.7-6.5,9.9c-4.5,1-8-0.9-9.3-5.5
			C611.4,178.7,613.6,175.3,618.4,173.1z"/>
		<path class="st2" d="M665.4,200.5c0.7,5.4-1.4,9-6.5,10.2c-4.5,1.1-8-0.8-9.4-5.3c-1.6-5.1,0.3-9.1,5.3-10.6
			C659.8,193.4,663.4,195.9,665.4,200.5z"/>
		<path class="st2" d="M723.1,184.9c0.6,5.2-1.2,8.9-6.4,10.2c-4.7,1.2-8.1-0.9-9.5-5.2c-1.6-4.9,0.1-9.1,5.2-10.7
			C717.4,177.7,720.9,180.4,723.1,184.9z"/>
		<path class="st2" d="M741.6,171.3c5-0.7,9,1.2,10.3,6.2c1.3,5-1.2,8.7-6.4,10c-4.7,1.1-8-1-9.4-5.4
			C734.6,177.1,736.6,173.4,741.6,171.3z"/>
		<path class="st2" d="M778.6,192.6c5.1-0.4,9.1,1.6,10.1,6.7c1,5.1-1.8,8.7-6.9,9.7c-4.6,0.9-7.9-1.4-9.1-5.9
			C771.4,197.9,773.6,194.4,778.6,192.6z"/>
		<path class="st2" d="M974.1,150.3c-0.8-4.9,0.8-9,5.7-10.6c5-1.6,8.8,0.8,10.2,5.9c1.3,4.5-0.5,8.1-4.9,9.7
			C980.3,157,976.5,155.2,974.1,150.3z"/>
		<path class="st2" d="M738.7,243.5c0.2,5.4-2.1,8.8-7.3,9.7c-4.7,0.8-7.9-1.6-8.9-6.1c-1.2-5.2,0.9-9,6.1-10.1
			C733.7,236,737,238.8,738.7,243.5z"/>
		<path class="st2" d="M760.7,245.5c-5.3,0.7-8.6-1.8-9.4-7c-0.7-4.6,1.4-8,5.9-9.1c5.1-1.2,9,1.1,10.2,6.2
			C768.6,240.7,765.9,244.1,760.7,245.5z"/>
		<path class="st2" d="M798.1,266.8c-5.7,1-9.1-1.3-10.2-6.5c-0.9-4.5,1-8.1,5.5-9.4c5.1-1.4,9.1,0.9,10.5,5.7
			C805.3,261.7,802.7,265.2,798.1,266.8z"/>
		<path class="st2" d="M862,240.8c0.5,5.9-1.5,9.6-6.7,10.7c-4.7,1.1-8-1.2-9.3-5.5c-1.5-5,0.4-9,5.6-10.5
			C856.8,234,859.8,237.3,862,240.8z"/>
		<path class="st2" d="M811.8,285.6c0.6,5.2-1.2,8.9-6.4,10.2c-4.6,1.2-8.1-0.8-9.5-5.2c-1.6-4.9,0.1-9.1,5.2-10.7
			C806.1,278.5,809.6,281.1,811.8,285.6z"/>
		<path class="st2" d="M829.4,272.1c5.2-1.3,9.3,0.6,10.8,5.4c1.6,4.8-0.6,8.8-5.8,10.4c-4.6,1.4-8.1-0.6-9.8-4.8
			C822.8,278.2,824.6,274.3,829.4,272.1z"/>
		<path class="st2" d="M869.5,269.6c0.7,4.9-0.7,8.8-5.8,10.4c-4.6,1.4-8.1-0.4-9.8-4.6c-1.9-4.8-0.4-9,4.6-10.9
			C863.4,262.7,867,265.1,869.5,269.6z"/>
		<path class="st2" d="M1013.3,232.3c0.7,5.3-1.1,8.9-6.5,10c-4.7,1-8.2-1.1-9.5-5.4c-1.5-4.9,0.6-9,5.7-10.5
			C1008.3,224.8,1011.5,227.6,1013.3,232.3z"/>
		<path class="st2" d="M877.2,298.7c0.2,5.1-1.5,9.2-6.8,10.2c-5.3,1-8.8-1.9-9.7-7c-0.8-4.4,1.2-7.9,6-9.1
			C872,291.6,875.3,294,877.2,298.7z"/>
		<path class="st2" d="M964.1,275.1c0.7,4.9-0.8,9-5.8,10.6c-5.1,1.6-8.8-0.9-10.3-5.9c-1.3-4.5,0.5-8.1,4.9-9.7
			C958,268.3,961.7,270.3,964.1,275.1z"/>
		<path class="st2" d="M1012.1,254.7c5.1-0.5,8.7,2.1,9.4,7.1c0.6,4.3-1.4,8.1-6.1,9.2c-5.2,1.2-9.1-1.3-10.2-6.2
			C1004.2,259.8,1006.6,256,1012.1,254.7z"/>
		<path class="st2" d="M1050.4,252.5c0.6,5.3-0.8,9.3-6,10.8c-4.7,1.3-8.4-1-9.9-5c-1.8-4.7-0.1-9,5.1-10.9
			C1044.8,245.5,1048,248.5,1050.4,252.5z"/>
		<path class="st2" d="M1079.5,245.2c0.6,5-0.8,8.9-6.1,10.4c-4.7,1.3-8.4-1-9.9-5c-1.8-4.7-0.1-9,5.1-10.9
			C1073.7,237.9,1077.1,240.6,1079.5,245.2z"/>
		<path class="st2" d="M816.1,337.4c5.7-0.9,9.6,1.3,10.6,6.3c1,4.9-1.6,8.8-6.8,9.8c-4.6,0.9-7.9-1.4-9.2-5.8
			C809.4,342.6,811.7,339.1,816.1,337.4z"/>
		<path class="st2" d="M884.9,327.3c0.4,5.5-1.2,9.5-6.4,10.7c-5.3,1.2-8.8-1.5-9.8-6.5c-0.9-4.5,1-7.9,5.6-9.3
			C879.5,320.6,882.5,323.6,884.9,327.3z"/>
		<path class="st2" d="M931.1,307.1c5.5-1.6,9.5,0.5,11,5.3c1.5,4.8-0.7,8.9-5.8,10.4c-4.6,1.4-8.3-0.9-9.8-4.9
			C924.6,313.2,926.4,309.2,931.1,307.1z"/>
		<path class="st2" d="M656.9,636c0.5,5.1-2,8.7-7.1,9.5c-4.3,0.7-8.1-1.5-9.2-6.1c-1.2-5.2,1.2-9.2,6.2-10.3
			C651.7,628,655.5,630.4,656.9,636z"/>
		<path class="st2" d="M949.7,486.6c4.9-0.5,8.9,0.9,10.4,6.1c1.3,4.6-0.9,8.3-4.9,9.9c-4.7,1.8-9,0.2-10.8-5
			C942.4,492.4,945.1,489.1,949.7,486.6z"/>
		<path class="st2" d="M902.2,508c0.9,5.3-1.3,9.1-6.4,10.3c-4.3,1-8.1-0.8-9.6-5.4c-1.7-5.2,0.6-9.2,5.4-10.7
			C896.5,500.7,900.4,503,902.2,508z"/>
		<path class="st2" d="M796.6,607.9c-5,0.7-9-1-10.4-6c-1.4-5.1,1.1-8.8,6.2-10c4.6-1.1,8,0.8,9.5,5.2
			C803.5,602.1,801.5,605.7,796.6,607.9z"/>
		<path class="st2" d="M871.7,663c6-0.6,9.9,1.1,10.8,6.5c0.9,5.2-1.9,9-6.9,9.9c-4.3,0.7-8-1.4-9.2-6.1
			C865,667.9,867.9,664.9,871.7,663z"/>
		<path class="st2" d="M707.4,591.3c0.7,5.9-1.5,9.8-6.7,10.4c-4.9,0.6-8.9-2-9.6-7.3c-0.6-4.6,1.9-7.8,6.4-8.9
			C702.9,584.2,706,586.9,707.4,591.3z"/>
		<path class="st2" d="M783.8,562.6c5-1.2,8.8,0.2,10.4,5.5c1.4,4.5-0.3,8.3-4.5,10c-4.9,2.1-9.1,0-11.1-4.7
			C776.6,568.5,778.9,564.8,783.8,562.6z"/>
		<path class="st2" d="M998.4,638.1c0.9,5.1-1,9.1-5.9,10.5c-5,1.4-8.7-1-10.1-6.2c-1.2-4.6,0.8-8.1,5.2-9.5
			C992.5,631.3,996.3,633.1,998.4,638.1z"/>
		<path class="st2" d="M823.1,559.6c1.4,5.9-0.4,9.9-5.5,11.2c-4.9,1.3-9-1.1-10.3-6.2c-1.2-4.5,1-8,5.3-9.5
			C817.7,553.3,821.3,555.4,823.1,559.6z"/>
		<path class="st2" d="M1046.9,470.3c0.5,5.5-1.2,9.5-6.3,10.8c-5.2,1.3-8.7-1.4-9.9-6.5c-1-4.5,0.9-7.9,5.5-9.3
			C1041.5,463.6,1044.7,466.3,1046.9,470.3z"/>
		<path class="st2" d="M1027.3,546.8c-5.4,0.7-8.9-1.4-10.1-6.6c-1-4.6,0.9-8,5.4-9.3c5.1-1.5,9.1,0.4,10.5,5.4
			C1034.5,541.4,1031.9,544.9,1027.3,546.8z"/>
		<path class="st2" d="M1062.4,528.7c0.5,5-1.2,9-6.3,10.3c-5.2,1.3-8.7-1.4-9.9-6.5c-1-4.6,0.9-8,5.5-9.3
			C1056.8,521.7,1060.3,523.8,1062.4,528.7z"/>
		<path class="st2" d="M1196.9,608.5c5.2-0.9,8.8,0.8,10.1,6.1c1.1,4.6-0.9,8.2-5.1,9.6c-4.9,1.6-9.1-0.5-10.7-5.4
			C1189.4,613.9,1192,610.4,1196.9,608.5z"/>
		<path class="st2" d="M1091.1,520.3c0.7,5.2-1,9.3-6,10.7c-5.1,1.4-8.7-1.1-10.1-6.2c-1.2-4.6,0.8-8,5.2-9.5
			C1085.3,513.6,1088.9,515.8,1091.1,520.3z"/>
		<path class="st2" d="M1014,696.2c0.5,5.5-2.1,9.1-7.1,9.9c-4.3,0.6-8.1-1.4-9.2-6.1c-1.2-5.2,1.3-9.1,6.2-10.2
			C1009,688.7,1012.7,691.1,1014,696.2z"/>
		<path class="st2" d="M852.3,552.7c1.1,5.2-0.7,9.2-5.8,10.5c-5,1.2-9-1.2-10.2-6.3c-1.1-4.5,1.1-8,5.5-9.4
			C846.8,545.7,850.5,547.6,852.3,552.7z"/>
		<path class="st2" d="M1018,478c0.3,5.7-1.5,9.7-6.7,10.8c-5.3,1.1-8.7-1.8-9.7-6.9c-0.8-4.5,1.3-7.8,5.9-9.1
			C1012.9,471.4,1015.8,474.3,1018,478z"/>
		<path class="st2" d="M1127.1,458.7c-5.2,0.9-9.2-1.3-10.3-6.3c-1.1-4.9,1.3-8.9,6.6-10c4.7-1,8.2,1.5,9.4,5.7
			C1134.4,453,1132.2,456.8,1127.1,458.7z"/>
		<path class="st2" d="M986.2,742.3c-5.7,0.5-9.3-1.6-10.2-6.9c-0.8-4.7,1.5-8.2,5.8-9.3c5-1.3,9,1,10.4,6.1
			C993.6,737.6,990.5,740.6,986.2,742.3z"/>
		<path class="st2" d="M963.2,422.8c5.1-0.7,9.1,1.4,10.2,6.4c1.1,5-1.4,8.8-6.7,9.9c-4.7,1-8.1-1.3-9.3-5.7
			C956,428.3,958,424.6,963.2,422.8z"/>
		<path class="st2" d="M944.4,435.1c0.9,4.9-0.8,9-5.7,10.6c-5,1.6-8.8-0.8-10.2-5.9c-1.3-4.5,0.5-8.1,4.9-9.7
			C938.3,428.4,942.1,430.3,944.4,435.1z"/>
		<path class="st2" d="M996.7,514.2c0.8,5.5-1.1,9.5-6.1,10.8c-5,1.3-8.7-1.2-10-6.4c-1.1-4.7,1-8,5.4-9.4
			C991,507.5,994.5,509.8,996.7,514.2z"/>
		<path class="st2" d="M1222.5,672.6c0.7,5.4-1.5,9.2-6.7,9.9c-5,0.7-8.9-1.9-9.7-7.2c-0.6-4.5,1.7-7.9,6.3-8.9
			C1217.8,665.2,1221.1,667.6,1222.5,672.6z"/>
		<path class="st2" d="M1023.9,384.4c0.1,5.2-1.7,9.1-6.9,10.1c-5.3,0.9-8.8-2-9.5-7.1c-0.7-4.4,1.4-7.9,6.1-9
			C1018.8,377.1,1022,379.8,1023.9,384.4z"/>
		<path class="st2" d="M926.9,401.1c5.3-0.8,9.1,1.3,10,6.4c0.8,5-1.7,8.9-6.9,9.8c-4.5,0.8-7.9-1.5-9.1-6.1
			C919.5,406,921.7,402.6,926.9,401.1z"/>
		<path class="st2" d="M693.4,656c1.3,5.9-0.5,9.9-5.5,11.1c-4.9,1.2-8.9-1.1-10.2-6.2c-1.2-4.5,1-7.9,5.3-9.5
			C688.1,649.7,691.6,651.9,693.4,656z"/>
		<path class="st2" d="M1001.2,800.4c-5.3,0.5-8.9-1.4-10-6.8c-0.9-4.7,1.3-8.3,5.6-9.4c4.9-1.4,9.1,0.8,10.5,5.9
			C1008.9,795.3,1006.1,798.7,1001.2,800.4z"/>
		<path class="st2" d="M1178.9,303.4c5.3-0.9,8.7,1.4,9.8,6.6c0.9,4.5-1,8.1-5.5,9.3c-5.1,1.4-9.1-0.9-10.5-5.8
			C1171.2,308.5,1173.8,305,1178.9,303.4z"/>
		<path class="st2" d="M958.3,370.9c0.3,5.2-1.4,9-6.8,10.1c-4.7,1-8.1-1.2-9.4-5.6c-1.5-5,0.4-9.1,5.6-10.5
			C952.9,363.6,956.2,366.4,958.3,370.9z"/>
		<path class="st2" d="M919.2,371.7c5.3-0.7,9.2,1.2,10.1,6.5c0.8,5.1-1.9,9-6.9,9.8c-4.4,0.7-7.9-1.5-9.1-6.2
			C911.9,376.5,914.3,373.3,919.2,371.7z"/>
		<path class="st2" d="M712.8,643.5c5.6-0.7,9,1.4,10,6.8c0.8,4.6-1.3,8.1-5.7,9.2c-5,1.3-9-1-10.4-6
			C705.4,648.3,708.2,645,712.8,643.5z"/>
		<path class="st2" d="M1015.8,818.6c1,5.3-1.1,8.8-6.3,10c-4.6,1-8.2-0.9-9.5-5.3c-1.5-5,0.7-9.1,5.6-10.6
			C1010.6,811.1,1014.1,813.7,1015.8,818.6z"/>
		<path class="st2" d="M1044.5,810.9c1,5.3-1,8.8-6.2,10.1c-4.5,1.1-8.1-0.8-9.5-5.2c-1.6-5,0.6-9.1,5.4-10.7
			C1039.2,803.5,1042.8,806,1044.5,810.9z"/>
		<path class="st2" d="M780.8,634.5c0.6,5.3-1.5,9.1-6.7,9.8c-4.9,0.7-8.9-1.9-9.6-7.2c-0.6-4.5,1.8-7.8,6.3-8.9
			C776.1,627,779.4,629.4,780.8,634.5z"/>
		<path class="st2" d="M809.8,626.8c0.7,5.3-1.5,9.1-6.7,9.8c-5,0.7-8.9-1.9-9.6-7.2c-0.6-4.5,1.8-7.8,6.3-8.9
			C805.1,619.3,808.4,621.7,809.8,626.8z"/>
		<path class="st2" d="M988.6,865.3c-5.1,0.9-9.1-0.8-10.2-6.1c-1-5,1.5-9,6.5-10c4.4-0.9,7.9,1.2,9.3,5.7
			C995.8,860.2,993.6,863.5,988.6,865.3z"/>
		<path class="st2" d="M1046.8,850.4c-5.1,0.9-9.2-0.6-10.5-5.9c-1.3-5.1,1.3-9.1,6.2-10.3c4.3-1.1,8,0.9,9.6,5.4
			C1053.8,844.8,1051.6,848.2,1046.8,850.4z"/>
		<path class="st2" d="M828.6,612.8c5.3-0.8,8.8,1.1,10,6.4c1,4.6-1.1,8.2-5.4,9.5c-4.9,1.5-9-0.6-10.5-5.6
			C821.2,617.9,823.8,614.6,828.6,612.8z"/>
		<path class="st2" d="M857.7,605.2c5.3-0.8,8.8,1.1,10,6.4c1,4.6-1.1,8.2-5.4,9.5c-4.9,1.5-9-0.6-10.5-5.6
			C850.2,610.3,852.8,606.9,857.7,605.2z"/>
		<path class="st2" d="M1025.8,507.3c0.4,5.1-1.6,9.1-6.7,10.1c-5.1,1-8.7-1.8-9.7-7c-0.9-4.7,1.4-7.9,5.9-9.1
			C1020.5,500.1,1024,502.3,1025.8,507.3z"/>
		<path class="st2" d="M1104.3,456.3c0.2,5.2-1.4,9.2-6.9,10.1c-5.3,0.9-9-2-9.7-7c-0.6-4.2,1.5-8,6.2-9.2
			C1099.2,448.9,1102.4,451.7,1104.3,456.3z"/>
		<path class="st2" d="M1049.3,509.8c-5.9,0.5-9.5-1.5-10.7-6.7c-1-4.7,1.1-8,5.5-9.3c5-1.5,9,0.4,10.5,5.5
			C1056.1,504.6,1052.7,507.6,1049.3,509.8z"/>
		<path class="st2" d="M1020.5,870.5c5.1-0.9,8.8,0.8,10.4,5.9c1.4,4.6-0.3,8.1-4.7,9.7c-4.9,1.8-9.1,0.3-10.9-4.7
			C1013.5,876.6,1016,872.9,1020.5,870.5z"/>
		<path class="st2" d="M983.1,580.1c0.4,5.7-1.5,9.7-6.6,10.7c-5.1,1.1-8.7-1.7-9.7-6.9c-0.9-4.6,1.3-7.9,5.9-9.1
			C977.9,573.4,981.1,576,983.1,580.1z"/>
		<path class="st2" d="M1005.8,583.3c-5.4,0.4-8.9-1.8-9.9-7c-0.9-4.6,1.3-7.9,5.8-9.1c5.1-1.3,9,0.6,10.3,5.8
			C1013.2,578.1,1010.3,581.5,1005.8,583.3z"/>
		<path class="st2" d="M1041.1,565.6c0.2,5.1-1.8,9.1-6.9,10c-5.1,0.9-8.7-2-9.5-7.2c-0.7-4.7,1.6-7.9,6.1-8.9
			C1036,558.3,1039.3,560.6,1041.1,565.6z"/>
		<path class="st2" d="M1070.1,557.9c0.2,5.1-1.8,9.1-6.9,10c-5.1,0.9-8.6-2-9.5-7.2c-0.8-4.7,1.6-7.9,6.1-8.9
			C1065,550.6,1068.4,552.9,1070.1,557.9z"/>
		<path class="st2" d="M1088.4,544.5c5.2-1.1,9.2,0.7,10.4,5.8c1.2,5-1.2,8.9-6.3,10.2c-4.5,1.1-7.9-1.1-9.4-5.5
			C1081.4,549.9,1083.4,546.3,1088.4,544.5z"/>
		<path class="st2" d="M1009.5,912.7c1.4,5.2-0.3,8.9-5.5,10.5c-4.4,1.4-8.2-0.3-9.9-4.5c-2-4.9,0.1-9.1,4.7-11
			C1003.7,905.6,1007.5,907.8,1009.5,912.7z"/>
		<path class="st2" d="M1083.5,491.5c0.8,5.1-0.7,9.2-5.8,10.7c-5.1,1.6-8.8-0.8-10.2-5.9c-1.3-4.5,0.5-8,4.9-9.6
			C1077.5,484.9,1081.1,487.1,1083.5,491.5z"/>
		<path class="st2" d="M1207.4,530.2c-5.1,0.5-9.1-1.5-10.2-6.5c-1.1-5.1,1.7-8.7,6.8-9.8c4.7-0.9,8,1.3,9.2,5.8
			C1214.6,524.7,1212.5,528.3,1207.4,530.2z"/>
		<path class="st2" d="M1236.3,522.5c-5.1,0.5-9.1-1.5-10.2-6.5c-1.1-5.1,1.6-8.7,6.8-9.8c4.7-0.9,7.9,1.3,9.2,5.8
			C1243.5,517.1,1241.4,520.6,1236.3,522.5z"/>
		<path class="st2" d="M438.3,44.3c0.9,5.3-1.3,9.2-6.3,10.2c-4.9,1-8.9-1.3-9.9-6.7c-0.9-4.7,1.5-8.2,5.7-9.4
			C432.7,37,436.5,39.2,438.3,44.3z"/>
		<path class="st2" d="M467.4,37.6c0.4,5-2.1,8.9-7.1,9.5c-4.9,0.6-8.8-1.9-9.4-7.5c-0.5-4.8,2.1-8.1,6.4-8.9
			C462.3,29.7,466,32,467.4,37.6z"/>
		<path class="st2" d="M437.7,107.4c-1.5-5.5,0.6-9.4,5.4-11c4.2-1.4,8.1,0.2,10,4.6c2.2,5.1,0,9.3-4.5,11.1
			C443.9,114.1,439.9,112,437.7,107.4z"/>
		<path class="st2" d="M472.5,88.5c5.2-0.2,9.2,1.4,10.1,6.8c0.9,5.3-2,9-6.9,9.8c-4.2,0.6-8-1.4-9.2-6.1
			C465.1,93.6,467.9,90.4,472.5,88.5z"/>
		<path class="st2" d="M1061.3,320.9c-6.2,1.8-10.2-0.4-11.7-5.2c-1.5-4.9,0.7-9,5.8-10.5c4.6-1.4,8.3,0.9,9.9,4.9
			C1067.3,315,1065.2,318.9,1061.3,320.9z"/>
		<path class="st2" d="M1026.1,312.9c5.8-1,9.7,1.2,10.8,6.2c1,4.9-1.3,8.9-6.6,9.9c-4.7,0.9-8.1-1.5-9.4-5.7
			C1019.4,318.4,1021.8,314.7,1026.1,312.9z"/>
		<path class="st2" d="M979.5,333.9c0.1,5-1.5,9.1-6.9,10.1c-5.3,1-8.8-2-9.7-7c-0.8-4.5,1.4-8,6.1-9.1
			C974.2,326.6,977.5,329.2,979.5,333.9z"/>
		<path class="st2" d="M576.7,99.5c0.7,6.1-1.6,9.5-6.7,10.6c-4.5,0.9-7.9-1.1-9.2-5.7c-1.4-5.1,0.6-9.1,5.7-10.4
			C571.5,92.7,574.9,95.6,576.7,99.5z"/>
		<path class="st2" d="M996,979.4c0.9,5.3-1.4,8.8-6.6,9.8c-4.5,0.9-8.1-1-9.4-5.5c-1.5-5.1,0.9-9.1,5.7-10.5
			C990.8,971.8,994.4,974.3,996,979.4z"/>
		<path class="st2" d="M1015.8,964.8c5.4-0.3,8.8,2.1,9.7,7.3c0.7,4.5-1.4,7.9-6.1,9c-5.2,1.2-9.1-1-10.1-6.1
			C1008.3,969.9,1011,966.4,1015.8,964.8z"/>
		<path class="st2" d="M1053.9,963c1.1,5.7-0.8,9.2-6.1,10.5c-4.6,1.1-8.2-0.8-9.6-5.1c-1.6-4.9,0.5-9.1,5.4-10.7
			C1048.7,956,1052.2,958.5,1053.9,963z"/>
		<path class="st2" d="M921.5,348.9c0.3,4.9-1.2,9-6.4,10.3c-5.3,1.3-8.8-1.5-9.9-6.5c-1-4.5,0.9-8,5.5-9.3
			C916,341.8,919.4,344.1,921.5,348.9z"/>
		<path class="st2" d="M863.7,364.5c0.2,5.1-1.6,9.1-6.9,10.1c-5.3,1-8.7-2-9.5-7.1c-0.8-4.5,1.4-7.9,6.1-9
			C858.7,357.3,861.9,359.8,863.7,364.5z"/>
		<path class="st2" d="M834.5,371.5c0.7,4.8-0.7,8.9-5.8,10.5c-5.1,1.6-8.8-0.8-10.2-5.9c-1.3-4.5,0.5-8.1,4.9-9.6
			C828.4,364.7,832,366.7,834.5,371.5z"/>
		<path class="st2" d="M1191.7,237.8c5.8-1.3,9.5,0.7,10.9,5.8c1.2,4.4-0.5,8.2-5,9.8c-5.1,1.9-9.2-0.5-10.9-5.1
			C1184.9,243.4,1187.3,239.6,1191.7,237.8z"/>
		<path class="st2" d="M605.7,92.2c0.8,5.4-1.4,8.9-6.5,10.1c-4.5,1-8-0.8-9.4-5.4c-1.5-5.1,0.4-9.1,5.4-10.6
			C600.2,85,603.8,87.6,605.7,92.2z"/>
		<path class="st2" d="M634.6,83.8c0.9,6.1-1.2,9.7-6.4,10.8c-4.5,1-8-0.8-9.4-5.4c-1.5-5.1,0.4-9.1,5.4-10.6
			C629.3,77.3,632.7,80.1,634.6,83.8z"/>
		<path class="st2" d="M534.2,172.7c1.3,5.3-0.6,9-5.6,10.5c-4.4,1.3-8.1-0.2-9.8-4.6c-2-5,0.1-9.2,4.7-11
			C528.2,165.8,532.1,168.1,534.2,172.7z"/>
		<path class="st2" d="M592,157.3c0.9,6.1-1.3,9.7-6.4,10.9c-4.4,1-8-0.7-9.4-5.4c-1.5-5.1,0.4-9.1,5.4-10.6
			C586.6,150.7,590.1,153.5,592,157.3z"/>
		<path class="st2" d="M1188.5,455.9c5.3-0.7,8.6,1.7,9.5,6.9c0.8,4.5-1.3,8.1-5.8,9.2c-5.1,1.3-9.1-1.1-10.3-6.1
			C1180.6,460.9,1183.3,457.4,1188.5,455.9z"/>
		<path class="st2" d="M875,640.6c0.3,5-1.9,9-6.9,9.8c-4.9,0.7-8.8-1.8-9.5-7.3c-0.7-4.8,1.8-8,6.2-9
			C869.9,632.9,873.5,635.2,875,640.6z"/>
		<path class="st2" d="M621.1,150.7c0.5,5.4-1.9,8.9-6.9,9.9c-4.5,0.9-7.9-1.1-9.2-5.8c-1.3-5.2,0.7-9.1,5.8-10.3
			C615.8,143.3,619.4,145.9,621.1,150.7z"/>
		<path class="st2" d="M1040.5,1028.3c1.1,5-0.2,8.8-5.5,10.4c-4.6,1.4-8.3-0.5-10-4.5c-2-4.8-0.1-9,4.6-11
			C1034.7,1021.1,1038.3,1023.5,1040.5,1028.3z"/>
		<path class="st2" d="M643.4,153c-5.4,0.4-8.8-1.8-9.6-7.1c-0.7-4.7,1.6-8.1,6-9.1c5-1.1,9.1,1.2,10.2,6.3
			C651.2,148.3,648.2,151.5,643.4,153z"/>
		<path class="st2" d="M1217.5,448.2c5.3-0.7,8.6,1.7,9.5,6.9c0.8,4.5-1.3,8.1-5.8,9.2c-5.1,1.2-9.1-1.1-10.3-6.1
			C1209.7,453.2,1212.3,449.7,1217.5,448.2z"/>
		<path class="st2" d="M892.2,272.5c-5.4,0.8-8.8-1.5-9.9-6.6c-0.9-4.5,1-8,5.6-9.3c5.2-1.5,9.1,0.8,10.4,5.7
			C899.7,267.2,897.2,270.9,892.2,272.5z"/>
		<path class="st2" d="M1019.1,1066.7c0.7,5.3-1.8,8.6-6.9,9.5c-4.5,0.8-8-1.3-9.1-5.9c-1.2-5.1,1.1-9.1,6.1-10.3
			C1014.1,1058.8,1017.6,1061.5,1019.1,1066.7z"/>
		<path class="st2" d="M1042.4,1068c-5.2,0.9-9.1-1-10.2-6.2c-1-4.9,1.5-8.9,6.7-10c4.5-0.9,8,1.4,9.2,5.8
			C1049.6,1062.7,1047.6,1066.3,1042.4,1068z"/>
		<path class="st2" d="M594,197c-5.8,0.8-9.3-1.1-10.4-6.5c-0.9-4.6,1.1-8.2,5.5-9.4c4.9-1.4,9,0.7,10.5,5.7
			C601.1,192,598.3,195.3,594,197z"/>
		<path class="st2" d="M1173.3,251.4c0.7,5.4-1.2,9.2-6.5,10.1c-5.1,0.8-9-1.9-9.8-6.9c-0.7-4.3,1.5-7.9,6.2-9
			C1168.5,244.2,1171.7,246.6,1173.3,251.4z"/>
		<path class="st2" d="M1026.2,1095.5c0.3,5.4-2.1,8.8-7.2,9.7c-4.6,0.8-7.9-1.5-8.9-6.1c-1.2-5.2,0.9-9.1,6.1-10.1
			C1021.1,1088,1024.6,1090.7,1026.2,1095.5z"/>
		<path class="st2" d="M1054.8,1087.3c0.6,5.2-1.2,8.9-6.4,10.2c-4.6,1.2-8.1-0.9-9.5-5.2c-1.6-4.9,0.1-9.1,5.2-10.7
			C1049.1,1080,1052.6,1082.8,1054.8,1087.3z"/>
		<path class="st2" d="M965.8,399c0.3,5.6-1.3,9.6-6.6,10.8c-5.3,1.1-8.8-1.6-9.8-6.7c-0.8-4.4,1.1-7.9,5.7-9.2
			C960.6,392.2,963.5,395.3,965.8,399z"/>
		<path class="st2" d="M563.3,166c0.7,5.4-1.7,8.8-6.7,9.8c-4.5,0.9-8-1-9.2-5.6c-1.4-5.2,0.8-9.1,5.7-10.4
			C558,158.5,561.6,161.1,563.3,166z"/>
		<path class="st2" d="M674.5,35.4c4.6-0.5,8,1.3,9,5.9c1.2,5.3-1.2,8.6-6.6,9.4c-4.8,0.8-7.6-1.9-8.4-6.4
			C667.6,39.5,670.2,36.8,674.5,35.4z"/>
		<path class="st2" d="M643.3,235.9c0.6,5-0.8,8.8-5.3,10.2c-4.5,1.4-8.2-0.6-9.6-5.1c-1.5-4.6,0.7-8.2,5-9.7
			C638.1,229.7,641,232.8,643.3,235.9z"/>
		<path class="st2" d="M715.7,280.7c0.4,4.6-1.3,8-6,8.7c-4.7,0.8-7.7-1.6-8.6-6.2c-0.9-4.7,1.4-8,5.9-8.8
			C711.5,273.6,714.5,276.1,715.7,280.7z"/>
		<path class="st2" d="M983.4,1083.1c-5.1,1-8.5-0.5-9.9-5.1c-1.4-4.6,0.5-8.2,4.8-9.5c4.3-1.4,7.9,0.6,9.3,5.1
			C989,1078.1,986.9,1081.3,983.4,1083.1z"/>
		<path class="st2" d="M744.4,63.7c-4.3,1.2-7.8-0.1-9.4-4.6c-1.6-4.5,0.2-8,4.6-9.6c4.4-1.5,8.1,0,9.6,4.6
			C750.6,58.5,749.2,61.9,744.4,63.7z"/>
		<path class="st2" d="M520.7,825.8c1.1,4.7-0.6,8.1-5,9.5c-4.4,1.5-8.2-0.3-9.6-4.6c-1.4-4.3,0.4-7.9,4.9-9.4
			C515.6,819.9,518.8,821.6,520.7,825.8z"/>
		<path class="st2" d="M893.7,479.2c0.4,4.4-0.7,7.6-4.9,8.9c-4.1,1.3-7.4-0.2-8.7-4.1c-1.4-4.5,0.2-8.1,5.1-9.4
			C889.5,473.5,891.8,476.4,893.7,479.2z"/>
		<path class="st2" d="M1235.4,753.5c4.3-1,7.9,0.4,9.1,5c1.3,4.6-0.8,7.9-5.5,9.1c-4.1,1.1-7.2-0.7-8.6-4.4
			C1228.9,758.8,1230.5,755.3,1235.4,753.5z"/>
		<path class="st2" d="M843.3,61.2c0.6,4.8-1.3,7.9-6.1,8.6c-4.2,0.7-7-1.5-7.8-5.5c-1.1-4.8,1.3-7.8,6-8.6
			C839.6,55,842.2,57.2,843.3,61.2z"/>
		<path class="st2" d="M549.3,818.5c0.2,4.4-0.9,7.6-5.2,8.7c-4.4,1.1-7.3-1-8.3-4.9c-1-3.9,0.6-7.2,4.9-8.4
			C545.1,812.8,547.3,815.6,549.3,818.5z"/>
		<path class="st2" d="M843.7,524.4c0,4.1-1.5,7.1-5.8,7.9c-4.4,0.8-7-1.5-7.7-5.6c-0.7-4.1,1.1-7.2,5.4-7.8
			C839.8,518.3,842.4,520.5,843.7,524.4z"/>
		<path class="st2" d="M554.5,601.1c0.9,4.3-1.2,7.1-5.1,8c-4,0.9-7.2-0.7-8.2-4.9c-0.9-4.1,1.2-7.3,5.1-8.2
			C550.2,595.1,553.3,597,554.5,601.1z"/>
		<path class="st2" d="M1180.2,892.4c4.2-0.4,7.3,1.1,8,5.4c0.7,4.1-1.3,7.3-5.4,8c-4.1,0.8-7.1-1.3-7.9-5.5
			C1173.9,896,1176.2,893.5,1180.2,892.4z"/>
		<path class="st2" d="M869.3,417.3c4.3-0.4,7.2,1.3,8.3,5.1c1.1,3.9-0.5,7.1-4.5,8.2c-4.5,1.3-8.1-0.5-8.9-5.3
			C863.6,421.5,865.7,418.7,869.3,417.3z"/>
		<path class="st2" d="M637,796.3c0.6,4.2-1.3,6.9-5.2,7.9c-3.9,1-7.1-0.5-8.2-4.7c-1.2-4.6,0.8-7.9,5.5-8.7
			C633.2,790.1,635.9,792.3,637,796.3z"/>
		<path class="st2" d="M1230.9,823.9c0.8,4.1-0.7,7.3-4.6,8.5c-4,1.2-7.2-0.6-8.4-4.6c-1.3-4.1,0.5-7.2,4.6-8.4
			C1226.4,818.2,1229.4,819.9,1230.9,823.9z"/>
		<path class="st2" d="M1244.7,696.5c-0.5-4.2,1-7.2,5.3-8c3.6-0.7,6.4,1.2,7.4,4.4c1.2,3.9-0.5,7.3-4.5,8.5
			C1248.8,702.6,1246.1,700.4,1244.7,696.5z"/>
		<path class="st2" d="M501.2,645.6c0.6,4.1-0.9,7.1-4.9,8.1c-4,1-7.1-0.8-8.1-4.8c-1-4,0.9-7.2,4.8-8.2
			C496.8,639.8,499.7,641.7,501.2,645.6z"/>
		<path class="st2" d="M776.8,46.4c0.9,4.8-0.7,8.1-4.6,9.1c-4,1.1-7.2-0.8-8.1-5c-0.8-3.5,0.6-6.2,4.1-7.5
			C772.4,41.4,774.9,43.7,776.8,46.4z"/>
		<path class="st2" d="M592.2,745.5c0.2,3.5-1.2,6.5-4.5,7.4c-3.4,0.9-6.6-0.7-7.6-4c-1.2-4,0.7-7.3,4.9-8.1
			C588.4,740.1,590.9,742.2,592.2,745.5z"/>
		<path class="st2" d="M971.1,916.8c4.3-0.8,7.3,1,8,5.1c0.7,3.9-1.1,7.2-5.4,7.9c-3.6,0.6-6.2-1.3-7.1-4.7
			C965.4,921,966.9,918.1,971.1,916.8z"/>
		<path class="st2" d="M1002.4,104.7c3.5-0.7,6.5,0.4,7.7,3.8c1.6,4.2-0.6,7.5-4.4,8.5c-3.8,1-7.3-0.7-8.1-5.2
			C997,108.2,999.1,106,1002.4,104.7z"/>
		<path class="st2" d="M1248.2,565.6c3.6-0.1,6.6,1.2,7.3,4.7c0.8,4-1,7.3-5.5,7.6c-3.4,0.2-6.1-1.6-6.5-5.3
			C1243.1,568.9,1245.1,566.8,1248.2,565.6z"/>
		<path class="st2" d="M973.3,86.8c1.1,4.9-0.6,8.1-4.4,9.2c-3.2,0.9-6.3-0.5-7.5-4c-1.4-4.1,0.5-7,4.4-8.3
			C969.3,82.6,971.5,85,973.3,86.8z"/>
		<path class="st2" d="M740.6,26.8c0.1,3.4-1.5,6.1-4.9,6.8c-3.4,0.7-6.5-1.1-7.2-4.4c-0.8-3.8,0.9-7.3,5.3-7.6
			C737.3,21.3,739.8,23.1,740.6,26.8z"/>
		<path class="st2" d="M765.2,724.1c4-0.1,7.3,1.2,8.1,5.4c0.6,3.5-1.1,6.3-4.6,7.1c-4.1,1-7.1-0.9-7.9-5.2
			C760.1,727.9,762.1,725.5,765.2,724.1z"/>
		<path class="st2" d="M641.7,701.3c0.3,3.4-0.7,6.5-4.1,7.4c-3.9,1.1-7.1-0.6-7.9-4.8c-0.7-3.5,1.3-6.2,4.6-6.9
			C637.8,696.3,640.3,698.2,641.7,701.3z"/>
		<path class="st2" d="M490.8,834.3c0.2,3.4-0.6,6.4-4,7.6c-4.1,1.5-7.1-0.5-8.2-4.4c-1-3.3,0.4-6.4,3.7-7.6
			C486.3,828.5,489,830.9,490.8,834.3z"/>
		<path class="st2" d="M1258.9,482.8c-4.5,1.2-7.4,0.1-8.7-3.3c-1.4-3.5,0.4-6.4,3.7-7.6c3.5-1.3,6.4,0.2,7.8,3.5
			C1263.2,479,1260.7,481.2,1258.9,482.8z"/>
		<path class="st2" d="M755.7,546.8c0.5,3.5-0.6,6.6-4,7.6c-3.4,1-6.4-0.6-7.5-4c-1.1-3.5,0.5-6.4,3.9-7.5
			C751.5,541.7,754.1,543.6,755.7,546.8z"/>
		<path class="st2" d="M1264.4,512.4c-3.4,0.1-6.2-1.2-6.8-4.9c-0.6-3.6,1.4-6.3,4.9-7c3.6-0.7,6.4,1.2,7,4.8
			C1270.2,508.9,1268.3,511.3,1264.4,512.4z"/>
		<path class="st2" d="M580.1,5.5c1.1,4.4-0.1,7.3-3.4,8.6c-4.1,1.6-7.3-0.6-8.3-4.5c-0.8-3.3,1-6.4,4.4-7.4
			C576.3,1.1,578.7,3.3,580.1,5.5z"/>
		<path class="st2" d="M609.2,23.3c3.5-0.8,6.2,0.4,7.5,3.7c1.3,3.4-0.1,6.3-3.3,7.6c-3.3,1.3-6.3-0.1-7.5-3.5
			C604.6,27.7,606.1,25.1,609.2,23.3z"/>
		<path class="st2" d="M681.5,759.3c-4,0.7-6.6-0.6-7.8-4.1c-1-3,0.4-5.5,3-6.7c3.2-1.4,6.2-0.5,7.7,3.1
			C685.9,755.3,683.8,757.5,681.5,759.3z"/>
		<path class="st2" d="M1265.2,257.4c0.8,4.2-0.4,6.8-3.9,7.9c-3.5,1-6.2-0.4-7.3-3.9c-1.1-3.6,0.5-6.1,3.9-7.3
			C1261.6,252.9,1263.7,255.1,1265.2,257.4z"/>
		<path class="st2" d="M483.9,155.5c-0.3-3.4,0.8-6.4,4.6-7.1c3.6-0.7,6.3,1.3,7,4.8c0.7,3.5-0.8,6.5-4.5,7.2
			C487.5,161.1,485,159.1,483.9,155.5z"/>
		<path class="st2" d="M955.2,835.1c0.5,3.6-0.7,6.3-4.4,7c-2.8,0.5-5.3-0.6-6.3-3.6c-1.3-3.6,0.2-6.3,3.5-7.5
			C951.4,829.8,953.8,831.9,955.2,835.1z"/>
		<path class="st2" d="M976.6,798.4c0.5,3.7-0.7,6.6-4.3,7.4c-3.5,0.8-6.2-1-7.1-4.5c-0.8-3.4,0.6-6.4,4.2-7.3
			C973,793.2,975.3,795.2,976.6,798.4z"/>
		<path class="st2" d="M575.7,590.1c3.1-0.5,5.3,0.9,6.1,3.7c0.9,3.4-0.4,6.3-4.1,7c-3.6,0.7-6.1-1.5-6.4-5
			C571.1,593,572.6,590.7,575.7,590.1z"/>
		<path class="st2" d="M540.3,790.1c0.5,3.5-0.4,6.4-4,7.5c-3.5,1-6.2-0.7-7.3-4.2c-1.1-3.5,0.5-6.4,3.9-7.4
			C536.4,784.8,538.8,786.9,540.3,790.1z"/>
		<path class="st2" d="M721.8,308.7c0.7,3.4-0.4,6.2-3.8,7.5c-3.4,1.4-6.4-0.1-7.7-3.2c-1.3-3.3,0.2-6.2,3.6-7.5
			C717.4,304,719.8,305.8,721.8,308.7z"/>
		<path class="st2" d="M420.5-11.4c-0.3,3.3-1.9,6-5.5,6c-3.4,0-5.9-2-6-5.8c-0.1-3.6,1.8-6.1,5.4-6.1
			C417.8-17.3,420.2-15.2,420.5-11.4z"/>
		<path class="st2" d="M1102.3,1043.6c0,3.6-1.3,6.3-5.1,6.8c-3.8,0.6-6.2-1.5-6.6-5c-0.3-2.8,1.2-5.3,4.3-6
			C1098.6,1038.7,1101,1040.3,1102.3,1043.6z"/>
		<path class="st2" d="M1127.6,1042.5c-3.8,1.2-6.6-0.1-7.8-3.4c-1.1-2.8,0.2-5.3,2.9-6.7c3.5-1.8,6.5-0.4,8,2.6
			C1132.2,1038.1,1130.6,1040.9,1127.6,1042.5z"/>
		<path class="st2" d="M1265.9,283c3.7-0.5,6.3,0.9,7.1,4.5c0.8,3.5-0.7,6.2-4.4,7c-3.5,0.7-6.2-0.7-7-4.4
			C1260.8,286.5,1262.5,284.2,1265.9,283z"/>
		<path class="st2" d="M969,770.4c0.1,3.4-1.3,6.2-4.9,6.7c-3.4,0.4-6.1-1.4-6.7-5.1c-0.5-3.6,1.2-6.4,4.7-6.9
			C965.7,764.7,968.2,766.6,969,770.4z"/>
		<path class="st2" d="M958.3,1106.9c3.4-0.4,6.2,0.9,6.9,4.4c0.7,3.5-1.1,6-4.7,6.7c-3,0.6-5.3-0.8-6.1-3.7
			C953.4,1110.8,954.8,1108.3,958.3,1106.9z"/>
	</g>
</g>
<g id="CARD-HOLDER_5_">
	<path class="st3" d="M145.5,596.3c0.5-6.3,0.8-12.6,1.6-18.8c0.6-4.6,3.6-7.4,8.1-8.3c1.6-0.3,3.2-0.8,4.9-0.9
		c17.7-1.4,22.7,3.2,22.6,20.9c-0.1,8.3-0.2,16.6-0.8,24.9c-0.5,6.4-3.7,9.7-10,10.5c-4.7,0.6-9.7,0.7-14.4,0.1
		c-6.9-0.8-9.4-3.6-10.8-10.4c-0.2-1-0.5-2-0.5-2.9c0-5,0-10,0-15C146,596.3,145.7,596.3,145.5,596.3z M155.8,596h0.1
		c0,4.5-0.2,9,0,13.5c0.2,4.9,3.9,5.7,7.8,5.6c3.7,0,8,0,8.2-5c0.5-9,0.7-18,0.5-26.9c-0.1-4.8-3.1-6.3-9.5-6
		c-5.3,0.3-7.1,1.9-7.2,6.9C155.7,588,155.8,592,155.8,596z"/>
	<path class="st3" d="M194.6,595.3c0.4-5.2,0.7-11.7,1.6-18.1c0.6-4.4,3.5-7.4,7.9-7.9c5.4-0.6,10.9-1,16.3-0.5
		c6.1,0.6,10.4,4.4,10.5,10.8c0.3,11.9,0.3,23.9-0.2,35.8c-0.2,4.6-3.3,8.2-8.2,8.8c-5.6,0.6-11.3,0.9-16.8,0.4
		c-5.7-0.5-9.4-4.1-9.9-10.1C195.2,608.5,195,602.5,194.6,595.3z M204.8,596.1h0.1c0,4.5-0.2,9,0,13.5c0.2,4.6,3.6,5.6,7.4,5.6
		c3.6,0,8.2,0.4,8.6-4.6c0.6-9.3,0.7-18.6,0.4-27.9c-0.1-4.4-3.2-5.8-9.4-5.4c-4.1,0.2-7.2,1.6-7.1,6.4
		C204.9,587.8,204.8,591.9,204.8,596.1z"/>
	<path class="st3" d="M280.9,596.8c-0.3,6-0.5,12-1.1,17.9c-0.6,5.1-3.4,9-8.7,9.5c-5.7,0.6-11.5,0.6-17.3,0.1
		c-5.2-0.5-8.8-3.9-8.9-9.2c-0.3-12.3-0.3-24.5,0.1-36.8c0.2-5.5,4.1-8.4,9.4-9.5c0.7-0.1,1.3-0.3,2-0.3c20-1.7,24.7,3,24.4,20.8
		c0,2.5,0,5,0,7.5C280.8,596.8,280.9,596.8,280.9,596.8z M253.8,596h0.1c0,4.5-0.1,9,0,13.5c0.2,4.6,3.5,5.6,7.3,5.7
		c3.6,0,8.3,0.4,8.6-4.5c0.7-9.3,0.8-18.6,0.5-27.9c-0.1-4.5-3.6-6-9.8-5.5c-4.2,0.3-6.9,2.1-6.8,6.8C253.9,588,253.8,592,253.8,596
		z"/>
	<path class="st3" d="M293.5,596.6c0.5-6.4,0.8-12.9,1.7-19.3c0.6-4.4,3.5-7,7.8-8.1c1.1-0.3,2.3-0.6,3.4-0.7
		c20-1.7,24.7,3,24.4,20.9c-0.1,8.1-0.1,16.3-0.8,24.4c-0.6,6.9-3.9,9.9-10.7,11.1c-0.8,0.1-1.6,0.2-2.5,0.3
		c-18.3,1.4-22.7-2.7-22.7-21c0-2.5,0-5,0-7.5C293.8,596.6,293.7,596.6,293.5,596.6z M303.8,596.2h0.1c0,4.5-0.2,9,0,13.5
		c0.2,4.3,3.4,5.4,7,5.5s8.4,0.5,8.9-4.2c0.8-9.4,0.8-18.9,0.5-28.4c-0.1-4.3-3.3-5.7-9.5-5.3c-4.1,0.3-7.1,1.7-7.1,6.5
		C303.9,587.8,303.8,592,303.8,596.2z"/>
	<path class="st3" d="M469.9,596.8c-0.4,6-0.5,12-1.1,17.9c-0.6,5.1-3.4,9-8.7,9.5c-5.7,0.5-11.5,0.6-17.3,0.1
		c-5.2-0.5-8.7-3.9-8.9-9.2c-0.3-12.3-0.3-24.5,0.1-36.8c0.2-5.5,4.1-8.4,9.4-9.5c0.7-0.1,1.3-0.3,2-0.3c20-1.7,24.7,3,24.4,20.9
		c0,2.5,0,5,0,7.5C469.8,596.8,469.9,596.8,469.9,596.8z M442.9,596h0.1c0,4.5-0.2,9,0,13.5c0.2,4.6,3.5,5.6,7.3,5.6
		c3.6,0,8.3,0.4,8.6-4.6c0.6-9.3,0.7-18.6,0.5-27.9c-0.1-4.5-3.1-5.8-9.4-5.5c-4.1,0.2-7.2,1.5-7.2,6.4
		C442.9,587.7,442.9,591.9,442.9,596z"/>
	<path class="st3" d="M481.6,595.1c0.4-5.1,0.7-11.4,1.5-17.6c0.6-4.6,3.6-7.3,8.2-8.3c1.5-0.3,2.9-0.7,4.4-0.9
		c17.8-1.7,23.1,3,23,20.9c-0.1,8.3-0.2,16.6-0.8,24.9c-0.5,6.4-3.7,9.7-10.1,10.5c-4.7,0.6-9.7,0.7-14.4,0.1
		c-6.8-0.8-9.7-3.6-10.7-10.5C481.9,608.3,482,602.3,481.6,595.1z M491.9,595.8L491.9,595.8c0.1,4.5,0,9,0.1,13.5s3.3,5.8,7.1,5.9
		c3.6,0,8.4,0.5,8.8-4.3c0.7-9.4,0.8-18.9,0.5-28.4c-0.1-4.2-3.4-5.7-9.6-5.2c-4.2,0.3-7,1.8-6.9,6.6
		C491.9,587.8,491.9,591.8,491.9,595.8z"/>
	<path class="st3" d="M530.6,596.7c0.5-6.3,0.8-12.6,1.5-18.8c0.6-5.1,3.9-7.9,8.8-8.9c1.1-0.2,2.3-0.5,3.4-0.7
		c18-2,23.5,2.9,23.4,20.9c0,8.1-0.1,16.3-0.8,24.4c-0.6,7-3.8,9.9-10.7,11.1c-0.2,0-0.3,0-0.5,0.1c-22,1.8-25-3.1-24.8-21.1
		c0-2.3,0-4.7,0-7C530.9,596.7,530.7,596.7,530.6,596.7z M540.9,596.1L540.9,596.1c0.1,4.5-0.1,9,0.1,13.5c0.2,4.6,3.6,5.5,7.4,5.5
		c3.6,0,8.2,0.3,8.5-4.7c0.6-9.3,0.7-18.6,0.4-27.9c-0.1-4.4-3.2-5.8-9.4-5.4c-4.1,0.2-7.2,1.6-7.1,6.5
		C540.9,587.8,540.9,592,540.9,596.1z"/>
	<path class="st3" d="M580.6,596.4c0.5-6.3,0.8-12.6,1.6-18.8c0.6-4.6,3.5-7.4,8.1-8.4c0.8-0.2,1.6-0.5,2.4-0.6
		c20.9-2,25.5,2.9,25.1,21c-0.2,8.1-0.2,16.3-0.8,24.4c-0.5,6.5-3.7,9.4-10,10.7c-0.3,0.1-0.7,0.1-1,0.1c-22.2,1.9-25.2-3-24.9-21
		c0-2.5,0-5,0-7.5C580.9,596.4,580.7,596.4,580.6,596.4z M590.9,596L590.9,596c0.1,4.5-0.1,9,0.1,13.5c0.2,4.6,3.6,5.6,7.3,5.6
		c3.6,0,8.2,0.4,8.6-4.6c0.6-9.3,0.7-18.6,0.5-27.9c-0.1-4.4-3.2-5.8-9.4-5.5c-4.1,0.2-7.2,1.5-7.2,6.4
		C590.9,587.7,590.9,591.9,590.9,596z"/>
	<path class="st3" d="M722.5,596.6c0.5-6.4,0.8-12.9,1.7-19.3c0.6-4.4,3.5-7,7.8-8.1c1.1-0.3,2.3-0.6,3.4-0.7
		c20-1.7,24.7,3,24.4,20.9c-0.1,8.1-0.1,16.3-0.8,24.4c-0.6,6.9-3.9,9.9-10.7,11.1c-0.8,0.1-1.6,0.2-2.5,0.3
		c-18.3,1.4-22.7-2.7-22.7-21c0-2.5,0-5,0-7.5C722.9,596.6,722.7,596.6,722.5,596.6z M749.2,596.9L749.2,596.9c0.1-5,0.5-10,0-14.9
		c-0.6-5.3-5.2-4.7-8.9-4.7c-3.5,0-7.2,0.8-7.3,5.1c-0.3,9.2-0.3,18.3,0.1,27.5c0.2,5.2,4.5,5.5,8.5,5.4c3.9-0.1,7.5-0.8,7.6-5.8
		C749.3,605.2,749.2,601,749.2,596.9z"/>
	<path class="st3" d="M771.6,596.4c0.5-6.3,0.8-12.6,1.6-18.8c0.6-4.8,3.7-7.6,8.5-8.5c0.6-0.1,1.3-0.5,1.9-0.5
		c20.9-2.1,25.6,2.8,25.2,20.9c-0.2,8.1-0.2,16.3-0.8,24.4c-0.5,6.5-3.6,9.4-9.9,10.8c-0.5,0.1-1,0.2-1.5,0.2
		c-21.6,1.7-24.7-3.1-24.5-20.9c0-2.5,0-5,0-7.5C771.9,596.5,771.7,596.5,771.6,596.4z M781.9,596.1L781.9,596.1
		c0.1,4.5-0.1,9,0.1,13.5c0.2,4.6,3.6,5.5,7.4,5.5c3.6,0,8.2,0.3,8.5-4.7c0.6-9.3,0.7-18.6,0.4-27.9c-0.1-4.4-3.2-5.8-9.4-5.4
		c-4.1,0.2-7.2,1.6-7.1,6.5C781.9,587.8,781.9,591.9,781.9,596.1z"/>
	<path class="st3" d="M820.6,596.6c0.5-6.3,0.8-12.6,1.5-18.8c0.6-5.1,3.9-7.9,8.8-8.8c1-0.2,1.9-0.5,2.9-0.6
		c18.1-2.3,24,2.8,23.9,20.9c0,8.1-0.1,16.3-0.8,24.4c-0.6,6.9-3.9,9.9-10.7,11.1c-0.3,0.1-0.7,0.1-1,0.1
		c-21.1,1.5-24.4-3-24.2-20.8c0-2.5,0-5,0-7.5C820.9,596.7,820.7,596.7,820.6,596.6z M830.9,595.9L830.9,595.9c0.1,4.5,0,9,0.1,13.5
		c0.2,4.6,3.4,5.7,7.2,5.7c3.6,0,8.3,0.4,8.7-4.5c0.7-9.3,0.8-18.6,0.5-27.9c-0.1-4.5-3.5-6.1-9.8-5.6c-4.2,0.3-6.9,2-6.8,6.8
		C830.9,587.9,830.9,591.9,830.9,595.9z"/>
	<path class="st3" d="M870.6,596.6c0.5-6.3,0.8-12.6,1.5-18.8c0.6-5.1,3.9-7.9,8.8-8.8c1-0.2,1.9-0.5,2.9-0.6
		c18.1-2.4,24,2.7,23.9,20.9c0,8.1-0.1,16.3-0.8,24.4c-0.6,6.9-3.8,9.9-10.7,11.1c-0.3,0.1-0.7,0.1-1,0.1
		c-21.1,1.5-24.4-3-24.2-20.8c0-2.5,0-5,0-7.5C870.9,596.7,870.7,596.7,870.6,596.6z M880.9,596.1L880.9,596.1
		c0.1,4.5-0.1,9,0.1,13.5c0.2,4.6,3.6,5.6,7.4,5.6c3.6,0,8.2,0.4,8.6-4.6c0.6-9.3,0.7-18.6,0.5-27.9c-0.1-4.4-3.2-5.8-9.4-5.4
		c-4.1,0.2-7.2,1.6-7.1,6.4C880.9,587.7,880.9,591.9,880.9,596.1z"/>
	<path class="st3" d="M984.6,596.4c0.5-6.3,0.8-12.6,1.6-18.8c0.6-4.8,3.7-7.6,8.5-8.5c0.6-0.1,1.3-0.5,1.9-0.5
		c20.9-2.1,25.6,2.8,25.2,20.9c-0.2,8.1-0.2,16.3-0.8,24.4c-0.5,6.5-3.6,9.4-9.9,10.8c-0.5,0.1-1,0.2-1.5,0.2
		c-21.6,1.7-24.7-3.1-24.5-20.9c0-2.5,0-5,0-7.5C984.9,596.5,984.7,596.5,984.6,596.4z M994.9,596.2L994.9,596.2
		c0.1,4.5-0.1,9,0.1,13.5c0.2,4.3,3.3,5.4,6.9,5.5c3.6,0.1,8.5,0.5,8.9-4.2c0.8-9.4,0.8-18.9,0.5-28.4c-0.1-4.3-3.3-5.7-9.5-5.3
		c-4.1,0.3-7.1,1.7-7.1,6.5C994.9,587.8,994.9,592,994.9,596.2z"/>
	<path class="st3" d="M1033.7,595.4c0.4-5.3,0.7-11.6,1.5-17.8c0.6-4.8,3.7-7.9,8.5-8.4c5.2-0.5,10.6-0.9,15.8-0.4
		c6.1,0.6,10.3,4.5,10.4,10.8c0.3,11.9,0.2,23.9-0.3,35.8c-0.2,4.6-3.4,8.2-8.3,8.7c-5.6,0.6-11.3,0.9-16.8,0.4
		c-5.7-0.5-9.4-4.2-9.8-10.2C1034.3,608.4,1034.1,602.4,1033.7,595.4z M1043.9,596.1L1043.9,596.1c0.1,4.5-0.1,9,0.1,13.5
		c0.2,4.6,3.6,5.6,7.4,5.6c3.6,0,8.2,0.4,8.6-4.6c0.6-9.3,0.7-18.6,0.5-27.9c-0.1-4.4-3.2-5.8-9.4-5.4c-4.1,0.2-7.2,1.5-7.2,6.4
		C1043.9,587.7,1043.9,591.9,1043.9,596.1z"/>
	<path class="st3" d="M1082.6,596.2c0.5-6.1,0.8-12.3,1.5-18.3c0.6-5.1,3.9-7.9,8.8-8.9c1-0.2,1.9-0.5,2.9-0.6
		c18.1-2.4,24,2.7,23.9,20.9c0,8.1-0.1,16.3-0.8,24.4c-0.6,7-3.8,9.9-10.7,11.1c-0.8,0.1-1.6,0.2-2.5,0.3
		c-18.3,1.4-22.7-2.7-22.8-20.9c0-2.7,0-5.3,0-8C1082.9,596.2,1082.7,596.2,1082.6,596.2z M1109.3,596.5L1109.3,596.5
		c0-5,0.5-10-0.1-14.9c-0.7-5.3-5.5-4.4-9.2-4.4c-3.5,0-6.9,1-7,5.4c-0.2,9-0.2,18,0.1,27c0.2,4.4,2.9,5.8,8.8,5.6
		c4-0.1,7.3-1.2,7.3-6.1C1109.3,604.9,1109.3,600.7,1109.3,596.5z"/>
	<path class="st3" d="M1132.7,595.1c0.4-5.1,0.7-11.4,1.5-17.6c0.6-4.6,3.6-7.3,8.2-8.3c1.5-0.3,2.9-0.7,4.4-0.9
		c17.8-1.7,23.1,3,23,20.9c-0.1,8.3-0.2,16.6-0.8,24.9c-0.5,6.4-3.7,9.7-10.1,10.5c-4.7,0.6-9.7,0.7-14.4,0.1
		c-6.8-0.8-9.7-3.6-10.7-10.5C1133,608.3,1133.1,602.3,1132.7,595.1z M1142.9,595.9L1142.9,595.9c0.1,4.5,0,9,0.1,13.5
		c0.2,4.6,3.4,5.7,7.2,5.7c3.6,0,8.3,0.4,8.7-4.5c0.7-9.3,0.8-18.6,0.5-27.9c-0.1-4.5-3.5-6.1-9.8-5.6c-4.2,0.3-6.9,2-6.8,6.8
		C1143,587.9,1142.9,591.9,1142.9,595.9z"/>
	<path class="st3" d="M350.3,746c3.7,0,6,0,9.4,0c-0.6-3.6-0.9-7-1.8-10.1c-1.2-4-0.4-5.6,3.8-5.7c1.5,0,3-0.1,4.5,0.1
		c3.2,0.5,3.9,2.3,3,5.4c-2.8,10.2-2.5,20.5-0.1,30.7c0.9,3.7-0.2,5.6-4.2,5.9c-7.4,0.5-8-0.6-6-7.5c0.9-3,0.1-6.5,0.1-10.7
		c-2.6,0.3-6.9,0.1-7.2,1.1c-0.9,3-0.3,6.4-0.2,9.7c0,2.2,0.2,4.5,0.3,6.7c-3.1,0-6.2,0.3-9.2,0c-0.6-0.1-1.5-2.5-1.4-3.8
		c0.5-7.2,1.5-14.3,1.7-21.5c0.1-3.6-1.1-7.3-1.7-11c-0.5-2.6-0.1-4.7,3.2-5c1.5-0.1,3-0.1,4.5-0.1c4.1,0.1,5,1.9,3.7,5.8
		C351.5,739,351.1,742.2,350.3,746z"/>
	<path class="st3" d="M231.2,755.1c0.5,4.4,1.2,8.1,1.3,11.8c0.1,1.6-0.6,4.4-1.4,4.6c-2.6,0.6-5.5,0.4-8.2-0.1
		c-0.5-0.1-0.6-3.2-0.6-4.9c0-10.1,0.4-20.3-0.2-30.4c-0.2-4-0.1-5.7,4-5.9c3.2-0.1,6.3-0.1,9.5,0c6.3,0.1,10.6,2.7,12.3,7.6
		c1.8,5.5,1.2,10.5-3.6,14.4c-0.4,0.3-0.6,0.8-1.2,1.6c2.2,4.1,4.6,8.2,6.6,12.6c0.6,1.4,0.5,4.8,0.1,4.8c-2.7,0.6-5.5,0.8-8.2,0.6
		c-0.6-0.1-1.5-2.3-1.6-3.5C239.8,762.2,236.6,756.5,231.2,755.1z M231.4,746.9c4.6,0.5,8.7,0.7,9.1-4.3c0.3-3.4-2.9-4.8-5.9-4.4
		C228.8,739.2,232.8,743.7,231.4,746.9z"/>
	<path class="st3" d="M540.3,755.1c0.4,4.2,1,7.8,1.1,11.3c0,1.7-0.5,4.8-1.3,5c-2.6,0.6-5.5,0.4-8.2-0.1c-0.5-0.1-0.6-3.2-0.6-4.9
		c-0.1-10.1,0.4-20.3-0.2-30.4c-0.2-4-0.1-5.7,4.1-5.8c3.2-0.1,6.3-0.1,9.5,0c6.3,0.1,10.6,2.7,12.2,7.7c1.8,5.5,1.2,10.5-3.6,14.4
		c-0.4,0.3-0.6,0.8-1.1,1.6c2.2,4.1,4.6,8.2,6.6,12.6c0.6,1.4,0.4,4.8,0.1,4.8c-2.7,0.6-5.5,0.8-8.2,0.5c-0.6-0.1-1.5-2.3-1.5-3.6
		C548.8,762.1,545.6,756.4,540.3,755.1z M540.4,747c4.6,0.2,8.7,0.6,9.1-4.5c0.2-3.4-2.9-4.8-5.9-4.3
		C537.9,739.2,541.8,743.7,540.4,747z"/>
	<path class="st3" d="M464.5,772.2c-1.5,0-3,0.1-4.5,0c-4.6-0.2-5.4-1.6-3.8-5.9c0.8-2.1,1-4.5,1-6.8c0.1-6,0.1-12,0-18
		c0-1.8-0.3-3.7-0.9-5.3c-1.8-4.5-0.9-5.8,4-6c18.9-0.7,26.5,8.1,22.8,26.7C480.9,768.6,476.5,772.2,464.5,772.2z M465.7,738.6
		c0,8.7,0,17,0,25.3c7.3,0.2,10.1-4,10-13.9C475.7,741.4,472.9,738.2,465.7,738.6z"/>
	<path class="st3" d="M269.5,772.2c-1.5,0-3,0.1-4.5,0c-4.6-0.2-5.4-1.6-3.8-5.9c0.8-2.1,1-4.5,1.1-6.7c0.1-6.2,0.1-12.3,0-18.5
		c0-1.6-0.3-3.3-0.9-4.8c-1.8-4.5-1-5.9,4-6.1c19.1-0.7,26.6,8.2,22.8,27.2C285.8,768.7,281.4,772.2,269.5,772.2z M270.6,765.5
		c3.3-1.9,6.6-2.7,7.7-4.7c3.2-6.1,3.8-12.8,0.4-19c-1.2-2.1-4.8-2.9-8.1-4.8C270.6,747,270.6,755.4,270.6,765.5z"/>
	<path class="st3" d="M1144.9,751.7c0.3-4.5,0.6-8.8,1-13.1c0.1-1.1,0.3-2.4,0.9-3.3c3.8-6.5,10.3-5.1,16.1-5
		c4.6,0.1,9.3,1.8,9.7,6.9c0.6,9.7,0.1,19.6,0.1,29.3c0,0.3-0.2,0.6-0.3,0.9c-3.7,7.3-10.6,5.7-16.7,5.5c-4.8-0.1-9-1.9-9.6-7.5
		C1145.5,760.9,1145.2,756.2,1144.9,751.7z M1153,751.2c0,3.2,0,6.3,0,9.5c0,3.8,2,5.4,5.6,5.5s6.9-0.3,7-5c0.2-6.3,0.4-12.6,0.3-19
		c-0.1-4.5-3.4-5.1-7-5.1c-3.7,0-6.1,1.4-5.9,5.6C1153,745.6,1152.9,748.4,1153,751.2z"/>
	<path class="st3" d="M1107.9,751.9c0.3-4.6,0.6-9,1.1-13.5c0.1-1.1,0.4-2.4,1-3.3c4.1-6.5,10.7-5,16.7-4.7c4.7,0.2,8.9,2.4,9.2,7.5
		c0.4,9.4,0.1,18.9,0,28.4c0,0.6-0.3,1.3-0.7,1.9c-4.2,6.9-11,5-17.1,4.9c-4.7-0.1-8.4-2.3-9-7.6
		C1108.5,760.9,1108.2,756.4,1107.9,751.9z M1115.9,751.5c0,3,0,6,0,9c-0.1,4,2,5.7,5.9,5.7c3.7,0.1,6.7-0.7,6.8-5.2
		c0.1-6,0.3-12,0.3-18c0.1-4.6-2.7-5.9-6.9-5.9c-4.4,0-6.5,1.8-6.2,6.3C1116.1,746.1,1115.9,748.8,1115.9,751.5z"/>
	<path class="st3" d="M1037.9,751.9c0.3-4.6,0.6-8.9,1-13.2c0.1-1.1,0.3-2.4,0.9-3.4c3.7-6.6,10.2-5.2,16-5.1
		c4.8,0.1,9.6,1.9,9.9,7.3c0.5,9.6,0.1,19.2,0,28.9c0,0.3-0.2,0.6-0.3,0.9c-3.5,7.2-10.2,5.8-16.2,5.7c-6.2-0.1-9.3-2.4-10.1-7.5
		C1038.3,761,1038.2,756.3,1037.9,751.9z M1045.9,751.3c0,3,0.1,6,0,9c-0.1,3.9,1.8,5.8,5.7,5.9c4,0.1,7-0.8,7.1-5.5
		c0.1-5.7,0.3-11.3,0.3-17c0-5.2-1.8-6.6-7.2-6.5c-4.6,0-6.2,2.3-5.9,6.6C1046.1,746.3,1045.9,748.8,1045.9,751.3z"/>
	<path class="st3" d="M1029.9,750.3c-0.3,5.5-0.5,9.5-0.8,13.5c-0.1,1.2-0.2,2.4-0.7,3.4c-3.3,7.4-10,6-16,6
		c-6.3-0.1-10-2.3-10.3-7.3c-0.6-9.4-0.2-18.9-0.1-28.3c0-0.8,0.4-1.7,0.8-2.3c3.9-6.4,10.4-5,16.2-4.8c4.8,0.1,9,2.1,9.8,7.5
		C1029.5,742.4,1029.6,747.1,1029.9,750.3z M1008.9,751c0,3.2,0,6.3,0,9.5c-0.1,4,2.1,5.7,5.9,5.7c3.7,0.1,6.7-0.7,6.8-5.2
		c0.1-6,0.3-12,0.3-18c0.1-4.6-2.8-5.9-6.9-5.8c-4.4,0-6.5,1.8-6.2,6.4C1009.1,746,1008.9,748.5,1008.9,751z"/>
	<path class="st3" d="M408.9,750.9c-1.1,5-1.6,9.6-3.2,14c-1.9,5.2-5.9,8.3-11.8,8.4c-5.9,0.1-9.9-2.7-12.2-7.8
		c-4.2-9.5-4-19.1-0.1-28.6c2.1-5.1,6.1-7.7,11.8-7.6c5.6,0,9.9,2.5,11.8,7.6C406.9,741.3,407.7,746.2,408.9,750.9z M400.2,751.5
		c-0.6-3.4-0.7-7-1.9-10.2c-0.6-1.7-2.9-3.6-4.6-3.7c-1.6-0.1-4.2,1.7-4.8,3.2c-2.7,6.9-3,14,0,20.9c0.7,1.6,3.2,3.4,4.8,3.3
		c1.6-0.1,4-2,4.6-3.6C399.5,758.2,399.6,754.8,400.2,751.5z"/>
	<path class="st3" d="M503.9,754.1c0,3.5,0,6.6,0,10.7c3.9-0.7,7.4-1.5,10.9-2c1.5-0.2,4.2-0.3,4.5,0.4c0.9,2,1.2,4.5,0.9,6.6
		c-0.1,1-2.4,2.2-3.7,2.3c-6,0.2-12,0.2-18,0.1c-3.9-0.1-4.6-2.2-3.8-5.7c2.3-10.2,2.8-20.5-0.2-30.7c-0.8-2.8-0.4-5.3,3-5.5
		c6.6-0.3,13.3-0.2,20,0c1.1,0,2.9,1.6,2.9,2.5c0.1,2.2-0.4,4.5-1.2,6.6c-0.2,0.4-2.6,0.1-4,0c-3.7-0.5-7.3-1.1-11.3-1.7
		c0,3.2,0,5.5,0,8.4c1.9-0.2,3.8-0.6,5.6-0.5c1.8,0.1,4.8,0.6,5,1.4c0.5,2.6-0.1,5.3-0.2,8c-1.8-0.1-3.6-0.2-5.3-0.4
		C507.4,754.6,505.9,754.3,503.9,754.1z"/>
	<path class="st3" d="M201.3,762.5c-7.5-0.6-7.4-0.6-7.8,6c-0.1,1.2-1.4,3.1-2.3,3.2c-2.4,0.3-4.9-0.1-7.2-0.8
		c-0.5-0.2-0.7-2.9-0.4-4.3c2.3-8.5,4.9-16.9,7.2-25.3c0.5-1.7,0.7-3.7,0.4-5.4c-0.3-2.3-1.8-5.2,1.5-5.7c3.2-0.6,6.7,0.2,10,0.6
		c0.5,0.1,1,1.7,1,2.5c-0.1,11.6,3.6,22.4,7.2,33.2c0.5,1.6,0.2,5.1-0.3,5.2c-2.7,0.6-5.7,0.8-8.5,0.4c-0.6-0.1-1.1-2.9-1.3-4.5
		C200.9,765.9,201.2,764.2,201.3,762.5z M199.6,754.9c-0.7-3.9-1.3-7.4-1.9-10.9c-0.3,0-0.5-0.1-0.8-0.1c-0.8,3.6-1.5,7.2-2.3,11
		C196.6,754.9,198,754.9,199.6,754.9z"/>
	<path class="st3" d="M165.1,757.8c3,0.5,6,0.9,9,1.4c-0.9,2.7-1.5,5.6-2.8,8.1c-4.5,8.3-17.6,8.3-21.8-0.4
		c-5.1-10.4-5.2-21.3,0.6-31.6c3-5.4,8.4-6.8,14.3-6c5.9,0.8,7.9,5.6,9.9,10.2c0.3,0.7-1.4,3.3-2.2,3.3c-3.2,0.1-7.6,2.3-8.1-4
		c-0.2-2.4-4.3-2.1-6.5,0.4c-3.3,3.9-3.8,19.8-0.5,23.5c1.1,1.3,4.1,2.6,5,2c1.6-1.1,2.3-3.5,3.4-5.4
		C165.2,758.9,165.2,758.3,165.1,757.8z"/>
	<path class="st3" d="M427.8,764.8c4.2-0.8,7.5-1.5,10.8-1.9c1.6-0.2,4.4-0.1,4.8,0.7c0.9,1.9,1.1,4.5,0.6,6.6
		c-0.2,0.9-2.5,1.9-3.9,2c-5.6,0.2-11.3,0.2-17,0.1c-4.4-0.1-5.2-1.9-4.3-6c2.2-10,2.4-20.2-0.2-30.3c-0.4-1.5,0.3-4.6,0.9-4.7
		c2.8-0.6,5.8-0.6,8.6-0.2c0.6,0.1,1.4,2.8,1.3,4.2c-0.4,4.2-1.4,8.3-1.7,12.5C427.6,752.8,427.8,758.1,427.8,764.8z"/>
	<path class="st3" d="M1078.6,775.2c-4.6-0.1-5.7-2.6-3.9-6.5c4-8.8,8-17.5,12-26.2c1.4-3,2.7-6.1,3.9-9.2c1-2.7,3-4.5,5.6-3
		c1.2,0.7,2.1,4,1.5,5.5c-5.1,12.2-10.5,24.3-16,36.4C1080.8,773.6,1079.2,774.6,1078.6,775.2z"/>
</g>
<g>
	<path class="st4" d="M144.6,474.6c0-1.6,0.2-2.9,0.7-4.2l9.8,1.4c-0.2,0.6-0.4,1.3-0.4,2.1c0,3.4,2.8,5.6,7,5.6
		c3.9,0,6.8-2.1,6.8-6c0-3.8-2.9-6.2-7-6.2h-5.1v-10.4h-11v-7.5h11v-5.1h10.1v5.1h11v7.5h-11v3.9c7.4,0.9,12.2,5.7,12.2,13.2
		c0,8-7.4,13.7-17.2,13.7C151.2,487.7,144.6,481.7,144.6,474.6z"/>
	<path class="st4" d="M182.6,472.7c0-3.9,1.1-6.8,2.4-9l9.3,2.7c-0.7,1.4-1.4,3.3-1.4,5.9c0,3.8,2.6,7,6.5,7c3.7,0,6.5-2.7,6.5-7.2
		c0-10.6-12.3-11.6-12-27.4H204c0,10.6,12.2,14.1,12.2,27.9c0,9.1-7.2,15.3-16.9,15.3C189.2,487.7,182.6,480.8,182.6,472.7z"/>
	<path class="st4" d="M220.8,471.9v-14.4c0-8.7,5.8-13,14.1-13h17.3v8h-16c-3.3,0-5.1,1.4-5.1,4.9v4.7h0.2c2-2.3,5.8-3.7,9.4-3.7
		c9.1,0,14.8,6.7,14.8,14.6c0,7.4-5.8,14.8-17.2,14.8C227.6,487.7,220.8,481.2,220.8,471.9z M245,472.7c0-3.7-2.6-6.5-7.1-6.5
		c-4.2,0-7.2,2.7-7.2,6.5c0,3.6,2.9,6.5,7.2,6.5C242.4,479.2,245,476.3,245,472.7z"/>
	<path class="st4" d="M289.9,487.7c-2.4-4-8.4-5.3-14.3-5.3h-11.8v-6.7h6.4v-0.2c-6.5-2-12.2-7.6-12.2-16.8
		c0-10.5,6.2-15.3,13.1-15.3c4.9,0,8.6,2.3,10.2,5.9h0.2c1.5-3.4,5.9-5.9,11.3-5.9c8.3,0,14.9,5.5,14.9,13.8c0,8.6-7,13.9-15.4,13.9
		c-8.3,0-15.3-5.2-15.3-12.9v-1.1c0-3.4-1.8-5-4-5c-2.9,0-4.6,2.3-4.6,7.1c0,8.4,6.3,12.6,13.1,14.3c8.2,2.1,13.8,4,16.7,10.2
		L289.9,487.7z M298.1,457.4c0-3.4-2.3-5.9-5.8-5.9s-5.7,2.6-5.7,5.9c0,3.4,2.2,5.9,5.7,5.9C295.8,463.3,298.1,460.8,298.1,457.4z"
		/>
	<path class="st4" d="M309.7,472.7c0-3.9,1.1-6.8,2.4-9l9.3,2.7c-0.7,1.4-1.4,3.3-1.4,5.9c0,3.8,2.6,7,6.5,7c3.7,0,6.5-2.7,6.5-7.2
		c0-10.6-12.3-11.6-12-27.4h10.2c0,10.6,12.2,14.1,12.2,27.9c0,9.1-7.2,15.3-16.9,15.3C316.2,487.7,309.7,480.8,309.7,472.7z"/>
	<path class="st4" d="M347,464.1c0-9.6,3.8-17.1,7-20.7l9.2,2.5c-2.9,4.5-5.8,10.6-5.8,18.2c0,11.1,5.9,15.2,11.5,15.2
		c4.5,0,7.5-2.1,7.5-5.4c0-3.9-3.1-5.6-6.5-5.6h-4.2v-7.8h5.2c2.8,0,4.3-1.2,4.3-3.3c0-4.5-6.9-4.3-6.5-12.6H379
		c0.4,4.6,6.5,5.3,6.5,12c0,3.6-2.6,6.3-6.2,7.2v0.2c3.8,1.2,7.3,4.6,7.3,10.7c0,7.5-7.4,13.1-17.8,13.1
		C355.2,487.7,347,477.6,347,464.1z"/>
	<path class="st4" d="M390.7,474c0-1.7,0.2-3.1,0.8-4.6l9.7,1.5c-0.2,0.7-0.3,1.4-0.3,2.2c0,3.7,3.1,6.1,7.1,6.1
		c3.7,0,6.7-2.1,6.7-5.6c0-3.5-2.9-5.4-6.3-5.4h-2.2v-7.5h2.2c3,0,5.4-1.3,5.4-4.5c0-3-2.6-4.8-5.8-4.8c-3.4,0-5.9,1.9-5.9,4.8
		c0,0.5,0.1,1,0.2,1.4l-10.2,1.1c-0.3-1.1-0.4-2.3-0.4-3.4c0-6.8,7.2-12.1,16.2-12.1c9,0,16.2,5.3,16.2,12.1c0,4.2-2.7,7.2-6.3,8.5
		v0.2c3.8,1.2,7.2,4.6,7.2,10.3c0,7.5-7.4,13.2-17.1,13.2C396.9,487.7,390.7,481,390.7,474z"/>
	<path class="st4" d="M434.3,487.7c-2.6-4.7-4.8-11.2-4.8-18.7v-9.2c0-10.5,7.5-16.5,16.6-16.5c9.1,0,16.6,6,16.6,16.5v9.3
		c0,7.4-2.1,13.9-4.8,18.6l-9.2-2.7c2.2-4.9,3.6-10.3,3.6-16v-9c0-5.2-2.6-8.3-6.3-8.3c-3.9,0-6.4,3-6.4,8.3v9
		c0,5.7,1.4,11.1,3.6,16L434.3,487.7z"/>
	<path class="st4" d="M469,471.2v-26.7h10.2v27.3c0,4.7,3.1,7.4,7,7.4c3.9,0,6.7-2.4,6.7-6.2c0-5.9-5.5-6.8-5.2-15.7h10.3
		c0.1,6.3,5.4,7.7,5.4,16.2c0,7.4-6.8,14.3-17.1,14.3C476.5,487.7,469,482,469,471.2z"/>
	<path class="st4" d="M542.8,458.9c8.6,1.5,12.3,8.3,12.3,14.2c0,6.9-5.5,14.5-16,14.5c-10.7,0-16-7.8-16-14.5
		c0-6.2,4.8-13.3,13.7-14.4v-1.9c0-6.9-7.1-3.9-7.1-12.4h6c0.2,5.2,7.1,3.9,7.1,12.1V458.9z M549,473.1c0-5.5-4-9.6-9.9-9.6
		c-6.1,0-10,4-10,9.6c0,5.5,3.9,9.5,10,9.5C545,482.6,549,478.6,549,473.1z"/>
	<path class="st4" d="M559.8,473.5c0-4,1.1-6.8,2.3-8.6l5.4,1.8c-0.7,1.2-1.6,3.6-1.6,6.8c0,4.9,3.7,9.1,9.1,9.1
		c5,0,8.8-3.9,8.8-9.7c0-12.1-13-13.7-13-28.4h5.9c0,11.3,13.2,15.4,13.2,28.8c0,8.3-6.5,14.4-15.1,14.4
		C565.1,487.6,559.8,480.2,559.8,473.5z"/>
	<path class="st4" d="M600.4,487.6c-3.9-4.7-5.6-10.6-5.6-18.7c0-12.1,6.2-18.7,16-20.7l5.2-1.1c3-0.6,5.5-1.2,7.4-3.7l5,2
		c-1.6,4.5-5.9,5.8-10,6.6l-6.7,1.3c-5.6,1.1-11.4,4.8-12.4,10.9h0.2c1.7-3.8,5.5-5.5,8.7-5.5c5.3,0,8.1,3.5,9.1,6.7h0.2
		c1-3.2,4.8-6.7,10-6.7c6.5,0,12.3,4.9,12.3,13.4c0,7.2-2.7,12.2-5.5,15.4l-5.2-2c2.4-3.5,4.6-7.4,4.6-13.5c0-6.2-3-8.4-6.7-8.4
		c-3.4,0-6.7,2.7-6.7,8v7.8h-5.9v-7.8c0-5.3-2.4-8-6.2-8c-3.6,0-7.2,2.7-7.2,8.3c0,6.4,2.2,10.2,4.6,13.6L600.4,487.6z"/>
	<path class="st4" d="M644.5,473.5c0-4,1.1-6.8,2.3-8.6l5.4,1.8c-0.7,1.2-1.6,3.6-1.6,6.8c0,4.9,3.7,9.1,9.1,9.1
		c5,0,8.8-3.9,8.8-9.7c0-12.1-13-13.7-13-28.4h5.9c0,11.3,13.2,15.4,13.2,28.8c0,8.3-6.5,14.4-15.1,14.4
		C649.9,487.6,644.5,480.2,644.5,473.5z"/>
	<path class="st4" d="M680.1,471.9v-12.8c0-9.7,6.5-15.7,14.6-15.7c5.1,0,10,2.3,12.1,7.2h0.2c1.9-5.1,5.9-7.2,10.7-7.2
		c7.8,0,12.2,6,12.2,15.4v10.3c0,7.5-2.9,14.8-6.2,18.5l-5.1-2.4c3-4,5.1-10.4,5.1-16.8v-9.2c0-6.6-2.1-10.9-6.8-10.9
		c-5.1,0-6.9,4.3-6.9,10.6v12.9c0,9.7-6.6,15.7-15,15.7S680.1,481.6,680.1,471.9z M704,471.4v-11.8c0-6.9-3.3-11.2-8.9-11.2
		c-5.2,0-8.9,4.3-8.9,11.3v11.6c0,7,3.7,11.3,8.9,11.3C700.3,482.6,704,478.4,704,471.4z"/>
	<path class="st4" d="M742.9,487.6c-3.3-3.7-6.1-11-6.1-18.5V459c0-9.6,6.7-15.6,15-15.6s15,6,15,15.6v10.1c0,7.5-2.9,14.8-6.1,18.5
		l-5.1-2.4c3-4,5.1-10.4,5.1-16.8v-9c0-6.8-3.7-11.1-8.9-11.1s-8.9,4.3-8.9,11.1v9c0,6.4,2.1,12.8,5.1,16.8L742.9,487.6z"/>
</g>
</svg>
