<svg width="20" height="20" viewBox="0 0 20 20" fill="none" xmlns="http://www.w3.org/2000/svg">
<path d="M19.5 10C19.5 15.2467 15.2467 19.5 10 19.5C4.75329 19.5 0.5 15.2467 0.5 10C0.5 4.75329 4.75329 0.5 10 0.5C15.2467 0.5 19.5 4.75329 19.5 10Z" stroke="#3A74D2"/>
<path d="M12.7582 7.20597C11.6133 8.28578 10.568 9.34459 9.46859 10.4012L8.1761 9.42598C7.97416 9.27391 7.70136 9.23479 7.46047 9.32336C7.21958 9.41192 7.04719 9.61471 7.00826 9.85534C6.96933 10.096 7.06977 10.3378 7.27173 10.4899L9.08047 11.8517C9.36933 12.0682 9.78512 12.0453 10.0451 11.7985C11.3462 10.5714 12.5118 9.3661 13.7832 8.16702C13.9957 7.9708 14.0588 7.67212 13.9422 7.41433C13.8256 7.15653 13.5532 6.99224 13.2556 7.00028C13.0677 7.00544 12.8893 7.0792 12.7582 7.20597Z" fill="#3A74D2"/>
</svg>
