<svg width="16" height="12" viewBox="0 0 16 12" fill="none" xmlns="http://www.w3.org/2000/svg">
<path id="Mask" d="M13.1617 0.494328C10.5448 3.08587 8.15554 5.62701 5.6425 8.16291L2.68823 5.82234C2.22666 5.45738 1.60312 5.3635 1.05251 5.57605C0.501894 5.78861 0.107874 6.27531 0.0188864 6.8528C-0.0701009 7.4303 0.159466 8.01083 0.621101 8.3757L4.75535 11.644C5.41561 12.1637 6.36598 12.1087 6.96029 11.5163C9.9342 8.57125 12.5985 5.67864 15.5044 2.80085C15.9901 2.32992 16.1343 1.6131 15.8679 0.994391C15.6015 0.375683 14.9787 -0.0186314 14.2986 0.000678536C13.8691 0.0130472 13.4614 0.190091 13.1617 0.494328Z" fill="#1E67D3"/>
</svg>
