<svg width="69" height="24" viewBox="0 0 69 24" fill="none" xmlns="http://www.w3.org/2000/svg">
<path d="M4.25 12.2744L19.25 12.2744" stroke="#3A74D2" stroke-width="1.5" stroke-linecap="round" stroke-linejoin="round"/>
<path d="M10.2998 18.2988L4.2498 12.2748L10.2998 6.24976" stroke="#3A74D2" stroke-width="1.5" stroke-linecap="round" stroke-linejoin="round"/>
<path d="M36.864 5.576C37.8347 5.576 38.6453 5.66667 39.296 5.848C39.9573 6.02933 40.4533 6.33333 40.784 6.76C41.1253 7.176 41.296 7.73067 41.296 8.424C41.296 8.872 41.216 9.272 41.056 9.624C40.896 9.96533 40.6613 10.2533 40.352 10.488C40.0533 10.712 39.68 10.8613 39.232 10.936V11.016C39.6907 11.0907 40.1013 11.2293 40.464 11.432C40.8267 11.624 41.1147 11.9067 41.328 12.28C41.5413 12.6533 41.648 13.1387 41.648 13.736C41.648 14.4293 41.4827 15.0213 41.152 15.512C40.832 15.992 40.368 16.36 39.76 16.616C39.1627 16.872 38.448 17 37.616 17H33.52V5.576H36.864ZM37.152 10.344C38.048 10.344 38.6613 10.2 38.992 9.912C39.3333 9.624 39.504 9.19733 39.504 8.632C39.504 8.056 39.3013 7.64533 38.896 7.4C38.4907 7.15467 37.8453 7.032 36.96 7.032H35.248V10.344H37.152ZM35.248 11.752V15.56H37.344C38.272 15.56 38.9173 15.3787 39.28 15.016C39.6427 14.6533 39.824 14.1733 39.824 13.576C39.824 13.2133 39.744 12.8933 39.584 12.616C39.424 12.3387 39.152 12.1253 38.768 11.976C38.3947 11.8267 37.8827 11.752 37.232 11.752H35.248ZM47.172 8.216C48.26 8.216 49.0707 8.456 49.604 8.936C50.1373 9.40533 50.404 10.1467 50.404 11.16V17H49.204L48.868 15.8H48.804C48.5587 16.1093 48.3027 16.3653 48.036 16.568C47.78 16.7707 47.4813 16.92 47.14 17.016C46.8093 17.112 46.404 17.16 45.924 17.16C45.412 17.16 44.948 17.0693 44.532 16.888C44.1267 16.696 43.8067 16.408 43.572 16.024C43.3373 15.6293 43.22 15.1387 43.22 14.552C43.22 13.6773 43.5507 13.0107 44.212 12.552C44.884 12.0933 45.9027 11.8427 47.268 11.8L48.74 11.752V11.272C48.74 10.632 48.596 10.184 48.308 9.928C48.02 9.672 47.6147 9.544 47.092 9.544C46.644 9.544 46.2173 9.608 45.812 9.736C45.4067 9.864 45.0227 10.0187 44.66 10.2L44.116 8.968C44.5213 8.75467 44.9853 8.57867 45.508 8.44C46.0413 8.29067 46.596 8.216 47.172 8.216ZM47.572 12.888C46.5907 12.9307 45.908 13.096 45.524 13.384C45.1507 13.6613 44.964 14.056 44.964 14.568C44.964 15.016 45.0973 15.3413 45.364 15.544C45.6413 15.7467 45.988 15.848 46.404 15.848C47.076 15.848 47.6307 15.6613 48.068 15.288C48.5053 14.9147 48.724 14.3547 48.724 13.608V12.856L47.572 12.888ZM56.4875 17.16C55.6982 17.16 55.0048 17.0053 54.4075 16.696C53.8102 16.3867 53.3462 15.9067 53.0155 15.256C52.6848 14.5947 52.5195 13.7573 52.5195 12.744C52.5195 11.6773 52.6955 10.8133 53.0475 10.152C53.4102 9.49067 53.8955 9.00533 54.5035 8.696C55.1222 8.376 55.8262 8.216 56.6155 8.216C57.0955 8.216 57.5435 8.26933 57.9595 8.376C58.3862 8.472 58.7382 8.584 59.0155 8.712L58.5035 10.088C58.2048 9.97067 57.8848 9.86933 57.5435 9.784C57.2128 9.69867 56.8982 9.656 56.5995 9.656C56.0662 9.656 55.6235 9.77333 55.2715 10.008C54.9302 10.232 54.6742 10.5733 54.5035 11.032C54.3435 11.48 54.2635 12.0453 54.2635 12.728C54.2635 13.3787 54.3488 13.928 54.5195 14.376C54.6902 14.824 54.9408 15.1653 55.2715 15.4C55.6128 15.624 56.0342 15.736 56.5355 15.736C57.0155 15.736 57.4368 15.6827 57.7995 15.576C58.1622 15.4693 58.5035 15.3307 58.8235 15.16V16.632C58.5142 16.8133 58.1782 16.9467 57.8155 17.032C57.4528 17.1173 57.0102 17.16 56.4875 17.16ZM62.5393 10.92C62.5393 11.144 62.5286 11.4 62.5073 11.688C62.4966 11.976 62.4806 12.2427 62.4593 12.488H62.5073C62.5926 12.3813 62.6939 12.2533 62.8113 12.104C62.9393 11.944 63.0673 11.784 63.1953 11.624C63.3233 11.464 63.4406 11.3253 63.5473 11.208L66.1873 8.376H68.1553L64.6833 12.072L68.3793 17H66.3793L63.5312 13.144L62.5393 13.976V17H60.8593V4.84H62.5393V10.92Z" fill="#3A74D2"/>
</svg>
