<svg width="30" height="30" viewBox="0 0 30 30" fill="none" xmlns="http://www.w3.org/2000/svg">
<path d="M13.3675 5L11.9419 6.28373L11.7644 6.42973L11.7699 8.23675L11.5783 8.29072L11.421 8.33968L11.2546 8.38548L11.1287 8.43445L10.983 8.4857L10.8227 8.53965L10.6796 8.60132L10.5335 8.65755L10.402 8.71423L10.2902 8.76048L10.1527 8.82715L10.0439 8.88383L9.93218 8.94005L9.79513 9.00672L9.6859 9.06067L9.52863 9.14547L9.35668 9.24568L9.17109 9.35858L9.02797 9.44293L8.86463 9.55358L8.76146 9.62522L8.62998 9.71773L8.50963 9.80252L8.38067 9.89503L8.26334 9.97982L8.17181 10.0619L8.06005 10.1539L7.85675 10.3263L7.76825 10.4029L7.69645 10.47L7.59934 10.5544L7.48202 10.6677L7.37027 10.7752L7.29895 10.86L7.20994 10.947L7.13006 11.0423L7.04963 11.1348L6.97227 11.2268L6.89237 11.3143L6.82055 11.4014L6.74622 11.4839L6.68907 11.5606L6.62333 11.6558L6.55455 11.756L6.49437 11.8276L6.43723 11.9047L6.34822 12.033L6.30827 12.1074L6.25972 12.1845L6.19094 12.2847L6.13684 12.3613L6.10497 12.4384L6.03923 12.5386L5.97653 12.6411L5.90775 12.7672L5.85616 12.8851L5.79902 13.0107L5.74136 13.1163L5.69585 13.2084L5.65287 13.3163L5.58713 13.4496L5.53554 13.5884L5.4612 13.7861L5.42075 13.9067L5.37523 14.0428L5.33528 14.1684L5.30089 14.2944L5.21188 14.6431L5.18914 14.751L5.15171 14.8771L5.12592 15.0308L5.10873 15.1338L5.08294 15.2952L5.05766 15.4725L5.03187 15.7546L5.01162 15.9522L5.00304 16.1037L5 16.286L5.00304 16.7299L5.0086 16.8764L5.02579 17.0868L5.04045 17.2587L5.05462 17.382L5.06878 17.513L5.08294 17.6182L5.10873 17.7493L5.12896 17.8749L5.14918 17.9878L5.17497 18.1007L5.19774 18.1982L5.23213 18.3342L5.26348 18.4526L5.29231 18.5732L5.33782 18.7038L5.37523 18.8376L5.41214 18.9505L5.44653 19.048L5.48396 19.1609L5.52696 19.2661L5.56993 19.379L5.61848 19.4892L5.66146 19.5867L5.70141 19.6715L5.75603 19.7921L5.81014 19.9104L5.87032 20.0207L5.92191 20.1308L5.97349 20.221L6.02507 20.3032L6.08525 20.421L6.13936 20.5108L6.19398 20.6033L6.25416 20.6958L6.29107 20.7548L6.3285 20.811L6.38261 20.8908L6.43167 20.9652L6.47718 21.0295L6.5318 21.0962L6.57731 21.1678L6.64911 21.2653L6.71183 21.3475L6.78059 21.43L6.82915 21.4967L6.88376 21.5605L6.95254 21.6403L7.00968 21.707L7.08959 21.7942L7.19023 21.902L7.27316 21.9995L7.37027 22.0947L7.44207 22.174L7.51893 22.2435L7.61098 22.3305L7.69391 22.413L7.77685 22.4875L7.83955 22.5413L7.91693 22.6053L7.99734 22.6773L8.06612 22.7337L8.14046 22.7953L8.20064 22.8465L8.28054 22.9082L8.35488 22.9698L8.42112 23.0107L8.4808 23.0623L8.54402 23.106L8.59559 23.139L8.65273 23.1803L8.72151 23.2293L8.78725 23.275L8.85907 23.3213L8.93594 23.3725L9.00472 23.4188L9.05325 23.4473L9.09372 23.4755L9.13924 23.5037L9.18829 23.5345L9.23076 23.5603L9.26818 23.578H6.58894L5.00304 25H20.9415L22.5218 23.578L14.2145 23.5757L14.0345 23.573L13.8165 23.5525L13.502 23.5295L13.2127 23.4782L12.9897 23.442L12.7576 23.3933L12.5573 23.3548L12.3368 23.3058L12.1907 23.2673L11.9591 23.193L11.7613 23.129L11.5924 23.0752L11.4351 23.0162L11.2718 22.9418L11.1231 22.8773L10.9315 22.798L10.7423 22.7055L10.5734 22.6157L10.4106 22.5282L10.2872 22.4565L10.1269 22.3718L9.98073 22.2743L9.85481 22.2022L9.73192 22.1202L9.59183 22.015L9.44873 21.9125L9.30257 21.7968L9.16249 21.6888L9.0133 21.5583L8.87626 21.4377L8.78169 21.3552L8.66994 21.2345L8.58143 21.1502L8.49242 21.0653L8.38067 20.942L8.25777 20.806C8.25777 20.806 8.14904 20.6753 8.14904 20.665C8.14904 20.6547 8.04285 20.5443 8.04285 20.5443L7.92299 20.3825L7.8254 20.2542L7.7283 20.1182L7.63677 19.9771L7.55939 19.8587L7.49365 19.7408L7.39606 19.579L7.32171 19.4253L7.24989 19.2761L7.16999 19.1223L7.11537 19.0067L7.06986 18.9015L7.02132 18.7682L6.95507 18.5832L6.8868 18.3882L6.81802 18.1701L6.77503 17.9828L6.72902 17.7774L6.68604 17.6028L6.65772 17.3947L6.63445 17.1997L6.6117 16.9789L6.60058 16.8505L6.58894 16.7018V16.5658L6.59198 16.4374L6.60058 16.3041L6.60614 16.091L6.61726 15.9319L6.62585 15.765L6.64053 15.6493L6.66328 15.4902L6.68907 15.3442L6.70929 15.195L6.73762 15.0694L6.77503 14.9129L6.80336 14.7846L6.82915 14.6871L6.86658 14.5588L6.90653 14.4481L6.95254 14.2944L6.99806 14.1838L7.05824 14.0301L7.11537 13.8863L7.17303 13.7603L7.23575 13.6011L7.31615 13.4474L7.37329 13.3549L7.43903 13.2293L7.51337 13.0955L7.57355 12.9953L7.65649 12.8647L7.75106 12.7337L7.81428 12.6312L7.8886 12.5337L7.99734 12.3922L8.08886 12.2743L8.17181 12.1641L8.25777 12.0612L8.33212 11.9687L8.4009 11.8993L8.48382 11.8172L8.54958 11.7428L8.61278 11.6812L8.69016 11.6122L8.7559 11.5401L8.85299 11.4608L8.93898 11.381L9.11091 11.2323L9.17109 11.1756L9.25099 11.1116L9.3314 11.0472L9.4027 10.9883L9.48868 10.9216L9.58881 10.8523L9.68338 10.7883L9.77795 10.7212L9.87504 10.6677L9.99235 10.5879L10.1041 10.5163L10.2245 10.4469L10.3099 10.3902L10.4247 10.3312L10.5279 10.2746L10.6048 10.2288L10.7024 10.1902L10.7767 10.149L10.8768 10.1027L10.9886 10.0515L11.1004 10.0052L11.1661 9.9694L11.2718 9.93357L11.3633 9.8973L11.4695 9.85377L11.5555 9.82067L11.641 9.78982L11.7244 9.76398L11.7699 9.74583V16.4374L13.3644 15.0132L13.3675 9.37628L13.3872 9.36857L13.456 9.35858L13.5364 9.35088L13.6451 9.33547L13.7508 9.32775L13.8181 9.32548L13.8196 9.3264L13.8469 9.32912L13.9799 9.31597L14.123 9.30825L14.2959 9.30327L14.83 9.30055L15.0247 9.30962L15.1905 9.32005L15.3155 9.33002L15.4343 9.34182L15.5628 9.35587L15.6588 9.36857L15.7448 9.379L15.7473 16.4402L17.3464 15.0154V9.75128L17.3707 9.75763L17.4248 9.77803L17.5006 9.80525L17.6023 9.83835L17.6726 9.86918L17.7757 9.90908L17.89 9.95533L17.9962 10.0016L18.1004 10.0488L18.2152 10.0991L18.3421 10.1594L18.4327 10.2016L18.5126 10.2401L18.5798 10.2814L18.6587 10.3222L18.7229 10.353L18.8059 10.4029L18.8777 10.4455L18.9652 10.4931L19.041 10.5389L19.1169 10.5879L19.1937 10.6378L19.2696 10.6854L19.3586 10.7457L19.44 10.8024L19.5032 10.8473L19.5705 10.8958L19.6433 10.947L19.7222 11.0051L19.8168 11.0844L19.8982 11.1475L19.9756 11.2141L20.06 11.2808L20.1429 11.3579L20.2057 11.4041L20.2643 11.4608L20.3589 11.5506L20.4408 11.6286L20.4965 11.6866L20.5551 11.7456L20.6425 11.834L20.7341 11.9342L20.8115 12.0176L20.8555 12.0793L20.9116 12.1523L20.9814 12.2321L21.0376 12.3001L21.0916 12.3682L21.1448 12.4371L21.208 12.5205L21.2621 12.599L21.3122 12.6656L21.3566 12.7246L21.4022 12.789L21.4467 12.8529L21.4882 12.925L21.5255 12.9903L21.5727 13.0687L21.6141 13.129L21.6459 13.1866L21.6829 13.2574L21.7157 13.3086L21.7476 13.3676L21.7976 13.4628L21.8476 13.5666L21.876 13.6206L21.9033 13.6782L21.9306 13.7349L21.9549 13.7924L21.9838 13.8645L22.0079 13.9221L22.0425 13.9861L22.0651 14.0387L22.0839 14.0913L22.1097 14.162L22.1268 14.2123L22.1511 14.2813L22.1739 14.3561L22.1997 14.4314L22.2295 14.5098L22.2584 14.6127L22.2841 14.6971L22.3185 14.8358L22.3372 14.9075L22.357 14.9873L22.3796 15.0952L22.3857 15.1156L22.4014 15.2004L22.4227 15.3006L22.4373 15.4095L22.4531 15.5174L22.4717 15.6548L22.4874 15.7804L22.4985 15.9291L22.5087 16.0615L22.5202 16.2347L22.5273 16.4297L23.9974 15.1115L24 15.0875L23.9914 15.0308L23.9788 14.9605L23.9646 14.8871L23.953 14.8295L23.9357 14.7411L23.914 14.664L23.8998 14.5919L23.8654 14.469L23.8483 14.4032L23.8255 14.3239L23.7983 14.2341L23.7755 14.1593L23.7527 14.0827L23.7309 14.021L23.7083 13.9489L23.6794 13.8682L23.6495 13.7834L23.6096 13.6768L23.5777 13.5925L23.548 13.5099L23.512 13.4306L23.4822 13.3626L23.4447 13.2637L23.4079 13.188L23.3744 13.1213L23.336 13.0393L23.2986 12.9635L23.2531 12.8669L23.2156 12.7912L23.1742 12.7223L23.1286 12.6361L23.0913 12.5708L23.0441 12.4833L23.0037 12.418L22.9623 12.3487L22.9153 12.2743L22.8607 12.1922L22.8106 12.1088L22.7666 12.043L22.7206 11.9714L22.676 11.9097L22.6306 11.8367L22.589 11.7787L22.5375 11.7134L22.5016 11.6621L22.4641 11.6186L22.4085 11.5415L22.3513 11.4694L22.3014 11.4068L22.2553 11.3488L22.2012 11.2835L22.1451 11.2182L22.0879 11.1525L22.0551 11.1089L22.0034 11.0563L21.9706 11.0205L21.915 10.9588L21.8634 10.9035L21.8062 10.8432L21.7188 10.7507L21.6459 10.6763L21.5787 10.616L21.5139 10.5521L21.4426 10.4877L21.3379 10.3915L21.2479 10.3158L21.1737 10.2505L21.0832 10.1707L21.0016 10.1004L20.9298 10.0465L20.8358 9.96667L20.7569 9.90908L20.6911 9.85512L20.6037 9.79482L20.5293 9.74085L20.4434 9.67782L20.3604 9.62295L20.2689 9.564L20.1875 9.51232L20.0944 9.44702L20.0054 9.39033L19.9341 9.34317L19.8593 9.29965L19.7809 9.2543L19.6919 9.20442L19.5978 9.15045L19.5118 9.09922L19.4375 9.05932L19.3485 9.01578L19.2696 8.97452L19.1811 8.93235L19.0881 8.88383L19.0081 8.84618L18.9151 8.80265L18.8246 8.76275L18.7447 8.72693L18.6329 8.67977L18.5328 8.63715L18.4296 8.59362L18.3022 8.54373L18.2066 8.5061L18.0964 8.46802L18.0018 8.43445L17.9143 8.40633L17.8197 8.3755L17.6928 8.33197L17.5982 8.30477L17.491 8.27167L17.4035 8.24853L17.3489 8.23947L17.3464 5.00408L15.7448 6.43245L15.7458 7.9352L15.6174 7.91707L15.4469 7.89938L15.3109 7.88623L15.0818 7.87082L14.8689 7.86447L14.743 7.86083L14.4365 7.86355L14.2363 7.86582L14.0026 7.87353L13.8408 7.88123L13.7983 7.89032L13.7978 7.89077L13.6592 7.90073L13.5161 7.91072L13.416 7.92885L13.37 7.94653L13.3675 5Z" fill="#5E70DA" stroke="#5E70DA" stroke-width="0.6"/>
</svg>
