<svg width="28" height="28" viewBox="0 0 28 28" fill="none" xmlns="http://www.w3.org/2000/svg">
<circle cx="14" cy="14" r="14" fill="#3A74D2" fill-opacity="0.1"/>
<path d="M16.5346 19.9299H9.8285C9.14166 19.9299 8.51776 19.6491 8.06577 19.1971C7.61391 18.7452 7.33301 18.1212 7.33301 17.4344V8.16212C7.33301 7.47527 7.6138 6.85138 8.06577 6.39939C8.51764 5.94753 9.14166 5.66663 9.8285 5.66663H16.8255C17.5123 5.66663 18.1362 5.94741 18.5882 6.39939C19.0401 6.85126 19.321 7.47527 19.321 8.16212V14.336C19.5875 14.4555 19.8281 14.6225 20.0312 14.8258C20.4622 15.2567 20.7292 15.8522 20.7292 16.5098C20.7292 17.099 20.5148 17.6387 20.1603 18.0544V21.9427C20.1603 22.1582 19.9852 22.3333 19.7697 22.3333C19.6799 22.3333 19.5971 22.3031 19.5313 22.2521L18.3478 21.4826L17.1376 22.2696C16.9574 22.3865 16.7159 22.3355 16.5989 22.1552C16.5565 22.0898 16.5361 22.0163 16.5361 21.9433H16.535V19.9304L16.5346 19.9299ZM19.3788 18.6569C19.0668 18.8069 18.717 18.8912 18.3473 18.8912C17.9776 18.8912 17.6278 18.8069 17.3158 18.6569V21.2243L18.1282 20.6964C18.2538 20.6111 18.4238 20.604 18.5592 20.6917L19.3788 21.2243L19.3788 18.6569ZM16.5346 18.0544C16.1802 17.6387 15.9658 17.0994 15.9658 16.5097C15.9658 15.8521 16.2323 15.2567 16.6638 14.8257C17.0948 14.3947 17.6902 14.1282 18.3478 14.1282C18.4126 14.1282 18.4765 14.1308 18.5402 14.1359V8.16172C18.5402 7.69098 18.3472 7.262 18.0362 6.95156C17.7253 6.64063 17.2968 6.44756 16.8261 6.44756H9.82911C9.35836 6.44756 8.92939 6.64061 8.61894 6.95156C8.30801 7.26248 8.11495 7.69098 8.11495 8.16172V17.434C8.11495 17.9047 8.308 18.3337 8.61894 18.6441C8.92987 18.9551 9.35836 19.1481 9.82911 19.1481H16.5352V18.0538L16.5346 18.0544ZM19.4794 15.3781C19.1898 15.0886 18.7896 14.9094 18.3478 14.9094C17.9055 14.9094 17.5058 15.0887 17.2158 15.3781C16.9262 15.6677 16.747 16.0679 16.747 16.5097C16.747 16.9438 16.9201 17.3379 17.2004 17.6264L17.2158 17.6418C17.5053 17.9313 17.9055 18.1105 18.3478 18.1105C18.7895 18.1105 19.1898 17.9312 19.4794 17.6418L19.4937 17.6274C19.7745 17.3389 19.9476 16.9447 19.9476 16.5102C19.9476 16.0685 19.7684 15.6682 19.4789 15.3786L19.4794 15.3781ZM10.6968 13.7718C10.4813 13.7718 10.3061 13.5966 10.3061 13.3811C10.3061 13.1652 10.4813 12.9905 10.6968 12.9905H13.0006C13.2161 12.9905 13.3913 13.1656 13.3913 13.3811C13.3913 13.5966 13.2161 13.7718 13.0006 13.7718H10.6968ZM10.6968 11.5674C10.4813 11.5674 10.3061 11.3923 10.3061 11.1768C10.3061 10.9613 10.4813 10.7861 10.6968 10.7861H15.9874C16.2034 10.7861 16.378 10.9613 16.378 11.1768C16.378 11.3927 16.2029 11.5674 15.9874 11.5674H10.6968ZM10.6968 9.36301C10.4813 9.36301 10.3061 9.18789 10.3061 8.97239C10.3061 8.75688 10.4813 8.58176 10.6968 8.58176H15.9874C16.2034 8.58176 16.378 8.75688 16.378 8.97239C16.378 9.18789 16.2029 9.36301 15.9874 9.36301H10.6968Z" fill="#3A74D2"/>
</svg>
