<svg width="24" height="18" viewBox="0 0 24 18" fill="none" xmlns="http://www.w3.org/2000/svg">
<path d="M19.7425 0.741492C15.8172 4.62881 12.2333 8.44051 8.46374 12.2444L4.03234 8.73351C3.33999 8.18607 2.40468 8.04525 1.57876 8.36408C0.752841 8.68292 0.161811 9.41297 0.0283296 10.2792C-0.105151 11.1454 0.239199 12.0162 0.931652 12.5635L7.13303 17.466C8.12341 18.2456 9.54897 18.163 10.4404 17.2745C14.9013 12.8569 18.8978 8.51797 23.2566 4.20127C23.9851 3.49488 24.2015 2.41965 23.8018 1.49159C23.4022 0.563525 22.4681 -0.0279471 21.4479 0.0010178C20.8037 0.0195708 20.192 0.285136 19.7425 0.741492Z" fill="#1E67D3"/>
</svg>
