<svg width="24" height="24" viewBox="0 0 24 24" fill="none" xmlns="http://www.w3.org/2000/svg">
<path d="M23.5 12C23.5 18.3513 18.3513 23.5 12 23.5C5.64873 23.5 0.5 18.3513 0.5 12C0.5 5.64873 5.64873 0.5 12 0.5C18.3513 0.5 23.5 5.64873 23.5 12Z" fill="#3A74D2" fill-opacity="0.1" stroke="#3A74D2"/>
<path d="M15.226 8.32955C13.5905 10.0572 12.0972 11.7513 10.5266 13.4419L8.68014 11.8816C8.39166 11.6383 8.00195 11.5757 7.65782 11.7174C7.31368 11.8591 7.06742 12.1835 7.0118 12.5685C6.95619 12.9535 7.09967 13.3406 7.38819 13.5838L9.9721 15.7627C10.3848 16.1091 10.9787 16.0725 11.3502 15.6775C13.2089 13.7142 14.8741 11.7858 16.6903 9.86723C16.9938 9.55328 17.084 9.0754 16.9174 8.66293C16.7509 8.25046 16.3617 7.98758 15.9366 8.00045C15.6682 8.0087 15.4134 8.12673 15.226 8.32955Z" fill="#1E67D3"/>
</svg>
