<svg width="18" height="17" viewBox="0 0 18 17" fill="none" xmlns="http://www.w3.org/2000/svg">
<path d="M13.9322 10.3365C13.7164 10.5352 13.6172 10.8226 13.6664 11.1044L14.4072 14.9994C14.4697 15.3295 14.3231 15.6636 14.0322 15.8544C13.7472 16.0523 13.3681 16.0761 13.0572 15.9178L9.3664 14.089C9.23807 14.0241 9.09557 13.9893 8.94973 13.9853H8.7239C8.64557 13.9964 8.5689 14.0201 8.4989 14.0565L4.80723 15.894C4.62473 15.9811 4.41807 16.012 4.21557 15.9811C3.72223 15.8924 3.39307 15.4459 3.4739 14.9749L4.21557 11.0799C4.26473 10.7957 4.16557 10.5067 3.94973 10.3048L0.940567 7.534C0.6889 7.30205 0.6014 6.95371 0.7164 6.63942C0.828067 6.32592 1.11307 6.09713 1.45723 6.04567L5.5989 5.47488C5.9139 5.444 6.19057 5.26192 6.33223 4.99275L8.15723 1.43817C8.20057 1.359 8.2564 1.28617 8.3239 1.22442L8.3989 1.169C8.43807 1.12784 8.48307 1.0938 8.53307 1.06609L8.6239 1.03442L8.76557 0.979004H9.1164C9.42973 1.00988 9.70557 1.188 9.84973 1.454L11.6989 4.99275C11.8322 5.25163 12.0914 5.43134 12.3906 5.47488L16.5322 6.04567C16.8822 6.09317 17.1747 6.32275 17.2906 6.63942C17.3997 6.95688 17.3056 7.30521 17.0489 7.534L13.9322 10.3365Z" fill="#3A74D2"/>
</svg>
