<svg width="23" height="23" viewBox="0 0 23 23" fill="none" xmlns="http://www.w3.org/2000/svg">
<g clip-path="url(#clip0_32486_2081)">
<path d="M11.5 13.417C13.0878 13.417 14.375 12.1298 14.375 10.542C14.375 8.95417 13.0878 7.66699 11.5 7.66699C9.91218 7.66699 8.625 8.95417 8.625 10.542C8.625 12.1298 9.91218 13.417 11.5 13.417Z" stroke="#383838" stroke-opacity="0.6" stroke-width="1.5" stroke-linecap="round" stroke-linejoin="round"/>
<path d="M16.9215 15.9627L12.8552 20.0289C12.4959 20.3879 12.0086 20.5896 11.5006 20.5896C10.9926 20.5896 10.5054 20.3879 10.146 20.0289L6.07887 15.9627C5.00671 14.8905 4.27657 13.5244 3.98078 12.0372C3.685 10.55 3.83684 9.00855 4.41713 7.60767C4.99741 6.20679 5.98007 5.00945 7.24084 4.16704C8.5016 3.32463 9.98386 2.875 11.5002 2.875C13.0165 2.875 14.4987 3.32463 15.7595 4.16704C17.0203 5.00945 18.0029 6.20679 18.5832 7.60767C19.1635 9.00855 19.3153 10.55 19.0195 12.0372C18.7238 13.5244 17.9936 14.8905 16.9215 15.9627V15.9627Z" stroke="#383838" stroke-opacity="0.6" stroke-width="1.5" stroke-linecap="round" stroke-linejoin="round"/>
</g>
<defs>
<clipPath id="clip0_32486_2081">
<rect width="23" height="23" fill="white"/>
</clipPath>
</defs>
</svg>
