<svg width="14" height="14" viewBox="0 0 14 14" fill="none" xmlns="http://www.w3.org/2000/svg">
<mask id="mask0_1142_8240" style="mask-type:alpha" maskUnits="userSpaceOnUse" x="0" y="0" width="14" height="14">
<path d="M8.84234 6.99982L13.64 11.7923C13.7541 11.9062 13.8447 12.0415 13.9064 12.1904C13.9682 12.3394 14 12.4991 14 12.6603C14 12.8216 13.9682 12.9812 13.9064 13.1302C13.8447 13.2791 13.7541 13.4144 13.64 13.5284C13.4094 13.7586 13.0969 13.888 12.771 13.888C12.4451 13.888 12.1325 13.7586 11.902 13.5284L7.056 8.68761L2.09805 13.6404C1.86745 13.8707 1.5549 14 1.22902 14C0.903146 14 0.590592 13.8707 0.359998 13.6404C0.245879 13.5265 0.155342 13.3911 0.0935692 13.2422C0.0317963 13.0932 0 12.9336 0 12.7723C0 12.6111 0.0317963 12.4514 0.0935692 12.3025C0.155342 12.1535 0.245879 12.0182 0.359998 11.9043L5.27 6.99982L0.359998 2.09572C0.245879 1.9818 0.155342 1.8465 0.0935692 1.69755C0.0317963 1.5486 0 1.38893 0 1.22767C0 1.06642 0.0317963 0.90675 0.0935692 0.7578C0.155342 0.608851 0.245879 0.473545 0.359998 0.359628C0.590592 0.129344 0.903146 0 1.22902 0C1.5549 0 1.86745 0.129344 2.09805 0.359628L7.056 5.31239L11.902 0.471634C12.1325 0.24135 12.4451 0.112006 12.771 0.112006C13.0969 0.112006 13.4094 0.24135 13.64 0.471634C13.7541 0.585551 13.8447 0.720856 13.9064 0.869806C13.9682 1.01876 14 1.17843 14 1.33968C14 1.50093 13.9682 1.6606 13.9064 1.80955C13.8447 1.9585 13.7541 2.09381 13.64 2.20772L8.84234 6.99982Z" fill="white"/>
</mask>
<g mask="url(#mask0_1142_8240)">
<path d="M8.84234 6.99982L13.64 11.7923C13.7541 11.9062 13.8447 12.0415 13.9064 12.1904C13.9682 12.3394 14 12.4991 14 12.6603C14 12.8216 13.9682 12.9812 13.9064 13.1302C13.8447 13.2791 13.7541 13.4144 13.64 13.5284C13.4094 13.7586 13.0969 13.888 12.771 13.888C12.4451 13.888 12.1325 13.7586 11.902 13.5284L7.056 8.68761L2.09805 13.6404C1.86745 13.8707 1.5549 14 1.22902 14C0.903146 14 0.590592 13.8707 0.359998 13.6404C0.245879 13.5265 0.155342 13.3911 0.0935692 13.2422C0.0317963 13.0932 0 12.9336 0 12.7723C0 12.6111 0.0317963 12.4514 0.0935692 12.3025C0.155342 12.1535 0.245879 12.0182 0.359998 11.9043L5.27 6.99982L0.359998 2.09572C0.245879 1.9818 0.155342 1.8465 0.0935692 1.69755C0.0317963 1.5486 0 1.38893 0 1.22767C0 1.06642 0.0317963 0.90675 0.0935692 0.7578C0.155342 0.608851 0.245879 0.473545 0.359998 0.359628C0.590592 0.129344 0.903146 0 1.22902 0C1.5549 0 1.86745 0.129344 2.09805 0.359628L7.056 5.31239L11.902 0.471634C12.1325 0.24135 12.4451 0.112006 12.771 0.112006C13.0969 0.112006 13.4094 0.24135 13.64 0.471634C13.7541 0.585551 13.8447 0.720856 13.9064 0.869806C13.9682 1.01876 14 1.17843 14 1.33968C14 1.50093 13.9682 1.6606 13.9064 1.80955C13.8447 1.9585 13.7541 2.09381 13.64 2.20772L8.84234 6.99982Z" fill="#BFC4CA"/>
<path fill-rule="evenodd" clip-rule="evenodd" d="M-4.54834 -6.30005H19.2509V17.5012H-4.54834V-6.30005Z" fill="#BFC4CA"/>
</g>
</svg>
