<svg width="30" height="30" viewBox="0 0 30 30" fill="none" xmlns="http://www.w3.org/2000/svg">
<circle cx="15" cy="15" r="14.5" stroke="#D9D9D9"/>
<mask id="mask0_766_8856" style="mask-type:alpha" maskUnits="userSpaceOnUse" x="9" y="9" width="12" height="12">
<path d="M16.5792 14.9998L20.6914 19.1077C20.7892 19.2053 20.8668 19.3213 20.9198 19.449C20.9727 19.5766 21 19.7135 21 19.8517C21 19.9899 20.9727 20.1268 20.9198 20.2545C20.8668 20.3821 20.7892 20.4981 20.6914 20.5957C20.4938 20.7931 20.2259 20.904 19.9466 20.904C19.6672 20.904 19.3993 20.7931 19.2017 20.5957L15.048 16.4465L10.7983 20.6917C10.6007 20.8891 10.3328 21 10.0534 21C9.77413 21 9.50622 20.8891 9.30857 20.6917C9.21075 20.5941 9.13315 20.4781 9.0802 20.3505C9.02725 20.2228 9 20.0859 9 19.9477C9 19.8095 9.02725 19.6726 9.0802 19.545C9.13315 19.4173 9.21075 19.3013 9.30857 19.2037L13.5171 14.9998L9.30857 10.7963C9.21075 10.6987 9.13315 10.5827 9.0802 10.455C9.02725 10.3274 9 10.1905 9 10.0523C9 9.91407 9.02725 9.77721 9.0802 9.64954C9.13315 9.52187 9.21075 9.4059 9.30857 9.30825C9.50622 9.11087 9.77413 9 10.0534 9C10.3328 9 10.6007 9.11087 10.7983 9.30825L15.048 13.5535L19.2017 9.40426C19.3993 9.20687 19.6672 9.09601 19.9466 9.09601C20.2259 9.09601 20.4938 9.20687 20.6914 9.40426C20.7892 9.5019 20.8668 9.61788 20.9198 9.74555C20.9727 9.87322 21 10.0101 21 10.1483C21 10.2865 20.9727 10.4234 20.9198 10.551C20.8668 10.6787 20.7892 10.7947 20.6914 10.8923L16.5792 14.9998Z" fill="white"/>
</mask>
<g mask="url(#mask0_766_8856)">
<path d="M16.5792 14.9998L20.6914 19.1077C20.7892 19.2053 20.8668 19.3213 20.9198 19.449C20.9727 19.5766 21 19.7135 21 19.8517C21 19.9899 20.9727 20.1268 20.9198 20.2545C20.8668 20.3821 20.7892 20.4981 20.6914 20.5957C20.4938 20.7931 20.2259 20.904 19.9466 20.904C19.6672 20.904 19.3993 20.7931 19.2017 20.5957L15.048 16.4465L10.7983 20.6917C10.6007 20.8891 10.3328 21 10.0534 21C9.77413 21 9.50622 20.8891 9.30857 20.6917C9.21075 20.5941 9.13315 20.4781 9.0802 20.3505C9.02725 20.2228 9 20.0859 9 19.9477C9 19.8095 9.02725 19.6726 9.0802 19.545C9.13315 19.4173 9.21075 19.3013 9.30857 19.2037L13.5171 14.9998L9.30857 10.7963C9.21075 10.6987 9.13315 10.5827 9.0802 10.455C9.02725 10.3274 9 10.1905 9 10.0523C9 9.91407 9.02725 9.77721 9.0802 9.64954C9.13315 9.52187 9.21075 9.4059 9.30857 9.30825C9.50622 9.11087 9.77413 9 10.0534 9C10.3328 9 10.6007 9.11087 10.7983 9.30825L15.048 13.5535L19.2017 9.40426C19.3993 9.20687 19.6672 9.09601 19.9466 9.09601C20.2259 9.09601 20.4938 9.20687 20.6914 9.40426C20.7892 9.5019 20.8668 9.61788 20.9198 9.74555C20.9727 9.87322 21 10.0101 21 10.1483C21 10.2865 20.9727 10.4234 20.9198 10.551C20.8668 10.6787 20.7892 10.7947 20.6914 10.8923L16.5792 14.9998Z" fill="#BFC4CA"/>
<path fill-rule="evenodd" clip-rule="evenodd" d="M5.10156 5.1001H25.501V25.5012H5.10156V5.1001Z" fill="#BFC4CA"/>
</g>
</svg>
