<svg width="16" height="16" viewBox="0 0 16 16" fill="none" xmlns="http://www.w3.org/2000/svg">
<mask id="mask0_766_10670" style="mask-type:alpha" maskUnits="userSpaceOnUse" x="0" y="0" width="16" height="16">
<path d="M10.1055 7.9998L15.5886 13.4769C15.719 13.6071 15.8225 13.7617 15.8931 13.9319C15.9637 14.1022 16 14.2846 16 14.4689C16 14.6532 15.9637 14.8357 15.8931 15.0059C15.8225 15.1762 15.719 15.3308 15.5886 15.461C15.325 15.7242 14.9678 15.872 14.5954 15.872C14.223 15.872 13.8658 15.7242 13.6022 15.461L8.064 9.9287L2.39777 15.589C2.13423 15.8522 1.77703 16 1.4046 16C1.03217 16 0.674962 15.8522 0.411427 15.589C0.281005 15.4588 0.177534 15.3042 0.106936 15.1339C0.0363386 14.9637 0 14.7812 0 14.5969C0 14.4127 0.0363386 14.2302 0.106936 14.0599C0.177534 13.8897 0.281005 13.7351 0.411427 13.6049L6.02286 7.9998L0.411427 2.39511C0.281005 2.26492 0.177534 2.11028 0.106936 1.94005C0.0363386 1.76982 0 1.58734 0 1.40306C0 1.21877 0.0363386 1.03629 0.106936 0.866057C0.177534 0.695829 0.281005 0.541195 0.411427 0.411003C0.674962 0.147822 1.03217 0 1.4046 0C1.77703 0 2.13423 0.147822 2.39777 0.411003L8.064 6.0713L13.6022 0.53901C13.8658 0.275829 14.223 0.128007 14.5954 0.128007C14.9678 0.128007 15.325 0.275829 15.5886 0.53901C15.719 0.669201 15.8225 0.823836 15.8931 0.994064C15.9637 1.16429 16 1.34677 16 1.53106C16 1.71535 15.9637 1.89783 15.8931 2.06806C15.8225 2.23829 15.719 2.39292 15.5886 2.52311L10.1055 7.9998Z" fill="white"/>
</mask>
<g mask="url(#mask0_766_10670)">
<path d="M10.1055 7.9998L15.5886 13.4769C15.719 13.6071 15.8225 13.7617 15.8931 13.9319C15.9637 14.1022 16 14.2846 16 14.4689C16 14.6532 15.9637 14.8357 15.8931 15.0059C15.8225 15.1762 15.719 15.3308 15.5886 15.461C15.325 15.7242 14.9678 15.872 14.5954 15.872C14.223 15.872 13.8658 15.7242 13.6022 15.461L8.064 9.9287L2.39777 15.589C2.13423 15.8522 1.77703 16 1.4046 16C1.03217 16 0.674962 15.8522 0.411427 15.589C0.281005 15.4588 0.177534 15.3042 0.106936 15.1339C0.0363386 14.9637 0 14.7812 0 14.5969C0 14.4127 0.0363386 14.2302 0.106936 14.0599C0.177534 13.8897 0.281005 13.7351 0.411427 13.6049L6.02286 7.9998L0.411427 2.39511C0.281005 2.26492 0.177534 2.11028 0.106936 1.94005C0.0363386 1.76982 0 1.58734 0 1.40306C0 1.21877 0.0363386 1.03629 0.106936 0.866057C0.177534 0.695829 0.281005 0.541195 0.411427 0.411003C0.674962 0.147822 1.03217 0 1.4046 0C1.77703 0 2.13423 0.147822 2.39777 0.411003L8.064 6.0713L13.6022 0.53901C13.8658 0.275829 14.223 0.128007 14.5954 0.128007C14.9678 0.128007 15.325 0.275829 15.5886 0.53901C15.719 0.669201 15.8225 0.823836 15.8931 0.994064C15.9637 1.16429 16 1.34677 16 1.53106C16 1.71535 15.9637 1.89783 15.8931 2.06806C15.8225 2.23829 15.719 2.39292 15.5886 2.52311L10.1055 7.9998Z" fill="white"/>
<path fill-rule="evenodd" clip-rule="evenodd" d="M-5.19775 -5.19995H22.0014V22.0015H-5.19775V-5.19995Z" fill="white"/>
</g>
</svg>
