<svg width="24" height="24" viewBox="0 0 24 24" fill="none" xmlns="http://www.w3.org/2000/svg">
<mask id="mask0_971_3370" style="mask-type:alpha" maskUnits="userSpaceOnUse" x="4" y="4" width="16" height="16">
<path d="M14.1055 11.9998L19.5886 17.4769C19.719 17.6071 19.8225 17.7617 19.8931 17.9319C19.9637 18.1022 20 18.2846 20 18.4689C20 18.6532 19.9637 18.8357 19.8931 19.0059C19.8225 19.1762 19.719 19.3308 19.5886 19.461C19.325 19.7242 18.9678 19.872 18.5954 19.872C18.223 19.872 17.8658 19.7242 17.6022 19.461L12.064 13.9287L6.39777 19.589C6.13423 19.8522 5.77703 20 5.4046 20C5.03217 20 4.67496 19.8522 4.41143 19.589C4.281 19.4588 4.17753 19.3042 4.10694 19.1339C4.03634 18.9637 4 18.7812 4 18.5969C4 18.4127 4.03634 18.2302 4.10694 18.0599C4.17753 17.8897 4.281 17.7351 4.41143 17.6049L10.0229 11.9998L4.41143 6.39511C4.281 6.26492 4.17753 6.11028 4.10694 5.94005C4.03634 5.76982 4 5.58734 4 5.40306C4 5.21877 4.03634 5.03629 4.10694 4.86606C4.17753 4.69583 4.281 4.54119 4.41143 4.411C4.67496 4.14782 5.03217 4 5.4046 4C5.77703 4 6.13423 4.14782 6.39777 4.411L12.064 10.0713L17.6022 4.53901C17.8658 4.27583 18.223 4.12801 18.5954 4.12801C18.9678 4.12801 19.325 4.27583 19.5886 4.53901C19.719 4.6692 19.8225 4.82384 19.8931 4.99406C19.9637 5.16429 20 5.34677 20 5.53106C20 5.71535 19.9637 5.89783 19.8931 6.06806C19.8225 6.23829 19.719 6.39292 19.5886 6.52311L14.1055 11.9998Z" fill="white"/>
</mask>
<g mask="url(#mask0_971_3370)">
<path d="M14.1055 11.9998L19.5886 17.4769C19.719 17.6071 19.8225 17.7617 19.8931 17.9319C19.9637 18.1022 20 18.2846 20 18.4689C20 18.6532 19.9637 18.8357 19.8931 19.0059C19.8225 19.1762 19.719 19.3308 19.5886 19.461C19.325 19.7242 18.9678 19.872 18.5954 19.872C18.223 19.872 17.8658 19.7242 17.6022 19.461L12.064 13.9287L6.39777 19.589C6.13423 19.8522 5.77703 20 5.4046 20C5.03217 20 4.67496 19.8522 4.41143 19.589C4.281 19.4588 4.17753 19.3042 4.10694 19.1339C4.03634 18.9637 4 18.7812 4 18.5969C4 18.4127 4.03634 18.2302 4.10694 18.0599C4.17753 17.8897 4.281 17.7351 4.41143 17.6049L10.0229 11.9998L4.41143 6.39511C4.281 6.26492 4.17753 6.11028 4.10694 5.94005C4.03634 5.76982 4 5.58734 4 5.40306C4 5.21877 4.03634 5.03629 4.10694 4.86606C4.17753 4.69583 4.281 4.54119 4.41143 4.411C4.67496 4.14782 5.03217 4 5.4046 4C5.77703 4 6.13423 4.14782 6.39777 4.411L12.064 10.0713L17.6022 4.53901C17.8658 4.27583 18.223 4.12801 18.5954 4.12801C18.9678 4.12801 19.325 4.27583 19.5886 4.53901C19.719 4.6692 19.8225 4.82384 19.8931 4.99406C19.9637 5.16429 20 5.34677 20 5.53106C20 5.71535 19.9637 5.89783 19.8931 6.06806C19.8225 6.23829 19.719 6.39292 19.5886 6.52311L14.1055 11.9998Z" fill="#3A74D2"/>
<path fill-rule="evenodd" clip-rule="evenodd" d="M-1.19788 -1.19995H26.0013V26.0015H-1.19788V-1.19995Z" fill="#3A74D2"/>
</g>
</svg>
