<svg width="60" height="60" viewBox="0 0 60 60" fill="none" xmlns="http://www.w3.org/2000/svg">
<path d="M59.2 30C59.2 46.1267 46.1267 59.2 30 59.2C13.8733 59.2 0.8 46.1267 0.8 30C0.8 13.8733 13.8733 0.8 30 0.8C46.1267 0.8 59.2 13.8733 59.2 30Z" fill="#E0FAD0" stroke="#77C479" stroke-width="1.6"/>
<path d="M37.7425 21.7415C33.8172 25.6288 30.2333 29.4405 26.4637 33.2444L22.0323 29.7335C21.34 29.1861 20.4047 29.0452 19.5788 29.3641C18.7528 29.6829 18.1618 30.413 18.0283 31.2792C17.8948 32.1454 18.2392 33.0162 18.9317 33.5635L25.133 38.466C26.1234 39.2456 27.549 39.163 28.4404 38.2745C32.9013 33.8569 36.8978 29.518 41.2566 25.2013C41.9851 24.4949 42.2015 23.4196 41.8018 22.4916C41.4022 21.5635 40.4681 20.9721 39.4479 21.001C38.8037 21.0196 38.192 21.2851 37.7425 21.7415Z" fill="#77C479"/>
</svg>
