<svg width="28" height="28" viewBox="0 0 28 28" fill="none" xmlns="http://www.w3.org/2000/svg">
<circle cx="14" cy="14" r="14" fill="#3A74D2" fill-opacity="0.2"/>
<path d="M14.671 8.0251L23.5626 10.6858C24.1458 10.8603 24.1458 11.7044 23.5626 11.8789L20.3295 12.8462L20.3299 16.7207C20.3299 16.9365 20.2204 17.137 20.0404 17.2501C18.1905 18.4132 16.3236 19 14.4483 19C12.573 19 10.7061 18.4132 8.85618 17.2501C8.67622 17.137 8.56672 16.9365 8.56672 16.7207L8.56638 12.8147L7.55218 12.5113L7.55252 14.8558C7.55252 15.1991 7.28021 15.4775 6.94406 15.4775C6.60809 15.4775 6.33561 15.1991 6.33561 14.8558L6.33527 12.1476L5.43737 11.8789C4.85421 11.7045 4.85421 10.8603 5.43737 10.6858L14.329 8.02511C14.4407 7.99163 14.5594 7.99163 14.6711 8.02511L14.671 8.0251ZM9.78335 13.1789L9.78369 16.3679C11.3508 17.2965 12.9035 17.7565 14.4483 17.7565C15.9932 17.7565 17.5459 17.2965 19.113 16.3679L19.1127 13.2099L14.671 14.5394C14.5593 14.5729 14.4406 14.5729 14.3289 14.5394L9.78335 13.1789ZM14.5002 9.26921L7.77328 11.2821L14.5002 13.2951L21.2275 11.2821L14.5002 9.26921Z" fill="#3A74D2"/>
</svg>
