<svg width="14" height="24" viewBox="0 0 14 24" fill="none" xmlns="http://www.w3.org/2000/svg">
<path id="Mask" fill-rule="evenodd" clip-rule="evenodd" d="M13.4728 0.0049936L10.1148 0C6.34228 0 3.90429 2.31828 3.90429 5.90643V8.62969H0.528007C0.236256 8.62969 0 8.84891 0 9.11932V13.065C0 13.3354 0.236526 13.5544 0.528007 13.5544H3.90429V23.5106C3.90429 23.781 4.14055 24 4.4323 24H8.83738C9.12913 24 9.36539 23.7808 9.36539 23.5106V13.5544H13.3131C13.6048 13.5544 13.8411 13.3354 13.8411 13.065L13.8427 9.11932C13.8427 8.98948 13.7869 8.86514 13.688 8.77326C13.5892 8.68138 13.4545 8.62969 13.3144 8.62969H9.36539V6.32115C9.36539 5.21157 9.65068 4.64829 11.2102 4.64829L13.4723 4.64755C13.7637 4.64755 14 4.42833 14 4.15817V0.494367C14 0.224462 13.764 0.00549296 13.4728 0.0049936Z" fill="#1E2837"/>
</svg>
