<svg width="18" height="18" viewBox="0 0 18 18" fill="none" xmlns="http://www.w3.org/2000/svg">
<g clip-path="url(#clip0_766_7977)">
<path d="M4.31929 10.5435H6.48929V19.477C6.48929 19.6534 6.6322 19.7963 6.80858 19.7963H10.4879C10.6643 19.7963 10.8072 19.6534 10.8072 19.477V10.5856H13.3018C13.464 10.5856 13.6004 10.4639 13.619 10.3028L13.9978 7.01389C14.0082 6.9234 13.9796 6.83279 13.919 6.7649C13.8584 6.69696 13.7717 6.65807 13.6807 6.65807H10.8073V4.59644C10.8073 3.97497 11.1419 3.65982 11.802 3.65982C11.896 3.65982 13.6807 3.65982 13.6807 3.65982C13.8571 3.65982 14 3.51684 14 3.34053V0.321658C14 0.145279 13.8571 0.00236278 13.6807 0.00236278H11.0915C11.0733 0.00146876 11.0327 0 10.973 0C10.5237 0 8.96216 0.0881892 7.72866 1.22296C6.36195 2.48048 6.55193 3.98614 6.59734 4.2472V6.658H4.31929C4.14292 6.658 4 6.80092 4 6.9773V10.2241C4 10.4005 4.14292 10.5435 4.31929 10.5435Z" fill="white"/>
</g>
<defs>
<clipPath id="clip0_766_7977">
<rect width="18" height="18" fill="white"/>
</clipPath>
</defs>
</svg>
