<svg width="24" height="18" viewBox="0 0 24 18" fill="none" xmlns="http://www.w3.org/2000/svg">
<g clip-path="url(#clip0_30048_11691)">
<path d="M0 0H24V18H0V0Z" fill="white"/>
<path d="M10.1992 0H13.7992V18H10.1992V0Z" fill="#FF0000"/>
<path d="M0 7.19995H24V10.8H0V7.19995Z" fill="#FF0000"/>
<g style="mix-blend-mode:multiply">
<path fill-rule="evenodd" clip-rule="evenodd" d="M5.50539 13.9912C5.54289 13.3612 5.65539 12.8249 5.65539 12.8249C5.65539 12.8249 5.28789 12.8624 5.10039 12.8624C4.91664 12.8624 4.54539 12.8249 4.54539 12.8249C4.54539 12.8249 4.65789 13.3612 4.69539 13.9949C4.06164 13.9574 3.52539 13.8449 3.52539 13.8449C3.52539 13.8449 3.56289 14.1224 3.56289 14.3999C3.56289 14.6774 3.52539 14.9549 3.52539 14.9549C3.52539 14.9549 4.06164 14.8424 4.69539 14.8049C4.65789 15.4387 4.54539 15.9749 4.54539 15.9749C4.54539 15.9749 4.82289 15.9374 5.10039 15.9374C5.37789 15.9374 5.65539 15.9749 5.65539 15.9749C5.65539 15.9749 5.54289 15.4387 5.50539 14.8049C6.13914 14.8424 6.67539 14.9549 6.67539 14.9549C6.67539 14.9549 6.63789 14.5874 6.63789 14.3999C6.63789 14.2162 6.67539 13.8449 6.67539 13.8449C6.67539 13.8449 6.13914 13.9574 5.50914 13.9949L5.50539 13.9912ZM19.3054 3.19115C19.3429 2.56115 19.4554 2.0249 19.4554 2.0249C19.4554 2.0249 19.0879 2.0624 18.9004 2.0624C18.7166 2.0624 18.3454 2.0249 18.3454 2.0249C18.3454 2.0249 18.4579 2.56115 18.4954 3.19115C17.8616 3.15365 17.3254 3.0449 17.3254 3.0449C17.3254 3.0449 17.3629 3.3224 17.3629 3.5999C17.3629 3.8774 17.3254 4.1549 17.3254 4.1549C17.3254 4.1549 17.8616 4.0424 18.4954 4.0049C18.4579 4.63865 18.3454 5.1749 18.3454 5.1749C18.3454 5.1749 18.6229 5.1374 18.9004 5.1374C19.1779 5.1374 19.4554 5.1749 19.4554 5.1749C19.4554 5.1749 19.3429 4.63865 19.3054 4.00865C19.9391 4.04615 20.4754 4.15865 20.4754 4.15865C20.4754 4.15865 20.4379 3.78365 20.4379 3.5999C20.4379 3.41615 20.4754 3.0449 20.4754 3.0449C20.4754 3.0449 19.9391 3.1574 19.3054 3.1949V3.19115ZM5.50539 3.19115C5.54289 2.56115 5.65539 2.0249 5.65539 2.0249C5.65539 2.0249 5.28789 2.0624 5.10039 2.0624C4.91664 2.0624 4.54539 2.0249 4.54539 2.0249C4.54539 2.0249 4.65789 2.56115 4.69539 3.1949C4.06164 3.1574 3.52539 3.0449 3.52539 3.0449C3.52539 3.0449 3.56289 3.3224 3.56289 3.5999C3.56289 3.8774 3.52539 4.1549 3.52539 4.1549C3.52539 4.1549 4.06164 4.0424 4.69539 4.0049C4.65789 4.63865 4.54539 5.1749 4.54539 5.1749C4.54539 5.1749 4.82289 5.1374 5.10039 5.1374C5.37789 5.1374 5.65539 5.1749 5.65539 5.1749C5.65539 5.1749 5.54289 4.63865 5.50539 4.0049C6.13914 4.0424 6.67539 4.1549 6.67539 4.1549C6.67539 4.1549 6.63789 3.7874 6.63789 3.5999C6.63789 3.41615 6.67539 3.0449 6.67539 3.0449C6.67539 3.0449 6.13914 3.1574 5.50914 3.1949L5.50539 3.19115ZM19.3054 13.9912C19.3429 13.3612 19.4554 12.8249 19.4554 12.8249C19.4554 12.8249 19.0879 12.8624 18.9004 12.8624C18.7166 12.8624 18.3454 12.8249 18.3454 12.8249C18.3454 12.8249 18.4579 13.3612 18.4954 13.9949C17.8616 13.9574 17.3254 13.8449 17.3254 13.8449C17.3254 13.8449 17.3629 14.1224 17.3629 14.3999C17.3629 14.6774 17.3254 14.9549 17.3254 14.9549C17.3254 14.9549 17.8616 14.8424 18.4954 14.8049C18.4579 15.4387 18.3454 15.9749 18.3454 15.9749C18.3454 15.9749 18.6229 15.9374 18.9004 15.9374C19.1779 15.9374 19.4554 15.9749 19.4554 15.9749C19.4554 15.9749 19.3429 15.4387 19.3054 14.8049C19.9391 14.8424 20.4754 14.9549 20.4754 14.9549C20.4754 14.9549 20.4379 14.5874 20.4379 14.3999C20.4379 14.2162 20.4754 13.8449 20.4754 13.8449C20.4754 13.8449 19.9391 13.9574 19.3054 13.9949V13.9912Z" fill="#FF0000"/>
</g>
</g>
<defs>
<clipPath id="clip0_30048_11691">
<rect width="24" height="18" rx="2" fill="white"/>
</clipPath>
</defs>
</svg>
