<svg width="24" height="19" viewBox="0 0 24 19" fill="none" xmlns="http://www.w3.org/2000/svg">
<g clip-path="url(#clip0_33469_3064)">
<path d="M0 0.5H24V18.5H0V0.5Z" fill="white"/>
<path d="M10.1992 0.5H13.7992V18.5H10.1992V0.5Z" fill="#FF0000"/>
<path d="M0 7.7002H24V11.3002H0V7.7002Z" fill="#FF0000"/>
<g style="mix-blend-mode:multiply">
<path fill-rule="evenodd" clip-rule="evenodd" d="M5.50539 14.4916C5.54289 13.8616 5.65539 13.3254 5.65539 13.3254C5.65539 13.3254 5.28789 13.3629 5.10039 13.3629C4.91664 13.3629 4.54539 13.3254 4.54539 13.3254C4.54539 13.3254 4.65789 13.8616 4.69539 14.4954C4.06164 14.4579 3.52539 14.3454 3.52539 14.3454C3.52539 14.3454 3.56289 14.6229 3.56289 14.9004C3.56289 15.1779 3.52539 15.4554 3.52539 15.4554C3.52539 15.4554 4.06164 15.3429 4.69539 15.3054C4.65789 15.9391 4.54539 16.4754 4.54539 16.4754C4.54539 16.4754 4.82289 16.4379 5.10039 16.4379C5.37789 16.4379 5.65539 16.4754 5.65539 16.4754C5.65539 16.4754 5.54289 15.9391 5.50539 15.3054C6.13914 15.3429 6.67539 15.4554 6.67539 15.4554C6.67539 15.4554 6.63789 15.0879 6.63789 14.9004C6.63789 14.7166 6.67539 14.3454 6.67539 14.3454C6.67539 14.3454 6.13914 14.4579 5.50914 14.4954L5.50539 14.4916ZM19.3054 3.69164C19.3429 3.06164 19.4554 2.52539 19.4554 2.52539C19.4554 2.52539 19.0879 2.56289 18.9004 2.56289C18.7166 2.56289 18.3454 2.52539 18.3454 2.52539C18.3454 2.52539 18.4579 3.06164 18.4954 3.69164C17.8616 3.65414 17.3254 3.54539 17.3254 3.54539C17.3254 3.54539 17.3629 3.82289 17.3629 4.10039C17.3629 4.37789 17.3254 4.65539 17.3254 4.65539C17.3254 4.65539 17.8616 4.54289 18.4954 4.50539C18.4579 5.13914 18.3454 5.67539 18.3454 5.67539C18.3454 5.67539 18.6229 5.63789 18.9004 5.63789C19.1779 5.63789 19.4554 5.67539 19.4554 5.67539C19.4554 5.67539 19.3429 5.13914 19.3054 4.50914C19.9391 4.54664 20.4754 4.65914 20.4754 4.65914C20.4754 4.65914 20.4379 4.28414 20.4379 4.10039C20.4379 3.91664 20.4754 3.54539 20.4754 3.54539C20.4754 3.54539 19.9391 3.65789 19.3054 3.69539V3.69164ZM5.50539 3.69164C5.54289 3.06164 5.65539 2.52539 5.65539 2.52539C5.65539 2.52539 5.28789 2.56289 5.10039 2.56289C4.91664 2.56289 4.54539 2.52539 4.54539 2.52539C4.54539 2.52539 4.65789 3.06164 4.69539 3.69539C4.06164 3.65789 3.52539 3.54539 3.52539 3.54539C3.52539 3.54539 3.56289 3.82289 3.56289 4.10039C3.56289 4.37789 3.52539 4.65539 3.52539 4.65539C3.52539 4.65539 4.06164 4.54289 4.69539 4.50539C4.65789 5.13914 4.54539 5.67539 4.54539 5.67539C4.54539 5.67539 4.82289 5.63789 5.10039 5.63789C5.37789 5.63789 5.65539 5.67539 5.65539 5.67539C5.65539 5.67539 5.54289 5.13914 5.50539 4.50539C6.13914 4.54289 6.67539 4.65539 6.67539 4.65539C6.67539 4.65539 6.63789 4.28789 6.63789 4.10039C6.63789 3.91664 6.67539 3.54539 6.67539 3.54539C6.67539 3.54539 6.13914 3.65789 5.50914 3.69539L5.50539 3.69164ZM19.3054 14.4916C19.3429 13.8616 19.4554 13.3254 19.4554 13.3254C19.4554 13.3254 19.0879 13.3629 18.9004 13.3629C18.7166 13.3629 18.3454 13.3254 18.3454 13.3254C18.3454 13.3254 18.4579 13.8616 18.4954 14.4954C17.8616 14.4579 17.3254 14.3454 17.3254 14.3454C17.3254 14.3454 17.3629 14.6229 17.3629 14.9004C17.3629 15.1779 17.3254 15.4554 17.3254 15.4554C17.3254 15.4554 17.8616 15.3429 18.4954 15.3054C18.4579 15.9391 18.3454 16.4754 18.3454 16.4754C18.3454 16.4754 18.6229 16.4379 18.9004 16.4379C19.1779 16.4379 19.4554 16.4754 19.4554 16.4754C19.4554 16.4754 19.3429 15.9391 19.3054 15.3054C19.9391 15.3429 20.4754 15.4554 20.4754 15.4554C20.4754 15.4554 20.4379 15.0879 20.4379 14.9004C20.4379 14.7166 20.4754 14.3454 20.4754 14.3454C20.4754 14.3454 19.9391 14.4579 19.3054 14.4954V14.4916Z" fill="#FF0000"/>
</g>
</g>
<defs>
<clipPath id="clip0_33469_3064">
<rect y="0.5" width="24" height="18" rx="2" fill="white"/>
</clipPath>
</defs>
</svg>
