<svg width="24" height="24" viewBox="0 0 24 24" fill="none" xmlns="http://www.w3.org/2000/svg">
<path d="M23.094 9.91362L13.3046 9.91315C12.8724 9.91315 12.522 10.2635 12.522 10.6958V13.823C12.522 14.2552 12.8724 14.6057 13.3046 14.6057H18.8174C18.2137 16.1723 17.087 17.4843 15.6496 18.3179L18.0002 22.3871C21.7709 20.2063 24.0002 16.3799 24.0002 12.0966C24.0002 11.4867 23.9553 11.0507 23.8654 10.5598C23.797 10.1868 23.4732 9.91362 23.094 9.91362Z" fill="#1E2837"/>
<path d="M11.9998 19.3045C9.30195 19.3045 6.94676 17.8305 5.68183 15.6492L1.61279 17.9946C3.6835 21.5834 7.5626 24.0002 11.9998 24.0002C14.1765 24.0002 16.2305 23.4141 17.9998 22.3927V22.3872L15.6492 18.3179C14.5739 18.9416 13.3297 19.3045 11.9998 19.3045Z" fill="#1E2837"/>
<path d="M18 22.3927V22.3871L15.6494 18.3178C14.5741 18.9414 13.33 19.3044 12 19.3044V24.0001C14.1767 24.0001 16.2308 23.414 18 22.3927Z" fill="#1E2837"/>
<path d="M4.69567 12.0001C4.69567 10.6703 5.05857 9.42616 5.68206 8.35099L1.61302 6.00564C0.586032 7.76941 0 9.81775 0 12.0001C0 14.1824 0.586032 16.2307 1.61302 17.9945L5.68206 15.6492C5.05857 14.574 4.69567 13.3299 4.69567 12.0001Z" fill="#1E2837"/>
<path d="M11.9998 4.69567C13.7591 4.69567 15.375 5.32079 16.6372 6.36062C16.9486 6.61712 17.4012 6.59861 17.6865 6.31337L19.9022 4.09759C20.2259 3.77396 20.2028 3.24423 19.8571 2.94432C17.7423 1.10967 14.9908 0 11.9998 0C7.5626 0 3.6835 2.41674 1.61279 6.00559L5.68183 8.35094C6.94676 6.1697 9.30195 4.69567 11.9998 4.69567Z" fill="#1E2837"/>
<path d="M16.6375 6.36062C16.9488 6.61712 17.4015 6.59861 17.6867 6.31337L19.9024 4.09759C20.226 3.77396 20.203 3.24423 19.8573 2.94432C17.7425 1.10963 14.991 0 12 0V4.69567C13.7592 4.69567 15.3752 5.32079 16.6375 6.36062Z" fill="#1E2837"/>
</svg>
