<svg width="40" height="40" viewBox="0 0 40 40" fill="none" xmlns="http://www.w3.org/2000/svg">
<path d="M39.5 20C39.5 30.7696 30.7696 39.5 20 39.5C9.23045 39.5 0.5 30.7696 0.5 20C0.5 9.23045 9.23045 0.5 20 0.5C30.7696 0.5 39.5 9.23045 39.5 20Z" fill="#3A74D2" fill-opacity="0.1" stroke="#3A74D2"/>
<path d="M17.3944 27.0406V24.2294C17.3944 23.5144 17.9774 22.9334 18.6996 22.9286H21.3452C22.0708 22.9286 22.6591 23.511 22.6591 24.2294V24.2294V27.0493C22.659 27.6564 23.1484 28.1526 23.7614 28.1668H25.5252C27.2834 28.1668 28.7087 26.7558 28.7087 25.0152V25.0152V17.0182C28.6993 16.3334 28.3745 15.6904 27.8268 15.2721L21.7949 10.4617C20.7382 9.6241 19.236 9.6241 18.1793 10.4617L12.1738 15.2808C11.6241 15.6974 11.2988 16.3415 11.292 17.0269V25.0152C11.292 26.7558 12.7173 28.1668 14.4755 28.1668H16.2392C16.8675 28.1668 17.3768 27.6626 17.3768 27.0406V27.0406" stroke="#3A74D2" stroke-linecap="round" stroke-linejoin="round"/>
</svg>
