<svg width="40" height="40" viewBox="0 0 40 40" fill="none" xmlns="http://www.w3.org/2000/svg">
<path d="M39.5 20C39.5 30.7696 30.7696 39.5 20 39.5C9.23045 39.5 0.5 30.7696 0.5 20C0.5 9.23045 9.23045 0.5 20 0.5C30.7696 0.5 39.5 9.23045 39.5 20Z" fill="#3A74D2" fill-opacity="0.1" stroke="#3A74D2"/>
<path d="M23.6982 9.27441H16.1057C15.23 9.27515 14.3907 9.62321 13.7716 10.2423C13.1525 10.8614 12.8044 11.7009 12.8037 12.5764V29.7801C12.8037 29.9195 12.8591 30.0533 12.9577 30.1518C13.0562 30.2505 13.1901 30.3058 13.3295 30.3058H26.4742C26.6136 30.3058 26.7475 30.2505 26.846 30.1518C26.9446 30.0533 27 29.9195 27 29.7801V12.5764C26.9993 11.7009 26.6512 10.8614 26.0321 10.2423C25.413 9.62317 24.5737 9.27512 23.698 9.27441H23.6982ZM16.7474 29.2545V24.5224H19.3764V29.2545H16.7474ZM20.4279 29.2545V24.5224H23.0568V29.2545H20.4279ZM25.9487 29.2545H24.1085V23.9966C24.1085 23.857 24.0531 23.7233 23.9544 23.6247C23.8558 23.526 23.7221 23.4706 23.5825 23.4706H16.2214C15.931 23.4706 15.6955 23.7061 15.6955 23.9966V29.2545H13.8553V12.5761C13.856 11.9796 14.0933 11.4074 14.5153 10.9856C14.9371 10.5637 15.509 10.3264 16.1058 10.3256H23.6983C24.295 10.3263 24.867 10.5636 25.2888 10.9856C25.7107 11.4074 25.948 11.9796 25.9488 12.5761L25.9487 29.2545Z" fill="#3A74D2"/>
<path d="M18.1939 14.7956H19.3769V15.9785C19.3769 16.2688 19.6122 16.5043 19.9026 16.5043C20.1931 16.5043 20.4284 16.2688 20.4284 15.9785V14.7956H21.6114C21.9018 14.7956 22.1373 14.5601 22.1373 14.2696C22.1373 13.9793 21.9018 13.7439 21.6114 13.7439H20.4284V12.5609C20.4284 12.2704 20.1931 12.0352 19.9026 12.0352C19.6122 12.0352 19.3769 12.2704 19.3769 12.5609V13.7439H18.1939C17.9034 13.7439 17.668 13.9793 17.668 14.2696C17.668 14.5601 17.9034 14.7956 18.1939 14.7956Z" fill="#3A74D2"/>
<path d="M23.8452 18.4756H15.9584C15.6679 18.4756 15.4326 18.7111 15.4326 19.0013V20.8416C15.4326 20.9811 15.488 21.1148 15.5867 21.2135C15.6851 21.3121 15.819 21.3675 15.9584 21.3675H23.8452C23.9846 21.3675 24.1185 21.3121 24.217 21.2135C24.3156 21.1148 24.371 20.9811 24.371 20.8416V19.0013C24.371 18.862 24.3156 18.7281 24.217 18.6296C24.1185 18.531 23.9846 18.4756 23.8452 18.4756L23.8452 18.4756ZM23.3195 20.3158H16.4842V19.5271H23.3195V20.3158Z" fill="#3A74D2"/>
</svg>
