<svg width="20" height="20" viewBox="0 0 20 20" fill="none" xmlns="http://www.w3.org/2000/svg">
<path d="M7.63069 17.3093V14.7537C7.63067 14.1037 8.16061 13.5755 8.81718 13.5712H11.2222C11.882 13.5712 12.4168 14.1006 12.4168 14.7537V14.7537V17.3173C12.4166 17.8692 12.8616 18.3202 13.4189 18.3332H15.0222C16.6206 18.3332 17.9163 17.0504 17.9163 15.468V15.468V8.19803C17.9078 7.57553 17.6126 6.99096 17.1147 6.6107L11.6311 2.23759C10.6705 1.47614 9.30484 1.47614 8.34419 2.23759L2.8847 6.61863C2.38489 6.99736 2.08916 7.58289 2.08301 8.20597V15.468C2.08301 17.0504 3.37874 18.3332 4.9771 18.3332H6.58048C7.15164 18.3332 7.61465 17.8748 7.61465 17.3093V17.3093" stroke="#3A74D2" stroke-width="0.8" stroke-linecap="round" stroke-linejoin="round"/>
</svg>
