<svg width="24" height="24" viewBox="0 0 24 24" fill="none" xmlns="http://www.w3.org/2000/svg">
<path fill-rule="evenodd" clip-rule="evenodd" d="M12 2C9.28417 2 8.94417 2.01167 7.8775 2.06C4.24583 2.22667 2.2275 4.24167 2.06083 7.87667C2.01167 8.94417 2 9.28417 2 12C2 14.7158 2.01167 15.0567 2.06 16.1233C2.22667 19.755 4.24167 21.7733 7.87667 21.94C8.94417 21.9883 9.28417 22 12 22C14.7158 22 15.0567 21.9883 16.1233 21.94C19.7517 21.7733 21.775 19.7583 21.9392 16.1233C21.9883 15.0567 22 14.7158 22 12C22 9.28417 21.9883 8.94417 21.94 7.8775C21.7767 4.24917 19.7592 2.2275 16.1242 2.06083C15.0567 2.01167 14.7158 2 12 2ZM12.0001 3.80255C14.6701 3.80255 14.9868 3.81255 16.0418 3.86088C18.7518 3.98422 20.0176 5.27005 20.1409 7.96005C20.1893 9.01422 20.1984 9.33088 20.1984 12.0009C20.1984 14.6717 20.1884 14.9876 20.1409 16.0417C20.0168 18.7292 18.7543 20.0176 16.0418 20.1409C14.9868 20.1892 14.6718 20.1992 12.0001 20.1992C9.33009 20.1992 9.01342 20.1892 7.95926 20.1409C5.24259 20.0167 3.98342 18.725 3.86009 16.0409C3.81176 14.9867 3.80176 14.6709 3.80176 12.0001C3.80176 9.33005 3.81259 9.01422 3.86009 7.95922C3.98426 5.27005 5.24676 3.98338 7.95926 3.86005C9.01426 3.81255 9.33009 3.80255 12.0001 3.80255ZM6.86534 12.0003C6.86534 9.1645 9.1645 6.86534 12.0003 6.86534C14.8362 6.86534 17.1353 9.1645 17.1353 12.0003C17.1353 14.837 14.8362 17.1362 12.0003 17.1362C9.1645 17.1362 6.86534 14.8362 6.86534 12.0003ZM12.0002 15.3335C10.1593 15.3335 8.66684 13.8418 8.66684 12.0002C8.66684 10.1593 10.1593 8.66684 12.0002 8.66684C13.841 8.66684 15.3335 10.1593 15.3335 12.0002C15.3335 13.8418 13.841 15.3335 12.0002 15.3335ZM16.1375 6.66268C16.1375 6.00019 16.675 5.46269 17.3384 5.46269C18.0009 5.46269 18.5375 6.00019 18.5375 6.66268C18.5375 7.32518 18.0009 7.86268 17.3384 7.86268C16.675 7.86268 16.1375 7.32518 16.1375 6.66268Z" fill="#1E2837"/>
</svg>
