<svg width="40" height="42" viewBox="0 0 40 42" fill="none" xmlns="http://www.w3.org/2000/svg">
<path d="M39.5 20C39.5 30.7696 30.7696 39.5 20 39.5C9.23045 39.5 0.5 30.7696 0.5 20C0.5 9.23045 9.23045 0.5 20 0.5C30.7696 0.5 39.5 9.23045 39.5 20Z" fill="#3A74D2" fill-opacity="0.1" stroke="#3A74D2"/>
<path d="M26.6261 16.9929C26.807 17.1737 27.1001 17.1737 27.2807 16.9929L29.245 15.0282C29.3318 14.9416 29.3806 14.8238 29.3806 14.701C29.3806 14.5782 29.3318 14.4604 29.245 14.3736L24.0069 9.13549C23.826 8.95484 23.5329 8.95484 23.352 9.13549L21.3876 11.0997C21.2067 11.2804 21.2067 11.5735 21.3876 11.7543L26.6261 16.9929ZM23.6794 10.1177L28.2631 14.7012L26.9535 16.011L22.3698 11.4273L23.6794 10.1177Z" fill="#3A74D2"/>
<path d="M30.0769 18.9344C29.8983 18.7653 29.6188 18.7653 29.4403 18.9344C29.141 19.2178 26.5176 21.7525 26.5176 23.4373C26.5176 24.5953 27.1354 25.6651 28.1381 26.2441C29.1408 26.823 30.3764 26.823 31.3791 26.2441C32.3818 25.6651 32.9996 24.5953 32.9996 23.4373C32.9996 21.7525 30.3762 19.2178 30.0769 18.9344H30.0769ZM29.7586 25.7524C29.1448 25.7518 28.5564 25.5075 28.1223 25.0737C27.6885 24.6396 27.4442 24.0511 27.4435 23.4374C27.4435 22.5629 28.7544 20.9389 29.7586 19.9197C30.7627 20.9389 32.0736 22.5629 32.0736 23.4374C32.0729 24.0511 31.8286 24.6396 31.3948 25.0737C30.9607 25.5075 30.3723 25.7518 29.7586 25.7524Z" fill="#3A74D2"/>
<path d="M25.3557 16.4928H18.6166L21.7152 13.3942C21.895 13.2131 21.8946 12.9209 21.7143 12.7404C21.5341 12.5598 21.2418 12.5592 21.0606 12.7386L17.1801 16.6193C17.1722 16.6266 17.165 16.6338 17.1577 16.6417L8.94966 24.8497C8.13091 25.6678 7.81094 26.8605 8.11028 27.9785C8.40961 29.0965 9.28243 29.9698 10.4003 30.2697C11.5179 30.5697 12.7109 30.2503 13.5294 29.4322L25.6463 17.3249C25.6556 17.3158 25.6585 17.3038 25.6666 17.2943V17.2945C25.7629 17.2081 25.8183 17.0849 25.8189 16.9555C25.8189 16.8327 25.7701 16.7149 25.6833 16.6281C25.5965 16.5413 25.4787 16.4925 25.3559 16.4925L25.3557 16.4928ZM12.8738 28.7785C12.2892 29.3626 11.4374 29.5908 10.6392 29.3767C9.84097 29.1625 9.21754 28.5389 9.00381 27.7405C8.79009 26.9422 9.01849 26.0904 9.60302 25.5063L17.6904 17.4188H24.2418L12.8738 28.7785Z" fill="#3A74D2"/>
</svg>
