<svg width="15" height="16" viewBox="0 0 15 16" fill="none" xmlns="http://www.w3.org/2000/svg">
<path d="M6.72843 1L5.75246 1.89861L5.63093 2.00081L5.63474 3.26572L5.50353 3.3035L5.39586 3.33778L5.28195 3.36984L5.19575 3.40411L5.09604 3.43999L4.98629 3.47775L4.88831 3.52092L4.78826 3.56028L4.69825 3.59996L4.62173 3.63234L4.52756 3.679L4.45312 3.71868L4.3766 3.75803L4.28278 3.8047L4.208 3.84247L4.10034 3.90183L3.98262 3.97198L3.85556 4.05101L3.75758 4.11005L3.64576 4.18751L3.57513 4.23765L3.48511 4.30241L3.40272 4.36176L3.31443 4.42652L3.2341 4.48587L3.17144 4.54333L3.09494 4.60776L2.95575 4.72839L2.89516 4.78203L2.84601 4.829L2.77953 4.88805L2.69921 4.9674L2.6227 5.04263L2.57388 5.10198L2.51294 5.16292L2.45825 5.22959L2.40319 5.29434L2.35023 5.35877L2.29553 5.42003L2.24636 5.48098L2.19548 5.53875L2.15635 5.5924L2.11134 5.65905L2.06425 5.7292L2.02305 5.77936L1.98394 5.83331L1.923 5.92313L1.89565 5.97519L1.86241 6.02916L1.81532 6.0993L1.77829 6.15295L1.75647 6.20691L1.71147 6.27705L1.66854 6.34879L1.62145 6.43704L1.58613 6.51957L1.54701 6.60749L1.50754 6.68145L1.47638 6.74588L1.44696 6.82143L1.40196 6.91475L1.36664 7.01188L1.31574 7.15027L1.28805 7.2347L1.25689 7.32994L1.22954 7.41786L1.20599 7.5061L1.14506 7.75019L1.12948 7.82573L1.10386 7.91398L1.0862 8.02158L1.07444 8.09364L1.05678 8.20664L1.03947 8.33075L1.02182 8.52818L1.00796 8.66657L1.00208 8.77259L1 8.9002L1.00208 9.21094L1.00589 9.31347L1.01765 9.46075L1.02769 9.58105L1.03739 9.66739L1.04709 9.75912L1.05678 9.83276L1.07444 9.9245L1.08829 10.0124L1.10213 10.0915L1.11979 10.1705L1.13537 10.2387L1.15892 10.334L1.18038 10.4168L1.20012 10.5013L1.23127 10.5927L1.25689 10.6863L1.28216 10.7653L1.3057 10.8336L1.33133 10.9126L1.36076 10.9863L1.39018 11.0653L1.42342 11.1424L1.45284 11.2107L1.48019 11.27L1.51758 11.3545L1.55463 11.4373L1.59583 11.5145L1.63115 11.5916L1.66646 11.6547L1.70177 11.7122L1.74297 11.7947L1.78001 11.8576L1.81741 11.9223L1.8586 11.9871L1.88387 12.0284L1.9095 12.0677L1.94655 12.1236L1.98013 12.1756L2.01129 12.2206L2.04868 12.2673L2.07984 12.3175L2.129 12.3857L2.17193 12.4432L2.21901 12.501L2.25225 12.5477L2.28964 12.5924L2.33673 12.6482L2.37584 12.6949L2.43055 12.7559L2.49945 12.8314L2.55622 12.8996L2.6227 12.9663L2.67186 13.0218L2.72448 13.0704L2.7875 13.1313L2.84427 13.1891L2.90105 13.2413L2.94398 13.2789L2.99695 13.3237L3.052 13.3741L3.09909 13.4136L3.14998 13.4567L3.19118 13.4925L3.24588 13.5357L3.29678 13.5789L3.34213 13.6075L3.38298 13.6436L3.42626 13.6742L3.46157 13.6973L3.50069 13.7262L3.54778 13.7605L3.59278 13.7925L3.64195 13.8249L3.69457 13.8608L3.74166 13.8932L3.77489 13.9131L3.80259 13.9328L3.83375 13.9526L3.86734 13.9741L3.89641 13.9922L3.92203 14.0046H2.0878L1.00208 15H11.9137L12.9956 14.0046L7.30834 14.003L7.18509 14.0011L7.03587 13.9867L6.82052 13.9706L6.62249 13.9347L6.46981 13.9094L6.3109 13.8753L6.1738 13.8484L6.02285 13.8141L5.92279 13.7871L5.76423 13.7351L5.62886 13.6903L5.51323 13.6526L5.40555 13.6113L5.29373 13.5593L5.19194 13.5141L5.06072 13.4586L4.93125 13.3938L4.81561 13.331L4.70412 13.2697L4.61964 13.2195L4.5099 13.1603L4.40984 13.092L4.32364 13.0415L4.2395 12.9841L4.1436 12.9105L4.04563 12.8387L3.94557 12.7578L3.84967 12.6822L3.74754 12.5908L3.65372 12.5064L3.58897 12.4486L3.51247 12.3641L3.45187 12.3051L3.39094 12.2457L3.31443 12.1594L3.2303 12.0642C3.2303 12.0642 3.15586 11.9727 3.15586 11.9655C3.15586 11.9583 3.08316 11.881 3.08316 11.881L3.0011 11.7677L2.93429 11.6779L2.86781 11.5827L2.80515 11.484L2.75218 11.4011L2.70717 11.3186L2.64036 11.2053L2.58946 11.0977L2.54029 10.9932L2.48559 10.8856L2.4482 10.8047L2.41704 10.7311L2.38381 10.6377L2.33845 10.5082L2.29172 10.3717L2.24463 10.2191L2.2152 10.088L2.1837 9.94418L2.15428 9.82197L2.13488 9.67628L2.11896 9.53979L2.10338 9.38521L2.09577 9.29538L2.0878 9.19127V9.09604L2.08988 9.00622L2.09577 8.91289L2.09957 8.7637L2.10719 8.6523L2.11307 8.53549L2.12312 8.45454L2.13869 8.34313L2.15635 8.24092L2.17019 8.13649L2.18959 8.04857L2.2152 7.93905L2.23459 7.84923L2.25225 7.78098L2.27787 7.69115L2.30522 7.6137L2.33673 7.5061L2.36788 7.42865L2.40908 7.32105L2.4482 7.22042L2.48767 7.13219L2.53061 7.02077L2.58565 6.91317L2.62477 6.84841L2.66978 6.76049L2.72067 6.66685L2.76187 6.5967L2.81866 6.50528L2.8834 6.41356L2.92668 6.34182L2.97756 6.27357L3.052 6.17454L3.11466 6.09201L3.17144 6.01487L3.2303 5.94282L3.28119 5.87807L3.32828 5.8295L3.38505 5.77205L3.43007 5.72L3.47334 5.67683L3.52631 5.62857L3.57132 5.5781L3.63779 5.52256L3.69665 5.46669L3.81436 5.36259L3.85556 5.32291L3.91026 5.27814L3.96531 5.23307L4.01412 5.19181L4.07298 5.14515L4.14153 5.09659L4.20628 5.05183L4.27102 5.00485L4.33749 4.9674L4.4178 4.91153L4.49432 4.86137L4.57672 4.81282L4.63523 4.77314L4.71382 4.73187L4.78445 4.6922L4.83707 4.66014L4.90389 4.63315L4.95478 4.60428L5.02333 4.57189L5.09985 4.53603L5.17635 4.50365L5.22136 4.47858L5.29373 4.4535L5.35639 4.42811L5.42909 4.39764L5.48795 4.37447L5.54646 4.35287L5.60358 4.33479L5.63474 4.32208V9.00622L6.72635 8.0092L6.72843 4.0634L6.74193 4.058L6.78902 4.05101L6.84406 4.04562L6.9185 4.03483L6.99086 4.02942L7.03691 4.02784L7.03795 4.02848L7.05664 4.03038L7.1477 4.02118L7.24567 4.01577L7.36407 4.01229L7.72968 4.01038L7.86297 4.01673L7.97652 4.02403L8.06204 4.03101L8.1434 4.03927L8.23134 4.04911L8.29711 4.058L8.35598 4.0653L8.3577 9.00812L9.45243 8.01079V4.3259L9.46904 4.33034L9.50609 4.34462L9.55802 4.36368L9.62761 4.38684L9.67573 4.40843L9.74637 4.43636L9.8246 4.46873L9.89731 4.50111L9.96863 4.53413L10.0472 4.56936L10.1341 4.61157L10.1961 4.6411L10.2508 4.66807L10.2968 4.69696L10.3509 4.72553L10.3948 4.74711L10.4516 4.78203L10.5008 4.81186L10.5606 4.84519L10.6126 4.87725L10.6645 4.91153L10.7171 4.94645L10.7691 4.97978L10.83 5.02199L10.8857 5.06167L10.929 5.0931L10.9751 5.12706L11.0249 5.16292L11.0789 5.20356L11.1437 5.2591L11.1994 5.30323L11.2524 5.34988L11.3102 5.39655L11.367 5.45051L11.4099 5.48288L11.4501 5.52256L11.5148 5.58541L11.5709 5.64001L11.609 5.68063L11.6492 5.7219L11.709 5.78379L11.7717 5.85394L11.8246 5.91234L11.8548 5.95552L11.8932 6.00662L11.941 6.06248L11.9794 6.11009L12.0164 6.15772L12.0529 6.20596L12.0961 6.26436L12.1332 6.31928L12.1674 6.36593L12.1978 6.4072L12.2291 6.45228L12.2596 6.49703L12.2879 6.5475L12.3135 6.59321L12.3458 6.64812L12.3741 6.69033L12.3959 6.73064L12.4212 6.78017L12.4437 6.81603L12.4656 6.8573L12.4997 6.92396L12.534 6.99664L12.5534 7.03442L12.5721 7.07473L12.5908 7.11441L12.6075 7.15471L12.6272 7.20518L12.6438 7.2455L12.6674 7.29026L12.6829 7.32708L12.6958 7.3639L12.7134 7.41341L12.7251 7.44864L12.7418 7.4969L12.7574 7.54927L12.775 7.60196L12.7955 7.65687L12.8152 7.72892L12.8328 7.78797L12.8564 7.88509L12.8691 7.93525L12.8827 7.99111L12.8982 8.06666L12.9024 8.08094L12.9131 8.1403L12.9277 8.21044L12.9377 8.28663L12.9485 8.36217L12.9613 8.45835L12.972 8.54628L12.9796 8.65039L12.9866 8.74307L12.9945 8.86432L12.9993 9.00081L14.0058 8.07808L14.0075 8.06126L14.0016 8.02158L13.993 7.97238L13.9833 7.92096L13.9754 7.88065L13.9636 7.81876L13.9487 7.76479L13.939 7.71433L13.9154 7.6283L13.9037 7.58227L13.8881 7.52673L13.8694 7.46388L13.8538 7.41151L13.8382 7.35787L13.8233 7.3147L13.8078 7.26423L13.7881 7.20773L13.7676 7.14837L13.7403 7.07377L13.7184 7.01474L13.6981 6.95696L13.6735 6.90142L13.653 6.85381L13.6274 6.78461L13.6022 6.7316L13.5792 6.68494L13.553 6.62749L13.5273 6.57448L13.4962 6.50687L13.4706 6.45386L13.4422 6.40561L13.411 6.3453L13.3854 6.29959L13.3531 6.23833L13.3255 6.19262L13.2971 6.14407L13.2649 6.09201L13.2276 6.03455L13.1933 5.97615L13.1631 5.93012L13.1317 5.87997L13.1012 5.8368L13.0701 5.7857L13.0416 5.74507L13.0063 5.69936L12.9817 5.66349L12.9561 5.63302L12.918 5.57906L12.8788 5.52859L12.8447 5.48478L12.8131 5.44416L12.7761 5.39845L12.7377 5.35274L12.6985 5.30672L12.676 5.27624L12.6407 5.23942L12.6182 5.21435L12.5801 5.17118L12.5448 5.13245L12.5056 5.09024L12.4458 5.02548L12.3959 4.97343L12.3499 4.93121L12.3056 4.88646L12.2567 4.84138L12.1851 4.77408L12.1235 4.72108L12.0726 4.67537L12.0106 4.61951L11.9548 4.5703L11.9056 4.53254L11.8413 4.47667L11.7873 4.43636L11.7422 4.39858L11.6824 4.35637L11.6315 4.31859L11.5726 4.27447L11.5159 4.23606L11.4532 4.1948L11.3974 4.15862L11.3337 4.11291L11.2728 4.07323L11.224 4.04022L11.1728 4.00976L11.1191 3.97801L11.0582 3.94309L10.9938 3.90531L10.9349 3.86945L10.884 3.84152L10.8231 3.81105L10.7691 3.78216L10.7085 3.75265L10.6448 3.71868L10.5901 3.69233L10.5264 3.66185L10.4644 3.63392L10.4097 3.60885L10.3332 3.57584L10.2646 3.54601L10.194 3.51553L10.1068 3.48061L10.0413 3.45427L9.96586 3.42761L9.90112 3.40411L9.84123 3.38443L9.77648 3.36285L9.68958 3.33238L9.62484 3.31334L9.55144 3.29017L9.49155 3.27397L9.45416 3.26763L9.45243 1.00286L8.35598 2.00271L8.35666 3.05464L8.26873 3.04195L8.15206 3.02957L8.05892 3.02036L7.90209 3.00957L7.75633 3.00513L7.67013 3.00258L7.46033 3.00449L7.32323 3.00607L7.16327 3.01147L7.05248 3.01686L7.0234 3.02322L7.02306 3.02354L6.92819 3.03051L6.83022 3.0375L6.76167 3.05019L6.73017 3.06257L6.72843 1Z" fill="#383838" stroke="#383838" stroke-width="0.6"/>
</svg>
