<svg width="22" height="21" viewBox="0 0 22 21" fill="none" xmlns="http://www.w3.org/2000/svg">
<g clip-path="url(#clip0_3640_7178)">
<path d="M2.69238 2.69141L19.3078 19.3068" stroke="white" stroke-width="2" stroke-linecap="round" stroke-linejoin="round"/>
<path d="M8.23047 4.53876C8.23047 3.80432 8.52223 3.09995 9.04156 2.58062C9.56089 2.06129 10.2653 1.76953 10.9997 1.76953C11.7341 1.76953 12.4385 2.06129 12.9578 2.58062C13.4772 3.09995 13.7689 3.80432 13.7689 4.53876V9.15415C13.769 9.42752 13.7285 9.69939 13.6489 9.96092M11.8028 11.8071C11.3889 11.9325 10.9515 11.9592 10.5254 11.8852C10.0994 11.8111 9.69665 11.6383 9.3494 11.3806C9.00215 11.1229 8.72008 10.7875 8.52578 10.4012C8.33147 10.0149 8.23034 9.58841 8.23047 9.15599V8.23292" stroke="white" stroke-width="2" stroke-linecap="round" stroke-linejoin="round"/>
<path d="M4.53809 9.1543C4.53788 10.3205 4.85328 11.4649 5.45084 12.4664C6.04839 13.4678 6.90582 14.2889 7.93221 14.8425C8.95859 15.3961 10.1157 15.6616 11.2807 15.6108C12.4458 15.5601 13.5754 15.195 14.5498 14.5543M16.3978 12.7081C17.0936 11.6537 17.4635 10.4176 17.4612 9.1543" stroke="white" stroke-width="2" stroke-linecap="round" stroke-linejoin="round"/>
<path d="M7.30762 19.3076H14.6922" stroke="white" stroke-width="2" stroke-linecap="round" stroke-linejoin="round"/>
<path d="M11 15.6152V19.3075" stroke="white" stroke-width="2" stroke-linecap="round" stroke-linejoin="round"/>
</g>
<defs>
<clipPath id="clip0_3640_7178">
<rect width="22" height="21" fill="white"/>
</clipPath>
</defs>
</svg>
