<svg width="25" height="26" viewBox="0 0 25 26" fill="none" xmlns="http://www.w3.org/2000/svg">
<path fill-rule="evenodd" clip-rule="evenodd" d="M18.7071 10.7963C18.7071 12.0523 19.039 12.7925 19.7695 13.6456C20.3231 14.2741 20.5 15.0808 20.5 15.956C20.5 16.8302 20.2128 17.6601 19.6373 18.3339C18.884 19.1417 17.8215 19.6573 16.7372 19.747C15.1659 19.8809 13.5937 19.9937 12.0005 19.9937C10.4063 19.9937 8.83505 19.9263 7.26375 19.747C6.17846 19.6573 5.11602 19.1417 4.36367 18.3339C3.78822 17.6601 3.5 16.8302 3.5 15.956C3.5 15.0808 3.6779 14.2741 4.23049 13.6456C4.98384 12.7925 5.29392 12.0523 5.29392 10.7963V10.3703C5.29392 8.68834 5.71333 7.58852 6.577 6.51186C7.86106 4.9417 9.91935 4 11.9558 4H12.0452C14.1254 4 16.2502 4.98702 17.5125 6.62466C18.3314 7.67916 18.7071 8.73265 18.7071 10.3703V10.7963ZM9.07367 22.0608C9.07367 21.5573 9.53582 21.3266 9.96318 21.2279C10.4631 21.1222 13.5093 21.1222 14.0092 21.2279C14.4366 21.3266 14.8987 21.5573 14.8987 22.0608C14.8738 22.5402 14.5926 22.9653 14.204 23.2352C13.7001 23.628 13.1088 23.8767 12.4906 23.9664C12.1487 24.0107 11.8128 24.0117 11.4828 23.9664C10.8636 23.8767 10.2723 23.628 9.76938 23.2342C9.37978 22.9653 9.09852 22.5402 9.07367 22.0608Z" fill="#3A74D2"/>
<circle cx="22.5" cy="2.5" r="2.5" fill="#F06D57"/>
</svg>
