<svg width="27" height="26" viewBox="0 0 27 26" fill="none" xmlns="http://www.w3.org/2000/svg">
<path fill-rule="evenodd" clip-rule="evenodd" d="M8.46083 2.16699H17.5403C20.8867 2.16699 22.75 4.09533 22.75 7.39949V18.5903C22.75 21.9487 20.8867 23.8337 17.5403 23.8337H8.46083C5.1675 23.8337 3.25 21.9487 3.25 18.5903V7.39949C3.25 4.09533 5.1675 2.16699 8.46083 2.16699ZM8.75333 7.21533V7.20449H11.9914C12.4583 7.20449 12.8375 7.58366 12.8375 8.04841C12.8375 8.52616 12.4583 8.90533 11.9914 8.90533H8.75333C8.28642 8.90533 7.90833 8.52616 7.90833 8.06033C7.90833 7.59449 8.28642 7.21533 8.75333 7.21533ZM8.75333 13.802H17.2467C17.7125 13.802 18.0917 13.4228 18.0917 12.957C18.0917 12.4912 17.7125 12.1109 17.2467 12.1109H8.75333C8.28642 12.1109 7.90833 12.4912 7.90833 12.957C7.90833 13.4228 8.28642 13.802 8.75333 13.802ZM8.75333 18.7528H17.2467C17.6789 18.7095 18.005 18.3401 18.005 17.9078C18.005 17.4637 17.6789 17.0953 17.2467 17.052H8.75333C8.42833 17.0195 8.11417 17.1712 7.94083 17.4528C7.7675 17.7237 7.7675 18.0812 7.94083 18.3628C8.11417 18.6337 8.42833 18.7962 8.75333 18.7528Z" fill="#DAE5ED"/>
<path fill-rule="evenodd" clip-rule="evenodd" d="M8.81 3H17.191C20.28 3 22 4.78 22 7.83V18.16C22 21.26 20.28 23 17.191 23H8.81C5.77 23 4 21.26 4 18.16V7.83C4 4.78 5.77 3 8.81 3ZM9.08 7.66V7.65H12.069C12.5 7.65 12.85 8 12.85 8.429C12.85 8.87 12.5 9.22 12.069 9.22H9.08C8.649 9.22 8.3 8.87 8.3 8.44C8.3 8.01 8.649 7.66 9.08 7.66ZM9.08 13.74H16.92C17.35 13.74 17.7 13.39 17.7 12.96C17.7 12.53 17.35 12.179 16.92 12.179H9.08C8.649 12.179 8.3 12.53 8.3 12.96C8.3 13.39 8.649 13.74 9.08 13.74ZM9.08 18.31H16.92C17.319 18.27 17.62 17.929 17.62 17.53C17.62 17.12 17.319 16.78 16.92 16.74H9.08C8.78 16.71 8.49 16.85 8.33 17.11C8.17 17.36 8.17 17.69 8.33 17.95C8.49 18.2 8.78 18.35 9.08 18.31Z" fill="#3A74D2"/>
<circle cx="22" cy="20" r="5" fill="#F4E12C"/>
<path d="M23.1749 18.7491C22.5801 19.3381 22.0371 19.9156 21.466 20.4919L20.7946 19.96C20.6897 19.877 20.5479 19.8557 20.4228 19.904C20.2977 19.9523 20.2081 20.0629 20.1879 20.1942C20.1677 20.3254 20.2198 20.4574 20.3248 20.5403L21.2644 21.2831C21.4144 21.4012 21.6304 21.3887 21.7655 21.2541C22.4414 20.5847 23.0469 19.9273 23.7073 19.2733C23.8177 19.1662 23.8505 19.0033 23.7899 18.8627C23.7294 18.7221 23.5879 18.6325 23.4333 18.6369C23.3357 18.6397 23.243 18.6799 23.1749 18.7491Z" fill="white"/>
</svg>
