<svg width="11" height="12" viewBox="0 0 11 12" fill="none" xmlns="http://www.w3.org/2000/svg">
<path d="M5.5 0.5C5.17161 0.5 4.90545 0.766166 4.90545 1.09455V5.40545H0.594553C0.266166 5.40545 0 5.67161 0 6C0 6.32839 0.266166 6.59455 0.594553 6.59455H4.90545V10.9054C4.90545 11.2338 5.17161 11.5 5.5 11.5C5.82839 11.5 6.09455 11.2338 6.09455 10.9054V6.59455H10.4054C10.7338 6.59455 11 6.32839 11 6C11 5.67161 10.7338 5.40545 10.4054 5.40545H6.09455V1.09455C6.09455 0.766166 5.82839 0.5 5.5 0.5Z" fill="#3A74D2"/>
</svg>
