<svg width="32" height="26" viewBox="0 0 32 26" fill="none" xmlns="http://www.w3.org/2000/svg">
<path fill-rule="evenodd" clip-rule="evenodd" d="M8.46083 2.16699H17.5403C20.8867 2.16699 22.75 4.09533 22.75 7.39949V18.5903C22.75 21.9487 20.8867 23.8337 17.5403 23.8337H8.46083C5.1675 23.8337 3.25 21.9487 3.25 18.5903V7.39949C3.25 4.09533 5.1675 2.16699 8.46083 2.16699ZM8.75333 7.21533V7.20449H11.9914C12.4583 7.20449 12.8375 7.58366 12.8375 8.04841C12.8375 8.52616 12.4583 8.90533 11.9914 8.90533H8.75333C8.28642 8.90533 7.90833 8.52616 7.90833 8.06033C7.90833 7.59449 8.28642 7.21533 8.75333 7.21533ZM8.75333 13.802H17.2467C17.7125 13.802 18.0917 13.4228 18.0917 12.957C18.0917 12.4912 17.7125 12.1109 17.2467 12.1109H8.75333C8.28642 12.1109 7.90833 12.4912 7.90833 12.957C7.90833 13.4228 8.28642 13.802 8.75333 13.802ZM8.75333 18.7528H17.2467C17.6789 18.7095 18.005 18.3401 18.005 17.9078C18.005 17.4637 17.6789 17.0953 17.2467 17.052H8.75333C8.42833 17.0195 8.11417 17.1712 7.94083 17.4528C7.7675 17.7237 7.7675 18.0812 7.94083 18.3628C8.11417 18.6337 8.42833 18.7962 8.75333 18.7528Z" fill="#DAE5ED"/>
<path fill-rule="evenodd" clip-rule="evenodd" d="M8.81 3H17.191C20.28 3 22 4.78 22 7.83V18.16C22 21.26 20.28 23 17.191 23H8.81C5.77 23 4 21.26 4 18.16V7.83C4 4.78 5.77 3 8.81 3ZM9.08 7.66V7.65H12.069C12.5 7.65 12.85 8 12.85 8.429C12.85 8.87 12.5 9.22 12.069 9.22H9.08C8.649 9.22 8.3 8.87 8.3 8.44C8.3 8.01 8.649 7.66 9.08 7.66ZM9.08 13.74H16.92C17.35 13.74 17.7 13.39 17.7 12.96C17.7 12.53 17.35 12.179 16.92 12.179H9.08C8.649 12.179 8.3 12.53 8.3 12.96C8.3 13.39 8.649 13.74 9.08 13.74ZM9.08 18.31H16.92C17.319 18.27 17.62 17.929 17.62 17.53C17.62 17.12 17.319 16.78 16.92 16.74H9.08C8.78 16.71 8.49 16.85 8.33 17.11C8.17 17.36 8.17 17.69 8.33 17.95C8.49 18.2 8.78 18.35 9.08 18.31Z" fill="#3A74D2"/>
<path fill-rule="evenodd" clip-rule="evenodd" d="M23.4696 17.6829L28.595 11.0548C28.8735 10.6974 28.9726 10.2842 28.8797 9.86341C28.7992 9.4809 28.564 9.1172 28.2112 8.84129L27.3507 8.15779C26.6017 7.56207 25.6732 7.62478 25.1409 8.30828L24.5652 9.05512C24.4909 9.14855 24.5095 9.28651 24.6024 9.36176C24.6024 9.36176 26.057 10.5281 26.088 10.5532C26.187 10.6472 26.2613 10.7727 26.2799 10.9232C26.3108 11.2179 26.1065 11.4938 25.8032 11.5314C25.6609 11.5502 25.5247 11.5063 25.4256 11.4248L23.8967 10.2083C23.8224 10.1525 23.711 10.1644 23.6491 10.2397L20.0155 14.9427C19.7803 15.2374 19.6998 15.6199 19.7803 15.9899L20.2445 18.0027C20.2693 18.1093 20.3621 18.1846 20.4736 18.1846L22.5163 18.1595C22.8877 18.1532 23.2343 17.9839 23.4696 17.6829ZM26.3298 17.0561H29.6607C29.9857 17.0561 30.25 17.3238 30.25 17.653C30.25 17.9829 29.9857 18.25 29.6607 18.25H26.3298C26.0048 18.25 25.7405 17.9829 25.7405 17.653C25.7405 17.3238 26.0048 17.0561 26.3298 17.0561Z" fill="#F4E12C"/>
</svg>
