<svg width="24" height="24" viewBox="0 0 24 24" fill="none" xmlns="http://www.w3.org/2000/svg">
<path fill-rule="evenodd" clip-rule="evenodd" d="M12 24C18.6274 24 24 18.6274 24 12C24 5.37258 18.6274 0 12 0C5.37258 0 0 5.37258 0 12C0 18.6274 5.37258 24 12 24Z" fill="#D8DADC"/>
<path fill-rule="evenodd" clip-rule="evenodd" d="M11.2 15C11.0667 11.159 14.4 11.2829 14.4 9.30041C14.4 6.82233 10.1333 5.95501 9.6 9.54822L8 9.42432C8.66667 4.59206 16 5.21158 16 9.17651C16 12.0263 12.8 11.5307 12.6667 15H11.2ZM11 18V16H13V18H11Z" fill="white"/>
</svg>
