<svg width="36" height="36" viewBox="0 0 36 36" fill="none" xmlns="http://www.w3.org/2000/svg">
<rect width="36" height="36" rx="18" fill="#3A74D2" fill-opacity="0.2"/>
<g clip-path="url(#clip0_2399_6458)">
<path d="M10.5 18.5L18.5 10.5C19.4283 9.57178 20.6873 9.05029 22 9.05029C23.3128 9.05029 24.5718 9.57178 25.5 10.5C26.4283 11.4283 26.9498 12.6873 26.9498 14C26.9498 15.3128 26.4283 16.5718 25.5 17.5L17.5 25.5C16.5718 26.4283 15.3128 26.9498 14 26.9498C12.6873 26.9498 11.4283 26.4283 10.5 25.5C9.57178 24.5718 9.05029 23.3128 9.05029 22C9.05029 20.6873 9.57178 19.4283 10.5 18.5" stroke="#3A74D2" stroke-width="2" stroke-linecap="round" stroke-linejoin="round"/>
<path d="M14.5 14.5L21.5 21.5" stroke="#3A74D2" stroke-width="2" stroke-linecap="round" stroke-linejoin="round"/>
</g>
<defs>
<clipPath id="clip0_2399_6458">
<rect width="24" height="24" fill="white" transform="translate(6 6)"/>
</clipPath>
</defs>
</svg>
