<svg width="18" height="18" viewBox="0 0 18 18" fill="none" xmlns="http://www.w3.org/2000/svg">
<g clip-path="url(#clip0_3640_7229)">
<path d="M11.25 3.75C11.25 2.50736 10.2426 1.5 9 1.5C7.75736 1.5 6.75 2.50736 6.75 3.75V7.5C6.75 8.74264 7.75736 9.75 9 9.75C10.2426 9.75 11.25 8.74264 11.25 7.5V3.75Z" stroke="white" stroke-width="1.5" stroke-linecap="round" stroke-linejoin="round"/>
<path d="M3.75 7.5C3.75 8.89239 4.30312 10.2277 5.28769 11.2123C6.27226 12.1969 7.60761 12.75 9 12.75C10.3924 12.75 11.7277 12.1969 12.7123 11.2123C13.6969 10.2277 14.25 8.89239 14.25 7.5" stroke="white" stroke-width="1.5" stroke-linecap="round" stroke-linejoin="round"/>
<path d="M6 15.75H12" stroke="white" stroke-width="1.5" stroke-linecap="round" stroke-linejoin="round"/>
<path d="M9 12.75V15.75" stroke="white" stroke-width="1.5" stroke-linecap="round" stroke-linejoin="round"/>
</g>
<defs>
<clipPath id="clip0_3640_7229">
<rect width="18" height="18" fill="white"/>
</clipPath>
</defs>
</svg>
