<svg width="18" height="17" viewBox="0 0 18 17" fill="none" xmlns="http://www.w3.org/2000/svg">
<path d="M13.9317 10.3365C13.7159 10.5352 13.6167 10.8226 13.6659 11.1044L14.4067 14.9994C14.4692 15.3295 14.3226 15.6636 14.0317 15.8544C13.7467 16.0523 13.3676 16.0761 13.0567 15.9178L9.36591 14.089C9.23758 14.0241 9.09508 13.9893 8.94925 13.9853H8.72341C8.64508 13.9964 8.56841 14.0201 8.49841 14.0565L4.80675 15.894C4.62425 15.9811 4.41758 16.012 4.21508 15.9811C3.72175 15.8924 3.39258 15.4459 3.47341 14.9749L4.21508 11.0799C4.26425 10.7957 4.16508 10.5067 3.94925 10.3048L0.940079 7.534C0.688412 7.30205 0.600912 6.95371 0.715912 6.63942C0.827579 6.32592 1.11258 6.09713 1.45675 6.04567L5.59841 5.47488C5.91341 5.444 6.19008 5.26192 6.33175 4.99275L8.15674 1.43817C8.20008 1.359 8.25591 1.28617 8.32341 1.22442L8.39841 1.169C8.43758 1.12784 8.48258 1.0938 8.53258 1.06609L8.62341 1.03442L8.76508 0.979004H9.11591C9.42924 1.00988 9.70508 1.188 9.84925 1.454L11.6984 4.99275C11.8317 5.25163 12.0909 5.43134 12.3901 5.47488L16.5317 6.04567C16.8817 6.09317 17.1742 6.32275 17.2901 6.63942C17.3992 6.95688 17.3051 7.30521 17.0484 7.534L13.9317 10.3365Z" fill="#3A74D2"/>
</svg>
