<svg width="18" height="19" viewBox="0 0 18 19" fill="none" xmlns="http://www.w3.org/2000/svg">
<circle cx="9" cy="10" r="9" fill="#BFC4CA"/>
<path d="M10.178 7.356V15H8.092V7.356H10.178ZM9.142 4.36C9.45 4.36 9.716 4.43467 9.94 4.584C10.164 4.724 10.276 4.99 10.276 5.382C10.276 5.76467 10.164 6.03067 9.94 6.18C9.716 6.32933 9.45 6.404 9.142 6.404C8.82467 6.404 8.554 6.32933 8.33 6.18C8.11533 6.03067 8.008 5.76467 8.008 5.382C8.008 4.99 8.11533 4.724 8.33 4.584C8.554 4.43467 8.82467 4.36 9.142 4.36Z" fill="white"/>
</svg>
