<svg width="40" height="40" viewBox="0 0 40 40" fill="none" xmlns="http://www.w3.org/2000/svg">
<path d="M39.5 20C39.5 30.7696 30.7696 39.5 20 39.5C9.23045 39.5 0.5 30.7696 0.5 20C0.5 9.23045 9.23045 0.5 20 0.5C30.7696 0.5 39.5 9.23045 39.5 20Z" fill="#3A74D2" fill-opacity="0.1" stroke="#3A74D2"/>
<path fill-rule="evenodd" clip-rule="evenodd" d="M23.9388 23.2436C24.013 24.923 22.6576 26.3431 20.9117 26.4145C20.7832 26.4199 14.5141 26.4073 14.5141 26.4073C12.7767 26.5392 11.2561 25.2907 11.119 23.6176C11.1087 23.4929 11.1115 16.7663 11.1115 16.7663C11.0346 15.0851 12.3881 13.6614 14.1348 13.5873C14.2653 13.581 20.526 13.5927 20.526 13.5927C22.2718 13.4627 23.7971 14.7202 23.9323 16.4014C23.9416 16.5224 23.9388 23.2436 23.9388 23.2436Z" stroke="#3A74D2" stroke-linecap="round" stroke-linejoin="round"/>
<path d="M23.9414 18.1485L26.96 15.6781C27.708 15.0658 28.83 15.5993 28.8291 16.5645L28.8181 23.3011C28.8172 24.2663 27.6942 24.7953 26.9481 24.1829L23.9414 21.7125" stroke="#3A74D2" stroke-linecap="round" stroke-linejoin="round"/>
</svg>
