<svg width="24" height="22" viewBox="0 0 24 22" fill="none" xmlns="http://www.w3.org/2000/svg">
<g clip-path="url(#clip0_3640_7187)">
<path d="M14.9229 8.92248L19.4759 6.64648C19.6283 6.57032 19.7976 6.53436 19.9678 6.54203C20.1381 6.5497 20.3035 6.60073 20.4485 6.69029C20.5934 6.77985 20.7131 6.90496 20.7961 7.05375C20.8791 7.20255 20.9228 7.37009 20.9229 7.54048V14.3045C20.9228 14.4749 20.8791 14.6424 20.7961 14.7912C20.7131 14.94 20.5934 15.0651 20.4485 15.1547C20.3035 15.2442 20.1381 15.2953 19.9678 15.3029C19.7976 15.3106 19.6283 15.2746 19.4759 15.1985L14.9229 12.9225V8.92248Z" stroke="#1E2837" stroke-width="2" stroke-linecap="round" stroke-linejoin="round"/>
<path d="M12.9229 4.92285H4.92285C3.81828 4.92285 2.92285 5.81828 2.92285 6.92285V14.9229C2.92285 16.0274 3.81828 16.9229 4.92285 16.9229H12.9229C14.0274 16.9229 14.9229 16.0274 14.9229 14.9229V6.92285C14.9229 5.81828 14.0274 4.92285 12.9229 4.92285Z" stroke="#1E2837" stroke-width="2" stroke-linecap="round" stroke-linejoin="round"/>
</g>
<defs>
<clipPath id="clip0_3640_7187">
<rect width="24" height="22" fill="white"/>
</clipPath>
</defs>
</svg>
