<svg width="18" height="18" viewBox="0 0 18 18" fill="none" xmlns="http://www.w3.org/2000/svg">
<path fill-rule="evenodd" clip-rule="evenodd" d="M12.0583 11.4613C12.1167 12.7852 11.0482 13.9048 9.67185 13.9611C9.57048 13.9653 4.62822 13.9554 4.62822 13.9554C3.25853 14.0593 2.05978 13.0751 1.95174 11.7561C1.9436 11.6578 1.94582 6.3549 1.94582 6.3549C1.88515 5.02953 2.95218 3.90712 4.32927 3.84872C4.43212 3.84374 9.36773 3.85299 9.36773 3.85299C10.7441 3.75044 11.9465 4.7418 12.0531 6.06718C12.0605 6.16261 12.0583 11.4613 12.0583 11.4613Z" stroke="#3A74D2" stroke-width="0.794273" stroke-linecap="round" stroke-linejoin="round"/>
<path d="M12.0605 7.44441L14.4403 5.49685C15.0299 5.01412 15.9145 5.43471 15.9137 6.19566L15.9051 11.5065C15.9044 12.2674 15.0191 12.6844 14.4309 12.2017L12.0605 10.2541" stroke="#3A74D2" stroke-width="0.794273" stroke-linecap="round" stroke-linejoin="round"/>
</svg>
