<svg width="21" height="21" viewBox="0 0 21 21" fill="none" xmlns="http://www.w3.org/2000/svg">
<path fill-rule="evenodd" clip-rule="evenodd" d="M14.1806 13.7487C14.248 15.2754 13.0159 16.5665 11.4287 16.6313C11.3118 16.6363 5.61265 16.6248 5.61265 16.6248C4.0332 16.7447 2.65085 15.6097 2.52627 14.0887C2.51688 13.9754 2.51944 7.86029 2.51944 7.86029C2.44947 6.33193 3.67993 5.03762 5.26792 4.97028C5.38653 4.96453 11.078 4.9752 11.078 4.9752C12.6652 4.85694 14.0518 6.00014 14.1747 7.5285C14.1832 7.63855 14.1806 13.7487 14.1806 13.7487Z" stroke="#3A74D2" stroke-width="1.02" stroke-linecap="round" stroke-linejoin="round"/>
<path d="M14.1836 9.1165L16.9278 6.87067C17.6078 6.314 18.6278 6.799 18.6269 7.6765L18.6169 13.8007C18.6161 14.6782 17.5953 15.159 16.9169 14.6023L14.1836 12.3565" stroke="#3A74D2" stroke-width="1.02" stroke-linecap="round" stroke-linejoin="round"/>
</svg>
