<svg width="18" height="17" viewBox="0 0 18 17" fill="none" xmlns="http://www.w3.org/2000/svg">
<path d="M13.9317 10.3367C13.7159 10.5355 13.6167 10.8228 13.6659 11.1047L14.4067 14.9997C14.4692 15.3298 14.3226 15.6639 14.0317 15.8547C13.7467 16.0526 13.3676 16.0763 13.0567 15.918L9.36591 14.0892C9.23758 14.0243 9.09508 13.9895 8.94925 13.9855H8.72341C8.64508 13.9966 8.56841 14.0204 8.49841 14.0568L4.80675 15.8942C4.62425 15.9813 4.41758 16.0122 4.21508 15.9813C3.72175 15.8927 3.39258 15.4462 3.47341 14.9751L4.21508 11.0801C4.26425 10.7959 4.16508 10.507 3.94925 10.3051L0.940079 7.53425C0.688412 7.30229 0.600912 6.95396 0.715912 6.63967C0.827579 6.32616 1.11258 6.09737 1.45675 6.04592L5.59841 5.47512C5.91341 5.44425 6.19008 5.26217 6.33175 4.993L8.15674 1.43841C8.20008 1.35925 8.25591 1.28641 8.32341 1.22466L8.39841 1.16925C8.43758 1.12808 8.48258 1.09404 8.53258 1.06633L8.62341 1.03466L8.76508 0.979248H9.11591C9.42924 1.01012 9.70508 1.18825 9.84925 1.45425L11.6984 4.993C11.8317 5.25187 12.0909 5.43158 12.3901 5.47512L16.5317 6.04592C16.8817 6.09341 17.1742 6.323 17.2901 6.63967C17.3992 6.95712 17.3051 7.30546 17.0484 7.53425L13.9317 10.3367Z" fill="white"/>
</svg>
